mBrush0.ufo
<glyph name="exclam" format="1">
  <advance width="198.0"/>
  <unicode hex="0021"/>
  <outline>
    <contour>
      <point x="104" y="80" type="curve"/>
      <point x="104" y="80" type="line"/>
      <point x="91" y="78"/>
      <point x="82" y="65"/>
      <point x="80" y="53" type="curve"/>
      <point x="80" y="57" type="line"/>
      <point x="79" y="46"/>
      <point x="98" y="41"/>
      <point x="108" y="41" type="curve" smooth="yes"/>
      <point x="120" y="41"/>
      <point x="122" y="56"/>
      <point x="121" y="62" type="curve"/>
      <point x="118" y="67"/>
      <point x="116" y="82"/>
    </contour>
    <contour>
      <point x="96" y="128" type="line" smooth="yes"/>
      <point x="130" y="134"/>
      <point x="156" y="105"/>
      <point x="165" y="78" type="curve"/>
      <point x="176" y="46"/>
      <point x="148" y="-9"/>
      <point x="106" y="-7" type="curve" smooth="yes"/>
      <point x="64" y="-5"/>
      <point x="31" y="30"/>
      <point x="32" y="59" type="curve" smooth="yes"/>
      <point x="32" y="60"/>
      <point x="32" y="62"/>
      <point x="32" y="63" type="curve" smooth="yes"/>
      <point x="38" y="91"/>
      <point x="65" y="122"/>
      <point x="96" y="128" type="curve" smooth="yes"/>
    </contour>
    <contour>
      <point x="77" y="191" type="curve" smooth="yes"/>
      <point x="70" y="392"/>
      <point x="75" y="541"/>
      <point x="78" y="746" type="curve" smooth="yes"/>
      <point x="78" y="759"/>
      <point x="89" y="770"/>
      <point x="102" y="770" type="curve" smooth="yes"/>
      <point x="115" y="770"/>
      <point x="126" y="759"/>
      <point x="126" y="746" type="curve" smooth="yes"/>
      <point x="123" y="541"/>
      <point x="118" y="392"/>
      <point x="125" y="193" type="curve" smooth="yes"/>
      <point x="125" y="180"/>
      <point x="115" y="168"/>
      <point x="102" y="168" type="curve" smooth="yes"/>
      <point x="89" y="168"/>
      <point x="77" y="178"/>
    </contour>
  </outline>
</glyph>
<glyph name="quotedbl" format="1">
  <advance width="202"/>
  <unicode hex="0022"/>
  <outline>
    <contour>
      <point x="22" y="593" type="line"/>
      <point x="22" y="553"/>
      <point x="26" y="513"/>
      <point x="30" y="473" type="curve" smooth="yes"/>
      <point x="31" y="456"/>
      <point x="45" y="443"/>
      <point x="63" y="444" type="curve" smooth="yes"/>
      <point x="79" y="444"/>
      <point x="94" y="460"/>
      <point x="92" y="477" type="curve" smooth="yes"/>
      <point x="88" y="517"/>
      <point x="85" y="557"/>
      <point x="84" y="597" type="curve" smooth="yes"/>
      <point x="84" y="614"/>
      <point x="68" y="627"/>
      <point x="51" y="626" type="curve" smooth="yes"/>
      <point x="34" y="626"/>
      <point x="22" y="611"/>
      <point x="22" y="593" type="curve"/>
    </contour>
    <contour>
      <point x="102" y="593" type="line"/>
      <point x="102" y="552"/>
      <point x="102" y="510"/>
      <point x="111" y="469" type="curve" smooth="yes"/>
      <point x="115" y="453"/>
      <point x="135" y="444"/>
      <point x="151" y="449" type="curve" smooth="yes"/>
      <point x="159" y="452"/>
      <point x="165" y="457"/>
      <point x="169" y="465" type="curve" smooth="yes"/>
      <point x="173" y="473"/>
      <point x="173" y="480"/>
      <point x="171" y="489" type="curve" smooth="yes"/>
      <point x="170" y="491"/>
      <point x="170" y="494"/>
      <point x="169" y="497" type="curve"/>
      <point x="170" y="495"/>
      <point x="170" y="492"/>
      <point x="171" y="489" type="curve"/>
      <point x="164" y="525"/>
      <point x="164" y="561"/>
      <point x="164" y="597" type="curve" smooth="yes"/>
      <point x="164" y="614"/>
      <point x="148" y="627"/>
      <point x="131" y="626" type="curve" smooth="yes"/>
      <point x="114" y="626"/>
      <point x="102" y="611"/>
      <point x="102" y="593" type="curve"/>
    </contour>
  </outline>
</glyph>
<glyph name="numbersign" format="1">
  <advance width="628"/>
  <unicode hex="0023"/>
  <outline>
    <contour>
      <point x="45" y="236" type="line"/>
      <point x="176" y="248"/>
      <point x="308" y="263"/>
      <point x="440" y="273" type="curve" smooth="yes"/>
      <point x="475" y="276"/>
      <point x="510" y="278"/>
      <point x="545" y="280" type="curve" smooth="yes"/>
      <point x="562" y="280"/>
      <point x="575" y="296"/>
      <point x="574" y="313" type="curve" smooth="yes"/>
      <point x="574" y="330"/>
      <point x="558" y="343"/>
      <point x="541" y="342" type="curve" smooth="yes"/>
      <point x="410" y="336"/>
      <point x="279" y="322"/>
      <point x="148" y="309" type="curve" smooth="yes"/>
      <point x="113" y="305"/>
      <point x="77" y="302"/>
      <point x="41" y="298" type="curve" smooth="yes"/>
      <point x="24" y="297"/>
      <point x="11" y="283"/>
      <point x="12" y="265" type="curve" smooth="yes"/>
      <point x="12" y="249"/>
      <point x="28" y="234"/>
      <point x="45" y="236" type="curve"/>
    </contour>
    <contour>
      <point x="380" y="593" type="line"/>
      <point x="378" y="571"/>
      <point x="377" y="549"/>
      <point x="375" y="526" type="curve"/>
      <point x="376" y="529"/>
      <point x="376" y="532"/>
      <point x="376" y="534" type="curve"/>
      <point x="366" y="406"/>
      <point x="348" y="278"/>
      <point x="334" y="150" type="curve" smooth="yes"/>
      <point x="333" y="145"/>
      <point x="333" y="139"/>
      <point x="332" y="133" type="curve" smooth="yes"/>
      <point x="331" y="125"/>
      <point x="332" y="117"/>
      <point x="336" y="110" type="curve" smooth="yes"/>
      <point x="341" y="103"/>
      <point x="348" y="98"/>
      <point x="357" y="96" type="curve" smooth="yes"/>
      <point x="372" y="93"/>
      <point x="392" y="104"/>
      <point x="394" y="121" type="curve" smooth="yes"/>
      <point x="407" y="249"/>
      <point x="426" y="376"/>
      <point x="436" y="504" type="curve" smooth="yes"/>
      <point x="439" y="535"/>
      <point x="441" y="566"/>
      <point x="442" y="597" type="curve" smooth="yes"/>
      <point x="443" y="614"/>
      <point x="425" y="627"/>
      <point x="409" y="626" type="curve" smooth="yes"/>
      <point x="401" y="626"/>
      <point x="393" y="622"/>
      <point x="388" y="616" type="curve" smooth="yes"/>
      <point x="382" y="609"/>
      <point x="380" y="602"/>
      <point x="380" y="593" type="curve"/>
    </contour>
    <contour>
      <point x="61" y="408" type="line"/>
      <point x="190" y="426"/>
      <point x="321" y="435"/>
      <point x="452" y="440" type="curve" smooth="yes"/>
      <point x="488" y="442"/>
      <point x="524" y="443"/>
      <point x="561" y="444" type="curve" smooth="yes"/>
      <point x="578" y="444"/>
      <point x="591" y="460"/>
      <point x="590" y="477" type="curve" smooth="yes"/>
      <point x="590" y="494"/>
      <point x="575" y="507"/>
      <point x="557" y="506" type="curve" smooth="yes"/>
      <point x="426" y="503"/>
      <point x="295" y="498"/>
      <point x="164" y="484" type="curve" smooth="yes"/>
      <point x="128" y="480"/>
      <point x="93" y="476"/>
      <point x="57" y="470" type="curve" smooth="yes"/>
      <point x="49" y="469"/>
      <point x="42" y="467"/>
      <point x="36" y="460" type="curve" smooth="yes"/>
      <point x="30" y="454"/>
      <point x="27" y="446"/>
      <point x="28" y="437" type="curve" smooth="yes"/>
      <point x="28" y="421"/>
      <point x="44" y="405"/>
      <point x="61" y="408" type="curve"/>
    </contour>
    <contour>
      <point x="196" y="613" type="line"/>
      <point x="180" y="482"/>
      <point x="166" y="351"/>
      <point x="155" y="219" type="curve" smooth="yes"/>
      <point x="152" y="192"/>
      <point x="150" y="165"/>
      <point x="148" y="137" type="curve" smooth="yes"/>
      <point x="147" y="129"/>
      <point x="148" y="122"/>
      <point x="152" y="114" type="curve" smooth="yes"/>
      <point x="157" y="107"/>
      <point x="164" y="102"/>
      <point x="173" y="100" type="curve" smooth="yes"/>
      <point x="181" y="99"/>
      <point x="189" y="100"/>
      <point x="196" y="104" type="curve" smooth="yes"/>
      <point x="202" y="109"/>
      <point x="209" y="117"/>
      <point x="210" y="125" type="curve" smooth="yes"/>
      <point x="220" y="256"/>
      <point x="233" y="387"/>
      <point x="248" y="517" type="curve" smooth="yes"/>
      <point x="251" y="545"/>
      <point x="254" y="573"/>
      <point x="258" y="601" type="curve" smooth="yes"/>
      <point x="260" y="618"/>
      <point x="251" y="634"/>
      <point x="233" y="638" type="curve" smooth="yes"/>
      <point x="218" y="641"/>
      <point x="198" y="630"/>
      <point x="196" y="613" type="curve"/>
    </contour>
  </outline>
</glyph>
<glyph name="dollar" format="1">
  <advance width="500"/>
  <unicode hex="0024"/>
  <outline>
    <contour>
      <point x="190" y="622" type="line"/>
      <point x="197" y="494"/>
      <point x="208" y="367"/>
      <point x="225" y="240" type="curve" smooth="yes"/>
      <point x="231" y="190"/>
      <point x="239" y="140"/>
      <point x="247" y="91" type="curve" smooth="yes"/>
      <point x="249" y="82"/>
      <point x="251" y="75"/>
      <point x="258" y="69" type="curve" smooth="yes"/>
      <point x="264" y="63"/>
      <point x="272" y="60"/>
      <point x="280" y="61" type="curve" smooth="yes"/>
      <point x="289" y="61"/>
      <point x="297" y="65"/>
      <point x="302" y="71" type="curve" smooth="yes"/>
      <point x="307" y="77"/>
      <point x="312" y="86"/>
      <point x="310" y="94" type="curve" smooth="yes"/>
      <point x="289" y="220"/>
      <point x="273" y="348"/>
      <point x="263" y="475" type="curve" smooth="yes"/>
      <point x="259" y="525"/>
      <point x="256" y="575"/>
      <point x="253" y="625" type="curve" smooth="yes"/>
      <point x="252" y="642"/>
      <point x="237" y="656"/>
      <point x="220" y="655" type="curve" smooth="yes"/>
      <point x="203" y="654"/>
      <point x="189" y="639"/>
      <point x="190" y="622" type="curve"/>
    </contour>
    <contour>
      <point x="406" y="544" type="line"/>
      <point x="292" y="551"/>
      <point x="176" y="509"/>
      <point x="85" y="442" type="curve" smooth="yes"/>
      <point x="67" y="428"/>
      <point x="50" y="414"/>
      <point x="33" y="398" type="curve" smooth="yes"/>
      <point x="25" y="391"/>
      <point x="24" y="378"/>
      <point x="27" y="368" type="curve" smooth="yes"/>
      <point x="31" y="354"/>
      <point x="44" y="345"/>
      <point x="58" y="346" type="curve" smooth="yes"/>
      <point x="141" y="352"/>
      <point x="223" y="363"/>
      <point x="306" y="356" type="curve"/>
      <point x="303" y="357"/>
      <point x="300" y="357"/>
      <point x="298" y="357" type="curve"/>
      <point x="330" y="355"/>
      <point x="362" y="349"/>
      <point x="393" y="339" type="curve"/>
      <point x="390" y="340"/>
      <point x="387" y="341"/>
      <point x="385" y="342" type="curve"/>
      <point x="404" y="335"/>
      <point x="423" y="326"/>
      <point x="440" y="315" type="curve"/>
      <point x="437" y="316"/>
      <point x="435" y="318"/>
      <point x="433" y="319" type="curve"/>
      <point x="433" y="319"/>
      <point x="434" y="318"/>
      <point x="435" y="318" type="curve"/>
      <point x="439" y="336"/>
      <point x="442" y="353"/>
      <point x="446" y="371" type="curve"/>
      <point x="390" y="358"/>
      <point x="333" y="348"/>
      <point x="276" y="334" type="curve" smooth="yes"/>
      <point x="218" y="320"/>
      <point x="162" y="302"/>
      <point x="108" y="277" type="curve" smooth="yes"/>
      <point x="89" y="268"/>
      <point x="72" y="258"/>
      <point x="55" y="248" type="curve" smooth="yes"/>
      <point x="40" y="239"/>
      <point x="36" y="219"/>
      <point x="45" y="204" type="curve" smooth="yes"/>
      <point x="55" y="190"/>
      <point x="74" y="186"/>
      <point x="89" y="195" type="curve" smooth="yes"/>
      <point x="107" y="206"/>
      <point x="125" y="216"/>
      <point x="145" y="225" type="curve"/>
      <point x="142" y="224"/>
      <point x="140" y="223"/>
      <point x="137" y="222" type="curve"/>
      <point x="241" y="270"/>
      <point x="355" y="286"/>
      <point x="465" y="311" type="curve" smooth="yes"/>
      <point x="476" y="314"/>
      <point x="485" y="325"/>
      <point x="487" y="335" type="curve" smooth="yes"/>
      <point x="489" y="345"/>
      <point x="486" y="359"/>
      <point x="477" y="365" type="curve" smooth="yes"/>
      <point x="466" y="373"/>
      <point x="454" y="380"/>
      <point x="442" y="386" type="curve" smooth="yes"/>
      <point x="430" y="392"/>
      <point x="417" y="397"/>
      <point x="404" y="401" type="curve" smooth="yes"/>
      <point x="381" y="409"/>
      <point x="358" y="413"/>
      <point x="334" y="416" type="curve" smooth="yes"/>
      <point x="281" y="423"/>
      <point x="228" y="422"/>
      <point x="175" y="418" type="curve" smooth="yes"/>
      <point x="135" y="416"/>
      <point x="95" y="412"/>
      <point x="55" y="409" type="curve"/>
      <point x="64" y="391"/>
      <point x="72" y="374"/>
      <point x="80" y="356" type="curve"/>
      <point x="86" y="362"/>
      <point x="92" y="367"/>
      <point x="99" y="373" type="curve"/>
      <point x="96" y="371"/>
      <point x="94" y="369"/>
      <point x="92" y="367" type="curve"/>
      <point x="128" y="397"/>
      <point x="167" y="423"/>
      <point x="210" y="443" type="curve"/>
      <point x="207" y="442"/>
      <point x="205" y="441"/>
      <point x="203" y="440" type="curve"/>
      <point x="239" y="457"/>
      <point x="278" y="469"/>
      <point x="317" y="476" type="curve"/>
      <point x="315" y="476"/>
      <point x="312" y="476"/>
      <point x="309" y="475" type="curve"/>
      <point x="342" y="481"/>
      <point x="376" y="483"/>
      <point x="409" y="481" type="curve" smooth="yes"/>
      <point x="417" y="480"/>
      <point x="426" y="486"/>
      <point x="431" y="491" type="curve" smooth="yes"/>
      <point x="437" y="497"/>
      <point x="440" y="506"/>
      <point x="439" y="514" type="curve" smooth="yes"/>
      <point x="439" y="522"/>
      <point x="435" y="530"/>
      <point x="429" y="536" type="curve" smooth="yes"/>
      <point x="422" y="542"/>
      <point x="415" y="543"/>
      <point x="406" y="544" type="curve"/>
    </contour>
  </outline>
</glyph>
<glyph name="percent" format="1">
  <advance width="568"/>
  <unicode hex="0025"/>
  <outline>
    <contour>
      <point x="313" y="284" type="line"/>
      <point x="332" y="282"/>
      <point x="351" y="278"/>
      <point x="369" y="272" type="curve"/>
      <point x="367" y="273"/>
      <point x="364" y="274"/>
      <point x="362" y="275" type="curve"/>
      <point x="372" y="271"/>
      <point x="381" y="267"/>
      <point x="390" y="261" type="curve"/>
      <point x="388" y="262"/>
      <point x="386" y="264"/>
      <point x="383" y="265" type="curve"/>
      <point x="388" y="262"/>
      <point x="393" y="258"/>
      <point x="396" y="254" type="curve"/>
      <point x="394" y="256"/>
      <point x="393" y="258"/>
      <point x="391" y="260" type="curve"/>
      <point x="393" y="257"/>
      <point x="396" y="254"/>
      <point x="397" y="250" type="curve"/>
      <point x="396" y="253"/>
      <point x="395" y="255"/>
      <point x="394" y="258" type="curve"/>
      <point x="395" y="255"/>
      <point x="396" y="251"/>
      <point x="397" y="248" type="curve"/>
      <point x="397" y="251"/>
      <point x="396" y="253"/>
      <point x="396" y="256" type="curve"/>
      <point x="396" y="253"/>
      <point x="396" y="250"/>
      <point x="396" y="246" type="curve"/>
      <point x="396" y="249"/>
      <point x="397" y="252"/>
      <point x="397" y="254" type="curve"/>
      <point x="396" y="251"/>
      <point x="396" y="247"/>
      <point x="395" y="244" type="curve"/>
      <point x="395" y="246"/>
      <point x="396" y="249"/>
      <point x="397" y="251" type="curve"/>
      <point x="396" y="247"/>
      <point x="394" y="243"/>
      <point x="391" y="239" type="curve"/>
      <point x="393" y="242"/>
      <point x="394" y="244"/>
      <point x="396" y="246" type="curve"/>
      <point x="393" y="241"/>
      <point x="389" y="237"/>
      <point x="384" y="233" type="curve"/>
      <point x="386" y="235"/>
      <point x="389" y="237"/>
      <point x="391" y="239" type="curve"/>
      <point x="386" y="235"/>
      <point x="381" y="232"/>
      <point x="376" y="229" type="curve"/>
      <point x="378" y="231"/>
      <point x="381" y="232"/>
      <point x="383" y="233" type="curve"/>
      <point x="379" y="231"/>
      <point x="374" y="229"/>
      <point x="370" y="228" type="curve"/>
      <point x="372" y="229"/>
      <point x="375" y="229"/>
      <point x="378" y="230" type="curve"/>
      <point x="374" y="229"/>
      <point x="370" y="229"/>
      <point x="366" y="229" type="curve"/>
      <point x="369" y="229"/>
      <point x="372" y="229"/>
      <point x="374" y="229" type="curve"/>
      <point x="371" y="229"/>
      <point x="368" y="229"/>
      <point x="365" y="230" type="curve"/>
      <point x="368" y="230"/>
      <point x="370" y="229"/>
      <point x="373" y="228" type="curve"/>
      <point x="370" y="229"/>
      <point x="367" y="230"/>
      <point x="365" y="232" type="curve"/>
      <point x="367" y="230"/>
      <point x="369" y="229"/>
      <point x="372" y="227" type="curve"/>
      <point x="369" y="229"/>
      <point x="367" y="231"/>
      <point x="365" y="234" type="curve"/>
      <point x="366" y="231"/>
      <point x="368" y="229"/>
      <point x="370" y="227" type="curve"/>
      <point x="368" y="230"/>
      <point x="365" y="234"/>
      <point x="364" y="237" type="curve"/>
      <point x="365" y="235"/>
      <point x="366" y="233"/>
      <point x="367" y="230" type="curve"/>
      <point x="365" y="236"/>
      <point x="363" y="242"/>
      <point x="362" y="248" type="curve"/>
      <point x="362" y="245"/>
      <point x="363" y="242"/>
      <point x="363" y="240" type="curve"/>
      <point x="361" y="251"/>
      <point x="361" y="263"/>
      <point x="362" y="275" type="curve"/>
      <point x="362" y="273"/>
      <point x="362" y="270"/>
      <point x="361" y="267" type="curve"/>
      <point x="363" y="284"/>
      <point x="366" y="300"/>
      <point x="370" y="317" type="curve" smooth="yes"/>
      <point x="374" y="333"/>
      <point x="362" y="350"/>
      <point x="345" y="354" type="curve" smooth="yes"/>
      <point x="328" y="357"/>
      <point x="312" y="346"/>
      <point x="308" y="329" type="curve" smooth="yes"/>
      <point x="304" y="314"/>
      <point x="302" y="299"/>
      <point x="300" y="284" type="curve" smooth="yes"/>
      <point x="299" y="270"/>
      <point x="298" y="256"/>
      <point x="299" y="242" type="curve" smooth="yes"/>
      <point x="302" y="220"/>
      <point x="309" y="198"/>
      <point x="327" y="183" type="curve" smooth="yes"/>
      <point x="355" y="158"/>
      <point x="397" y="163"/>
      <point x="425" y="186" type="curve" smooth="yes"/>
      <point x="431" y="191"/>
      <point x="438" y="197"/>
      <point x="443" y="204" type="curve" smooth="yes"/>
      <point x="449" y="214"/>
      <point x="454" y="222"/>
      <point x="457" y="233" type="curve" smooth="yes"/>
      <point x="462" y="252"/>
      <point x="458" y="273"/>
      <point x="448" y="289" type="curve" smooth="yes"/>
      <point x="437" y="306"/>
      <point x="420" y="318"/>
      <point x="402" y="326" type="curve" smooth="yes"/>
      <point x="378" y="337"/>
      <point x="352" y="343"/>
      <point x="325" y="346" type="curve" smooth="yes"/>
      <point x="317" y="347"/>
      <point x="309" y="346"/>
      <point x="302" y="342" type="curve" smooth="yes"/>
      <point x="295" y="337"/>
      <point x="290" y="330"/>
      <point x="288" y="321" type="curve" smooth="yes"/>
      <point x="285" y="306"/>
      <point x="296" y="286"/>
      <point x="313" y="284" type="curve"/>
    </contour>
    <contour>
      <point x="73" y="540" type="line"/>
      <point x="90" y="542"/>
      <point x="108" y="544"/>
      <point x="126" y="543" type="curve"/>
      <point x="123" y="543"/>
      <point x="120" y="543"/>
      <point x="118" y="543" type="curve"/>
      <point x="126" y="543"/>
      <point x="135" y="541"/>
      <point x="143" y="539" type="curve"/>
      <point x="140" y="539"/>
      <point x="138" y="540"/>
      <point x="135" y="541" type="curve"/>
      <point x="140" y="540"/>
      <point x="144" y="537"/>
      <point x="148" y="535" type="curve"/>
      <point x="146" y="536"/>
      <point x="144" y="538"/>
      <point x="141" y="539" type="curve"/>
      <point x="144" y="537"/>
      <point x="147" y="535"/>
      <point x="149" y="532" type="curve"/>
      <point x="148" y="534"/>
      <point x="146" y="537"/>
      <point x="144" y="539" type="curve"/>
      <point x="146" y="536"/>
      <point x="148" y="534"/>
      <point x="149" y="531" type="curve"/>
      <point x="148" y="533"/>
      <point x="147" y="536"/>
      <point x="146" y="538" type="curve"/>
      <point x="147" y="535"/>
      <point x="148" y="532"/>
      <point x="148" y="529" type="curve"/>
      <point x="148" y="532"/>
      <point x="147" y="534"/>
      <point x="147" y="537" type="curve"/>
      <point x="148" y="533"/>
      <point x="148" y="530"/>
      <point x="147" y="526" type="curve"/>
      <point x="148" y="528"/>
      <point x="148" y="531"/>
      <point x="148" y="534" type="curve"/>
      <point x="148" y="528"/>
      <point x="146" y="523"/>
      <point x="145" y="518" type="curve"/>
      <point x="146" y="520"/>
      <point x="146" y="523"/>
      <point x="147" y="526" type="curve"/>
      <point x="145" y="518"/>
      <point x="141" y="511"/>
      <point x="137" y="505" type="curve"/>
      <point x="138" y="507"/>
      <point x="140" y="509"/>
      <point x="141" y="512" type="curve"/>
      <point x="137" y="505"/>
      <point x="131" y="498"/>
      <point x="124" y="493" type="curve"/>
      <point x="127" y="494"/>
      <point x="129" y="496"/>
      <point x="131" y="498" type="curve"/>
      <point x="126" y="494"/>
      <point x="121" y="491"/>
      <point x="115" y="488" type="curve"/>
      <point x="118" y="489"/>
      <point x="120" y="490"/>
      <point x="123" y="491" type="curve"/>
      <point x="119" y="490"/>
      <point x="115" y="488"/>
      <point x="112" y="488" type="curve"/>
      <point x="114" y="488"/>
      <point x="117" y="489"/>
      <point x="120" y="489" type="curve"/>
      <point x="117" y="489"/>
      <point x="114" y="489"/>
      <point x="112" y="489" type="curve"/>
      <point x="114" y="489"/>
      <point x="117" y="488"/>
      <point x="120" y="488" type="curve"/>
      <point x="117" y="488"/>
      <point x="115" y="489"/>
      <point x="113" y="490" type="curve"/>
      <point x="115" y="489"/>
      <point x="118" y="488"/>
      <point x="121" y="487" type="curve"/>
      <point x="119" y="488"/>
      <point x="117" y="489"/>
      <point x="115" y="490" type="curve"/>
      <point x="117" y="488"/>
      <point x="119" y="487"/>
      <point x="122" y="485" type="curve"/>
      <point x="120" y="487"/>
      <point x="118" y="488"/>
      <point x="116" y="490" type="curve"/>
      <point x="118" y="488"/>
      <point x="119" y="486"/>
      <point x="121" y="484" type="curve"/>
      <point x="119" y="487"/>
      <point x="117" y="490"/>
      <point x="115" y="494" type="curve"/>
      <point x="116" y="491"/>
      <point x="118" y="489"/>
      <point x="119" y="486" type="curve"/>
      <point x="116" y="493"/>
      <point x="114" y="499"/>
      <point x="113" y="506" type="curve"/>
      <point x="113" y="503"/>
      <point x="114" y="501"/>
      <point x="114" y="498" type="curve"/>
      <point x="111" y="515"/>
      <point x="111" y="533"/>
      <point x="113" y="551" type="curve"/>
      <point x="113" y="548"/>
      <point x="112" y="546"/>
      <point x="112" y="543" type="curve"/>
      <point x="113" y="549"/>
      <point x="113" y="555"/>
      <point x="114" y="561" type="curve" smooth="yes"/>
      <point x="114" y="563"/>
      <point x="114" y="566"/>
      <point x="114" y="569" type="curve"/>
      <point x="114" y="574"/>
      <point x="113" y="579"/>
      <point x="110" y="584" type="curve" smooth="yes"/>
      <point x="105" y="591"/>
      <point x="98" y="596"/>
      <point x="89" y="598" type="curve" smooth="yes"/>
      <point x="81" y="599"/>
      <point x="73" y="598"/>
      <point x="66" y="594" type="curve" smooth="yes"/>
      <point x="59" y="589"/>
      <point x="53" y="581"/>
      <point x="52" y="573" type="curve" smooth="yes"/>
      <point x="50" y="554"/>
      <point x="48" y="534"/>
      <point x="49" y="514" type="curve" smooth="yes"/>
      <point x="50" y="505"/>
      <point x="51" y="496"/>
      <point x="53" y="487" type="curve" smooth="yes"/>
      <point x="54" y="482"/>
      <point x="55" y="477"/>
      <point x="57" y="472" type="curve" smooth="yes"/>
      <point x="61" y="460"/>
      <point x="68" y="448"/>
      <point x="78" y="440" type="curve" smooth="yes"/>
      <point x="82" y="436"/>
      <point x="87" y="432"/>
      <point x="92" y="430" type="curve" smooth="yes"/>
      <point x="96" y="429"/>
      <point x="100" y="427"/>
      <point x="104" y="427" type="curve" smooth="yes"/>
      <point x="108" y="426"/>
      <point x="112" y="426"/>
      <point x="116" y="426" type="curve" smooth="yes"/>
      <point x="122" y="426"/>
      <point x="128" y="427"/>
      <point x="133" y="428" type="curve" smooth="yes"/>
      <point x="139" y="430"/>
      <point x="144" y="432"/>
      <point x="150" y="435" type="curve" smooth="yes"/>
      <point x="159" y="439"/>
      <point x="166" y="446"/>
      <point x="174" y="453" type="curve" smooth="yes"/>
      <point x="182" y="460"/>
      <point x="188" y="469"/>
      <point x="194" y="477" type="curve" smooth="yes"/>
      <point x="200" y="486"/>
      <point x="203" y="496"/>
      <point x="207" y="506" type="curve" smooth="yes"/>
      <point x="210" y="515"/>
      <point x="211" y="525"/>
      <point x="210" y="535" type="curve" smooth="yes"/>
      <point x="210" y="547"/>
      <point x="206" y="559"/>
      <point x="200" y="569" type="curve" smooth="yes"/>
      <point x="185" y="592"/>
      <point x="158" y="603"/>
      <point x="132" y="605" type="curve" smooth="yes"/>
      <point x="121" y="606"/>
      <point x="110" y="606"/>
      <point x="100" y="606" type="curve" smooth="yes"/>
      <point x="90" y="605"/>
      <point x="79" y="604"/>
      <point x="69" y="602" type="curve" smooth="yes"/>
      <point x="67" y="602"/>
      <point x="64" y="601"/>
      <point x="61" y="601" type="curve"/>
      <point x="56" y="599"/>
      <point x="51" y="596"/>
      <point x="48" y="592" type="curve" smooth="yes"/>
      <point x="42" y="586"/>
      <point x="39" y="578"/>
      <point x="40" y="569" type="curve" smooth="yes"/>
      <point x="40" y="561"/>
      <point x="44" y="553"/>
      <point x="50" y="548" type="curve" smooth="yes"/>
      <point x="56" y="543"/>
      <point x="65" y="538"/>
      <point x="73" y="540" type="curve"/>
    </contour>
    <contour>
      <point x="474" y="618" type="line"/>
      <point x="379" y="555"/>
      <point x="295" y="476"/>
      <point x="223" y="388" type="curve" smooth="yes"/>
      <point x="170" y="323"/>
      <point x="124" y="254"/>
      <point x="83" y="181" type="curve" smooth="yes"/>
      <point x="74" y="166"/>
      <point x="82" y="146"/>
      <point x="97" y="139" type="curve" smooth="yes"/>
      <point x="113" y="131"/>
      <point x="131" y="138"/>
      <point x="139" y="153" type="curve" smooth="yes"/>
      <point x="160" y="190"/>
      <point x="183" y="227"/>
      <point x="207" y="263" type="curve"/>
      <point x="206" y="260"/>
      <point x="204" y="258"/>
      <point x="202" y="256" type="curve"/>
      <point x="263" y="345"/>
      <point x="335" y="427"/>
      <point x="417" y="497" type="curve"/>
      <point x="415" y="495"/>
      <point x="413" y="493"/>
      <point x="410" y="492" type="curve"/>
      <point x="441" y="518"/>
      <point x="474" y="542"/>
      <point x="508" y="564" type="curve" smooth="yes"/>
      <point x="522" y="574"/>
      <point x="527" y="593"/>
      <point x="518" y="608" type="curve" smooth="yes"/>
      <point x="508" y="622"/>
      <point x="488" y="627"/>
      <point x="474" y="618" type="curve"/>
    </contour>
  </outline>
</glyph>
<glyph name="ampersand" format="1">
  <advance width="599"/>
  <unicode hex="0026"/>
  <outline>
    <contour>
      <point x="302" y="276" type="line"/>
      <point x="378" y="288"/>
      <point x="454" y="300"/>
      <point x="530" y="317" type="curve" smooth="yes"/>
      <point x="546" y="321"/>
      <point x="555" y="341"/>
      <point x="550" y="357" type="curve" smooth="yes"/>
      <point x="547" y="365"/>
      <point x="542" y="371"/>
      <point x="534" y="375" type="curve" smooth="yes"/>
      <point x="526" y="379"/>
      <point x="519" y="379"/>
      <point x="510" y="377" type="curve" smooth="yes"/>
      <point x="481" y="371"/>
      <point x="452" y="365"/>
      <point x="422" y="359" type="curve"/>
      <point x="425" y="360"/>
      <point x="428" y="360"/>
      <point x="430" y="361" type="curve"/>
      <point x="386" y="353"/>
      <point x="342" y="346"/>
      <point x="298" y="338" type="curve" smooth="yes"/>
      <point x="290" y="337"/>
      <point x="283" y="335"/>
      <point x="277" y="328" type="curve" smooth="yes"/>
      <point x="271" y="322"/>
      <point x="268" y="314"/>
      <point x="269" y="305" type="curve" smooth="yes"/>
      <point x="269" y="297"/>
      <point x="273" y="289"/>
      <point x="279" y="284" type="curve" smooth="yes"/>
      <point x="285" y="279"/>
      <point x="294" y="274"/>
      <point x="302" y="276" type="curve"/>
    </contour>
    <contour>
      <point x="561" y="34" type="line"/>
      <point x="490" y="88"/>
      <point x="421" y="144"/>
      <point x="357" y="205" type="curve" smooth="yes"/>
      <point x="332" y="230"/>
      <point x="308" y="255"/>
      <point x="286" y="281" type="curve"/>
      <point x="287" y="279"/>
      <point x="289" y="277"/>
      <point x="291" y="275" type="curve"/>
      <point x="259" y="312"/>
      <point x="230" y="353"/>
      <point x="209" y="398" type="curve"/>
      <point x="210" y="395"/>
      <point x="211" y="393"/>
      <point x="212" y="390" type="curve"/>
      <point x="202" y="413"/>
      <point x="194" y="436"/>
      <point x="189" y="460" type="curve"/>
      <point x="190" y="457"/>
      <point x="190" y="455"/>
      <point x="191" y="452" type="curve"/>
      <point x="188" y="467"/>
      <point x="186" y="482"/>
      <point x="188" y="497" type="curve"/>
      <point x="187" y="495"/>
      <point x="187" y="492"/>
      <point x="187" y="489" type="curve"/>
      <point x="188" y="507"/>
      <point x="193" y="525"/>
      <point x="199" y="542" type="curve"/>
      <point x="198" y="539"/>
      <point x="197" y="537"/>
      <point x="196" y="534" type="curve"/>
      <point x="207" y="565"/>
      <point x="222" y="594"/>
      <point x="240" y="621" type="curve"/>
      <point x="239" y="618"/>
      <point x="237" y="616"/>
      <point x="235" y="614" type="curve"/>
      <point x="249" y="634"/>
      <point x="265" y="653"/>
      <point x="283" y="669" type="curve"/>
      <point x="281" y="667"/>
      <point x="279" y="665"/>
      <point x="277" y="663" type="curve"/>
      <point x="285" y="670"/>
      <point x="293" y="676"/>
      <point x="302" y="680" type="curve"/>
      <point x="300" y="679"/>
      <point x="298" y="678"/>
      <point x="295" y="677" type="curve"/>
      <point x="300" y="679"/>
      <point x="305" y="681"/>
      <point x="310" y="682" type="curve"/>
      <point x="307" y="681"/>
      <point x="305" y="681"/>
      <point x="302" y="680" type="curve"/>
      <point x="305" y="681"/>
      <point x="309" y="681"/>
      <point x="312" y="681" type="curve"/>
      <point x="309" y="681"/>
      <point x="307" y="681"/>
      <point x="304" y="682" type="curve"/>
      <point x="307" y="681"/>
      <point x="309" y="681"/>
      <point x="312" y="680" type="curve"/>
      <point x="309" y="681"/>
      <point x="307" y="682"/>
      <point x="304" y="683" type="curve"/>
      <point x="307" y="682"/>
      <point x="309" y="680"/>
      <point x="311" y="679" type="curve"/>
      <point x="309" y="681"/>
      <point x="307" y="682"/>
      <point x="304" y="684" type="curve"/>
      <point x="307" y="682"/>
      <point x="310" y="680"/>
      <point x="312" y="677" type="curve"/>
      <point x="310" y="679"/>
      <point x="308" y="681"/>
      <point x="307" y="683" type="curve"/>
      <point x="310" y="679"/>
      <point x="313" y="675"/>
      <point x="315" y="670" type="curve"/>
      <point x="314" y="673"/>
      <point x="312" y="675"/>
      <point x="311" y="678" type="curve"/>
      <point x="316" y="668"/>
      <point x="318" y="658"/>
      <point x="320" y="648" type="curve"/>
      <point x="320" y="650"/>
      <point x="319" y="653"/>
      <point x="319" y="656" type="curve"/>
      <point x="320" y="650"/>
      <point x="321" y="644"/>
      <point x="321" y="637" type="curve"/>
      <point x="321" y="640"/>
      <point x="321" y="643"/>
      <point x="321" y="645" type="curve"/>
      <point x="321" y="640"/>
      <point x="319" y="634"/>
      <point x="318" y="629" type="curve"/>
      <point x="318" y="631"/>
      <point x="319" y="634"/>
      <point x="320" y="636" type="curve"/>
      <point x="312" y="614"/>
      <point x="299" y="593"/>
      <point x="285" y="574" type="curve"/>
      <point x="287" y="576"/>
      <point x="289" y="578"/>
      <point x="290" y="581" type="curve"/>
      <point x="260" y="536"/>
      <point x="226" y="494"/>
      <point x="193" y="452" type="curve" smooth="yes"/>
      <point x="155" y="403"/>
      <point x="118" y="354"/>
      <point x="87" y="301" type="curve" smooth="yes"/>
      <point x="60" y="255"/>
      <point x="37" y="205"/>
      <point x="34" y="151" type="curve" smooth="yes"/>
      <point x="32" y="127"/>
      <point x="38" y="103"/>
      <point x="49" y="81" type="curve" smooth="yes"/>
      <point x="61" y="58"/>
      <point x="82" y="40"/>
      <point x="104" y="27" type="curve" smooth="yes"/>
      <point x="131" y="10"/>
      <point x="163" y="1"/>
      <point x="193" y="-5" type="curve" smooth="yes"/>
      <point x="215" y="-9"/>
      <point x="237" y="-12"/>
      <point x="259" y="-13" type="curve" smooth="yes"/>
      <point x="282" y="-15"/>
      <point x="305" y="-13"/>
      <point x="328" y="-8" type="curve" smooth="yes"/>
      <point x="405" y="9"/>
      <point x="471" y="73"/>
      <point x="482" y="152" type="curve" smooth="yes"/>
      <point x="486" y="185"/>
      <point x="482" y="219"/>
      <point x="469" y="249" type="curve" smooth="yes"/>
      <point x="453" y="285"/>
      <point x="428" y="315"/>
      <point x="397" y="338" type="curve" smooth="yes"/>
      <point x="390" y="344"/>
      <point x="383" y="347"/>
      <point x="374" y="346" type="curve" smooth="yes"/>
      <point x="366" y="346"/>
      <point x="358" y="342"/>
      <point x="353" y="336" type="curve" smooth="yes"/>
      <point x="342" y="324"/>
      <point x="341" y="302"/>
      <point x="355" y="292" type="curve" smooth="yes"/>
      <point x="368" y="282"/>
      <point x="381" y="271"/>
      <point x="391" y="258" type="curve"/>
      <point x="389" y="260"/>
      <point x="388" y="262"/>
      <point x="386" y="264" type="curve"/>
      <point x="396" y="253"/>
      <point x="404" y="240"/>
      <point x="411" y="226" type="curve"/>
      <point x="410" y="228"/>
      <point x="409" y="231"/>
      <point x="408" y="233" type="curve"/>
      <point x="413" y="221"/>
      <point x="418" y="208"/>
      <point x="420" y="194" type="curve"/>
      <point x="419" y="197"/>
      <point x="419" y="200"/>
      <point x="419" y="202" type="curve"/>
      <point x="421" y="190"/>
      <point x="421" y="178"/>
      <point x="420" y="166" type="curve"/>
      <point x="421" y="168"/>
      <point x="421" y="171"/>
      <point x="421" y="174" type="curve"/>
      <point x="420" y="161"/>
      <point x="417" y="148"/>
      <point x="413" y="135" type="curve"/>
      <point x="414" y="138"/>
      <point x="415" y="140"/>
      <point x="416" y="143" type="curve"/>
      <point x="411" y="130"/>
      <point x="405" y="118"/>
      <point x="397" y="106" type="curve"/>
      <point x="399" y="109"/>
      <point x="400" y="111"/>
      <point x="402" y="113" type="curve"/>
      <point x="394" y="101"/>
      <point x="384" y="91"/>
      <point x="374" y="82" type="curve"/>
      <point x="376" y="84"/>
      <point x="378" y="85"/>
      <point x="380" y="87" type="curve"/>
      <point x="368" y="77"/>
      <point x="355" y="69"/>
      <point x="341" y="62" type="curve"/>
      <point x="343" y="63"/>
      <point x="346" y="64"/>
      <point x="348" y="66" type="curve"/>
      <point x="333" y="59"/>
      <point x="318" y="54"/>
      <point x="302" y="51" type="curve"/>
      <point x="304" y="51"/>
      <point x="307" y="52"/>
      <point x="310" y="52" type="curve"/>
      <point x="291" y="49"/>
      <point x="273" y="48"/>
      <point x="254" y="50" type="curve"/>
      <point x="257" y="50"/>
      <point x="260" y="49"/>
      <point x="262" y="49" type="curve"/>
      <point x="229" y="52"/>
      <point x="194" y="57"/>
      <point x="162" y="69" type="curve"/>
      <point x="165" y="68"/>
      <point x="167" y="67"/>
      <point x="170" y="66" type="curve"/>
      <point x="154" y="71"/>
      <point x="139" y="78"/>
      <point x="125" y="88" type="curve"/>
      <point x="127" y="86"/>
      <point x="130" y="85"/>
      <point x="132" y="83" type="curve"/>
      <point x="123" y="89"/>
      <point x="116" y="96"/>
      <point x="109" y="103" type="curve"/>
      <point x="111" y="101"/>
      <point x="113" y="99"/>
      <point x="114" y="97" type="curve"/>
      <point x="109" y="103"/>
      <point x="104" y="110"/>
      <point x="101" y="118" type="curve"/>
      <point x="102" y="115"/>
      <point x="103" y="113"/>
      <point x="104" y="110" type="curve"/>
      <point x="101" y="118"/>
      <point x="98" y="126"/>
      <point x="97" y="134" type="curve"/>
      <point x="97" y="131"/>
      <point x="98" y="129"/>
      <point x="98" y="126" type="curve"/>
      <point x="96" y="136"/>
      <point x="96" y="147"/>
      <point x="97" y="157" type="curve"/>
      <point x="97" y="154"/>
      <point x="96" y="152"/>
      <point x="96" y="149" type="curve"/>
      <point x="98" y="166"/>
      <point x="102" y="183"/>
      <point x="107" y="200" type="curve"/>
      <point x="107" y="197"/>
      <point x="106" y="195"/>
      <point x="105" y="192" type="curve"/>
      <point x="121" y="239"/>
      <point x="148" y="283"/>
      <point x="176" y="324" type="curve"/>
      <point x="175" y="322"/>
      <point x="173" y="319"/>
      <point x="172" y="317" type="curve"/>
      <point x="205" y="366"/>
      <point x="242" y="412"/>
      <point x="278" y="459" type="curve" smooth="yes"/>
      <point x="294" y="480"/>
      <point x="310" y="501"/>
      <point x="326" y="522" type="curve" smooth="yes"/>
      <point x="340" y="542"/>
      <point x="353" y="562"/>
      <point x="365" y="583" type="curve" smooth="yes"/>
      <point x="373" y="598"/>
      <point x="381" y="615"/>
      <point x="383" y="632" type="curve" smooth="yes"/>
      <point x="385" y="648"/>
      <point x="382" y="663"/>
      <point x="378" y="678" type="curve" smooth="yes"/>
      <point x="373" y="696"/>
      <point x="365" y="712"/>
      <point x="352" y="726" type="curve" smooth="yes"/>
      <point x="340" y="738"/>
      <point x="324" y="744"/>
      <point x="307" y="744" type="curve" smooth="yes"/>
      <point x="291" y="744"/>
      <point x="276" y="738"/>
      <point x="263" y="731" type="curve" smooth="yes"/>
      <point x="249" y="723"/>
      <point x="237" y="712"/>
      <point x="226" y="701" type="curve" smooth="yes"/>
      <point x="214" y="690"/>
      <point x="204" y="677"/>
      <point x="195" y="664" type="curve" smooth="yes"/>
      <point x="173" y="634"/>
      <point x="154" y="602"/>
      <point x="141" y="567" type="curve" smooth="yes"/>
      <point x="129" y="533"/>
      <point x="122" y="499"/>
      <point x="126" y="463" type="curve" smooth="yes"/>
      <point x="131" y="417"/>
      <point x="148" y="375"/>
      <point x="171" y="335" type="curve" smooth="yes"/>
      <point x="195" y="293"/>
      <point x="225" y="254"/>
      <point x="258" y="218" type="curve" smooth="yes"/>
      <point x="320" y="147"/>
      <point x="393" y="86"/>
      <point x="467" y="27" type="curve" smooth="yes"/>
      <point x="484" y="14"/>
      <point x="502" y="1"/>
      <point x="519" y="-12" type="curve" smooth="yes"/>
      <point x="526" y="-18"/>
      <point x="533" y="-21"/>
      <point x="542" y="-20" type="curve" smooth="yes"/>
      <point x="550" y="-20"/>
      <point x="558" y="-16"/>
      <point x="563" y="-10" type="curve" smooth="yes"/>
      <point x="574" y="2"/>
      <point x="575" y="24"/>
      <point x="561" y="34" type="curve"/>
    </contour>
  </outline>
</glyph>
<glyph name="quotesingle" format="1">
  <advance width="195.0"/>
  <unicode hex="0027"/>
  <outline>
    <contour>
      <point x="132" y="748" type="curve" smooth="yes"/>
      <point x="131" y="698"/>
      <point x="134" y="636"/>
      <point x="137" y="611" type="curve" smooth="yes"/>
      <point x="138" y="598"/>
      <point x="129" y="586"/>
      <point x="116" y="584" type="curve" smooth="yes"/>
      <point x="103" y="583"/>
      <point x="91" y="592"/>
      <point x="89" y="605" type="curve" smooth="yes"/>
      <point x="86" y="632"/>
      <point x="83" y="696"/>
      <point x="84" y="748" type="curve" smooth="yes"/>
      <point x="84" y="761"/>
      <point x="96" y="772"/>
      <point x="108" y="772" type="curve" smooth="yes"/>
      <point x="121" y="772"/>
      <point x="132" y="760"/>
    </contour>
  </outline>
</glyph>
<glyph name="parenleft" format="1">
  <advance width="218"/>
  <unicode hex="0028"/>
  <outline>
    <contour>
      <point x="172" y="735" type="curve" smooth="yes"/>
      <point x="55" y="478"/>
      <point x="70" y="156"/>
      <point x="165" y="18" type="curve" smooth="yes"/>
      <point x="172" y="7"/>
      <point x="169" y="-8"/>
      <point x="159" y="-16" type="curve" smooth="yes"/>
      <point x="148" y="-23"/>
      <point x="133" y="-20"/>
      <point x="125" y="-10" type="curve" smooth="yes"/>
      <point x="24" y="138"/>
      <point x="3" y="480"/>
      <point x="128" y="755" type="curve" smooth="yes"/>
      <point x="134" y="767"/>
      <point x="148" y="772"/>
      <point x="160" y="767" type="curve" smooth="yes"/>
      <point x="172" y="761"/>
      <point x="177" y="747"/>
    </contour>
  </outline>
</glyph>
<glyph name="parenright" format="1">
  <advance width="372"/>
  <unicode hex="0029"/>
  <outline>
    <contour>
      <point x="99" y="743" type="line"/>
      <point x="101" y="741"/>
      <point x="104" y="740"/>
      <point x="106" y="738" type="curve"/>
      <point x="104" y="740"/>
      <point x="101" y="741"/>
      <point x="99" y="743" type="curve"/>
      <point x="126" y="725"/>
      <point x="150" y="703"/>
      <point x="171" y="679" type="curve"/>
      <point x="169" y="681"/>
      <point x="167" y="683"/>
      <point x="165" y="685" type="curve"/>
      <point x="184" y="663"/>
      <point x="201" y="638"/>
      <point x="213" y="611" type="curve"/>
      <point x="212" y="613"/>
      <point x="211" y="616"/>
      <point x="210" y="618" type="curve"/>
      <point x="223" y="589"/>
      <point x="233" y="558"/>
      <point x="239" y="526" type="curve"/>
      <point x="238" y="529"/>
      <point x="238" y="532"/>
      <point x="237" y="534" type="curve"/>
      <point x="245" y="490"/>
      <point x="246" y="445"/>
      <point x="243" y="400" type="curve"/>
      <point x="243" y="403"/>
      <point x="243" y="406"/>
      <point x="243" y="408" type="curve"/>
      <point x="237" y="327"/>
      <point x="216" y="246"/>
      <point x="190" y="169" type="curve"/>
      <point x="190" y="171"/>
      <point x="191" y="174"/>
      <point x="192" y="176" type="curve"/>
      <point x="175" y="126"/>
      <point x="155" y="77"/>
      <point x="133" y="29" type="curve" smooth="yes"/>
      <point x="126" y="13"/>
      <point x="131" y="-5"/>
      <point x="147" y="-13" type="curve" smooth="yes"/>
      <point x="162" y="-21"/>
      <point x="182" y="-15"/>
      <point x="189" y="1" type="curve" smooth="yes"/>
      <point x="224" y="78"/>
      <point x="255" y="157"/>
      <point x="277" y="239" type="curve" smooth="yes"/>
      <point x="300" y="323"/>
      <point x="313" y="410"/>
      <point x="305" y="497" type="curve" smooth="yes"/>
      <point x="302" y="539"/>
      <point x="293" y="581"/>
      <point x="277" y="620" type="curve" smooth="yes"/>
      <point x="260" y="663"/>
      <point x="236" y="700"/>
      <point x="205" y="734" type="curve" smooth="yes"/>
      <point x="182" y="760"/>
      <point x="156" y="781"/>
      <point x="127" y="799" type="curve" smooth="yes"/>
      <point x="121" y="803"/>
      <point x="110" y="803"/>
      <point x="103" y="801" type="curve" smooth="yes"/>
      <point x="95" y="798"/>
      <point x="89" y="793"/>
      <point x="85" y="785" type="curve" smooth="yes"/>
      <point x="81" y="778"/>
      <point x="81" y="769"/>
      <point x="83" y="761" type="curve" smooth="yes"/>
      <point x="86" y="753"/>
      <point x="91" y="748"/>
      <point x="99" y="743" type="curve"/>
    </contour>
  </outline>
</glyph>
<glyph name="asterisk" format="1">
  <advance width="560"/>
  <unicode hex="002A"/>
  <outline>
    <contour>
      <point x="75" y="409" type="line"/>
      <point x="208" y="409"/>
      <point x="341" y="414"/>
      <point x="473" y="420" type="curve" smooth="yes"/>
      <point x="485" y="420"/>
      <point x="496" y="421"/>
      <point x="507" y="421" type="curve" smooth="yes"/>
      <point x="518" y="421"/>
      <point x="527" y="430"/>
      <point x="527" y="440" type="curve" smooth="yes"/>
      <point x="527" y="451"/>
      <point x="518" y="460"/>
      <point x="507" y="460" type="curve" smooth="yes"/>
      <point x="375" y="454"/>
      <point x="242" y="449"/>
      <point x="109" y="448" type="curve" smooth="yes"/>
      <point x="98" y="448"/>
      <point x="87" y="448"/>
      <point x="75" y="448" type="curve" smooth="yes"/>
      <point x="65" y="448"/>
      <point x="56" y="439"/>
      <point x="56" y="428" type="curve" smooth="yes"/>
      <point x="56" y="418"/>
      <point x="65" y="409"/>
      <point x="75" y="409" type="curve"/>
    </contour>
    <contour>
      <point x="254" y="608" type="line"/>
      <point x="254" y="484"/>
      <point x="254" y="360"/>
      <point x="254" y="237" type="curve" smooth="yes"/>
      <point x="254" y="226"/>
      <point x="263" y="217"/>
      <point x="273" y="217" type="curve" smooth="yes"/>
      <point x="284" y="217"/>
      <point x="293" y="226"/>
      <point x="293" y="237" type="curve" smooth="yes"/>
      <point x="293" y="360"/>
      <point x="293" y="484"/>
      <point x="293" y="608" type="curve" smooth="yes"/>
      <point x="293" y="619"/>
      <point x="284" y="628"/>
      <point x="273" y="628" type="curve" smooth="yes"/>
      <point x="263" y="628"/>
      <point x="254" y="619"/>
      <point x="254" y="608" type="curve"/>
    </contour>
    <contour>
      <point x="98" y="535" type="line"/>
      <point x="181" y="452"/>
      <point x="274" y="378"/>
      <point x="375" y="318" type="curve" smooth="yes"/>
      <point x="397" y="305"/>
      <point x="420" y="292"/>
      <point x="443" y="280" type="curve" smooth="yes"/>
      <point x="453" y="275"/>
      <point x="465" y="277"/>
      <point x="470" y="287" type="curve" smooth="yes"/>
      <point x="475" y="296"/>
      <point x="473" y="308"/>
      <point x="463" y="313" type="curve" smooth="yes"/>
      <point x="412" y="340"/>
      <point x="362" y="370"/>
      <point x="314" y="404" type="curve" smooth="yes"/>
      <point x="302" y="412"/>
      <point x="291" y="420"/>
      <point x="279" y="429" type="curve" smooth="yes"/>
      <point x="273" y="433"/>
      <point x="268" y="437"/>
      <point x="262" y="442" type="curve" smooth="yes"/>
      <point x="262" y="442"/>
      <point x="257" y="445"/>
      <point x="261" y="443" type="curve"/>
      <point x="259" y="444"/>
      <point x="258" y="445"/>
      <point x="257" y="446" type="curve" smooth="yes"/>
      <point x="253" y="448"/>
      <point x="250" y="451"/>
      <point x="247" y="453" type="curve" smooth="yes"/>
      <point x="224" y="472"/>
      <point x="202" y="490"/>
      <point x="180" y="510" type="curve" smooth="yes"/>
      <point x="161" y="527"/>
      <point x="143" y="544"/>
      <point x="125" y="562" type="curve" smooth="yes"/>
      <point x="118" y="570"/>
      <point x="105" y="570"/>
      <point x="98" y="562" type="curve" smooth="yes"/>
      <point x="90" y="555"/>
      <point x="90" y="542"/>
      <point x="98" y="535" type="curve"/>
    </contour>
    <contour>
      <point x="404" y="586" type="line"/>
      <point x="310" y="508"/>
      <point x="222" y="422"/>
      <point x="143" y="328" type="curve" smooth="yes"/>
      <point x="132" y="314"/>
      <point x="121" y="300"/>
      <point x="110" y="286" type="curve" smooth="yes"/>
      <point x="103" y="278"/>
      <point x="101" y="267"/>
      <point x="110" y="259" type="curve" smooth="yes"/>
      <point x="116" y="252"/>
      <point x="131" y="250"/>
      <point x="137" y="259" type="curve" smooth="yes"/>
      <point x="212" y="355"/>
      <point x="298" y="443"/>
      <point x="389" y="523" type="curve" smooth="yes"/>
      <point x="403" y="535"/>
      <point x="417" y="547"/>
      <point x="431" y="559" type="curve" smooth="yes"/>
      <point x="439" y="565"/>
      <point x="438" y="579"/>
      <point x="431" y="586" type="curve" smooth="yes"/>
      <point x="423" y="594"/>
      <point x="412" y="593"/>
      <point x="404" y="586" type="curve"/>
    </contour>
  </outline>
</glyph>
<glyph name="plus" format="1">
  <advance width="600"/>
  <unicode hex="002B"/>
  <outline>
    <contour>
      <point x="260" y="561" type="line"/>
      <point x="260" y="459"/>
      <point x="262" y="357"/>
      <point x="255" y="255" type="curve"/>
      <point x="255" y="257"/>
      <point x="255" y="260"/>
      <point x="255" y="263" type="curve"/>
      <point x="253" y="240"/>
      <point x="251" y="216"/>
      <point x="248" y="193" type="curve" smooth="yes"/>
      <point x="246" y="176"/>
      <point x="255" y="160"/>
      <point x="273" y="156" type="curve" smooth="yes"/>
      <point x="288" y="153"/>
      <point x="308" y="164"/>
      <point x="310" y="181" type="curve" smooth="yes"/>
      <point x="326" y="308"/>
      <point x="322" y="437"/>
      <point x="322" y="565" type="curve" smooth="yes"/>
      <point x="322" y="582"/>
      <point x="306" y="595"/>
      <point x="289" y="594" type="curve" smooth="yes"/>
      <point x="272" y="594"/>
      <point x="260" y="579"/>
      <point x="260" y="561" type="curve"/>
    </contour>
    <contour>
      <point x="105" y="356" type="line"/>
      <point x="236" y="367"/>
      <point x="367" y="386"/>
      <point x="499" y="384" type="curve" smooth="yes"/>
      <point x="503" y="384"/>
      <point x="508" y="384"/>
      <point x="513" y="384" type="curve" smooth="yes"/>
      <point x="530" y="383"/>
      <point x="543" y="401"/>
      <point x="542" y="417" type="curve" smooth="yes"/>
      <point x="542" y="435"/>
      <point x="526" y="446"/>
      <point x="509" y="446" type="curve" smooth="yes"/>
      <point x="377" y="450"/>
      <point x="246" y="432"/>
      <point x="115" y="420" type="curve" smooth="yes"/>
      <point x="111" y="419"/>
      <point x="106" y="419"/>
      <point x="101" y="418" type="curve" smooth="yes"/>
      <point x="84" y="417"/>
      <point x="71" y="403"/>
      <point x="72" y="385" type="curve" smooth="yes"/>
      <point x="72" y="369"/>
      <point x="88" y="354"/>
      <point x="105" y="356" type="curve"/>
    </contour>
  </outline>
</glyph>
<glyph name="comma" format="1">
  <advance width="188"/>
  <unicode hex="002C"/>
  <outline>
    <contour>
      <point x="53" y="46" type="line"/>
      <point x="58" y="41"/>
      <point x="62" y="36"/>
      <point x="67" y="31" type="curve"/>
      <point x="65" y="33"/>
      <point x="63" y="35"/>
      <point x="61" y="38" type="curve"/>
      <point x="69" y="29"/>
      <point x="75" y="19"/>
      <point x="80" y="9" type="curve"/>
      <point x="79" y="12"/>
      <point x="77" y="14"/>
      <point x="76" y="17" type="curve"/>
      <point x="79" y="10"/>
      <point x="82" y="3"/>
      <point x="83" y="-4" type="curve"/>
      <point x="82" y="-1"/>
      <point x="82" y="2"/>
      <point x="82" y="4" type="curve"/>
      <point x="83" y="-3"/>
      <point x="83" y="-9"/>
      <point x="83" y="-16" type="curve"/>
      <point x="83" y="-13"/>
      <point x="83" y="-11"/>
      <point x="83" y="-8" type="curve"/>
      <point x="83" y="-15"/>
      <point x="81" y="-21"/>
      <point x="79" y="-27" type="curve"/>
      <point x="80" y="-24"/>
      <point x="81" y="-22"/>
      <point x="82" y="-19" type="curve"/>
      <point x="79" y="-28"/>
      <point x="75" y="-35"/>
      <point x="70" y="-43" type="curve"/>
      <point x="71" y="-41"/>
      <point x="73" y="-38"/>
      <point x="75" y="-36" type="curve"/>
      <point x="68" y="-46"/>
      <point x="59" y="-55"/>
      <point x="50" y="-63" type="curve" smooth="yes"/>
      <point x="38" y="-74"/>
      <point x="41" y="-97"/>
      <point x="53" y="-107" type="curve" smooth="yes"/>
      <point x="59" y="-113"/>
      <point x="67" y="-116"/>
      <point x="75" y="-115" type="curve" smooth="yes"/>
      <point x="84" y="-115"/>
      <point x="91" y="-111"/>
      <point x="97" y="-105" type="curve" smooth="yes"/>
      <point x="126" y="-79"/>
      <point x="145" y="-46"/>
      <point x="146" y="-7" type="curve" smooth="yes"/>
      <point x="146" y="32"/>
      <point x="122" y="67"/>
      <point x="95" y="93" type="curve" smooth="yes"/>
      <point x="82" y="104"/>
      <point x="62" y="103"/>
      <point x="50" y="90" type="curve" smooth="yes"/>
      <point x="39" y="77"/>
      <point x="40" y="58"/>
      <point x="53" y="46" type="curve"/>
    </contour>
  </outline>
</glyph>
<glyph name="hyphen" format="1">
  <advance width="475"/>
  <unicode hex="002D"/>
  <outline>
    <contour>
      <point x="50" y="308" type="line"/>
      <point x="168" y="290"/>
      <point x="287" y="283"/>
      <point x="406" y="289" type="curve" smooth="yes"/>
      <point x="423" y="290"/>
      <point x="437" y="305"/>
      <point x="436" y="322" type="curve" smooth="yes"/>
      <point x="435" y="339"/>
      <point x="420" y="353"/>
      <point x="403" y="352" type="curve" smooth="yes"/>
      <point x="332" y="348"/>
      <point x="261" y="349"/>
      <point x="191" y="355" type="curve"/>
      <point x="194" y="354"/>
      <point x="196" y="354"/>
      <point x="199" y="354" type="curve"/>
      <point x="153" y="357"/>
      <point x="108" y="363"/>
      <point x="63" y="369" type="curve" smooth="yes"/>
      <point x="46" y="372"/>
      <point x="29" y="362"/>
      <point x="26" y="345" type="curve" smooth="yes"/>
      <point x="22" y="329"/>
      <point x="33" y="310"/>
      <point x="50" y="308" type="curve"/>
    </contour>
  </outline>
</glyph>
<glyph name="period" format="1">
  <advance width="152"/>
  <unicode hex="002E"/>
  <outline>
    <contour>
      <point x="114" y="-16" type="curve" smooth="yes"/>
      <point x="120" y="-11"/>
      <point x="127" y="-4"/>
      <point x="128" y="5" type="curve" smooth="yes"/>
      <point x="129" y="15"/>
      <point x="129" y="11"/>
      <point x="127" y="21" type="curve" smooth="yes"/>
      <point x="127" y="24"/>
      <point x="125" y="27"/>
      <point x="123" y="29" type="curve" smooth="yes"/>
      <point x="121" y="34"/>
      <point x="117" y="38"/>
      <point x="113" y="41" type="curve" smooth="yes"/>
      <point x="101" y="51"/>
      <point x="87" y="59"/>
      <point x="74" y="67" type="curve" smooth="yes"/>
      <point x="67" y="71"/>
      <point x="58" y="71"/>
      <point x="50" y="69" type="curve" smooth="yes"/>
      <point x="42" y="66"/>
      <point x="36" y="61"/>
      <point x="32" y="53" type="curve" smooth="yes"/>
      <point x="31" y="51"/>
      <point x="30" y="48"/>
      <point x="29" y="45" type="curve"/>
      <point x="27" y="42"/>
      <point x="25" y="40"/>
      <point x="24" y="37" type="curve" smooth="yes"/>
      <point x="20" y="30"/>
      <point x="20" y="21"/>
      <point x="22" y="13" type="curve" smooth="yes"/>
      <point x="24" y="6"/>
      <point x="30" y="-2"/>
      <point x="38" y="-5" type="curve" smooth="yes"/>
      <point x="51" y="-10"/>
      <point x="63" y="-15"/>
      <point x="77" y="-19" type="curve" smooth="yes"/>
      <point x="88" y="-23"/>
      <point x="103" y="-24"/>
    </contour>
  </outline>
</glyph>
<glyph name="slash" format="1">
  <advance width="532"/>
  <unicode hex="002F"/>
  <outline>
    <contour>
      <point x="452" y="678" type="line"/>
      <point x="371" y="597"/>
      <point x="297" y="510"/>
      <point x="231" y="417" type="curve" smooth="yes"/>
      <point x="165" y="322"/>
      <point x="107" y="221"/>
      <point x="60" y="115" type="curve" smooth="yes"/>
      <point x="53" y="98"/>
      <point x="46" y="82"/>
      <point x="39" y="65" type="curve" smooth="yes"/>
      <point x="36" y="57"/>
      <point x="35" y="49"/>
      <point x="37" y="41" type="curve" smooth="yes"/>
      <point x="40" y="33"/>
      <point x="46" y="26"/>
      <point x="53" y="22" type="curve" smooth="yes"/>
      <point x="68" y="15"/>
      <point x="89" y="20"/>
      <point x="96" y="36" type="curve" smooth="yes"/>
      <point x="137" y="142"/>
      <point x="191" y="243"/>
      <point x="253" y="338" type="curve" smooth="yes"/>
      <point x="259" y="346"/>
      <point x="264" y="354"/>
      <point x="269" y="362" type="curve"/>
      <point x="268" y="359"/>
      <point x="266" y="357"/>
      <point x="265" y="355" type="curve"/>
      <point x="329" y="449"/>
      <point x="402" y="537"/>
      <point x="482" y="618" type="curve" smooth="yes"/>
      <point x="487" y="624"/>
      <point x="493" y="630"/>
      <point x="499" y="635" type="curve" smooth="yes"/>
      <point x="511" y="648"/>
      <point x="509" y="669"/>
      <point x="496" y="680" type="curve" smooth="yes"/>
      <point x="483" y="692"/>
      <point x="464" y="690"/>
      <point x="452" y="678" type="curve"/>
    </contour>
  </outline>
</glyph>
<glyph name="zero" format="1">
  <advance width="644"/>
  <unicode hex="0030"/>
  <outline>
    <contour>
      <point x="269" y="777" type="curve" smooth="yes"/>
      <point x="269" y="777"/>
      <point x="270" y="777"/>
      <point x="271" y="777" type="curve" smooth="yes"/>
      <point x="491" y="778"/>
      <point x="553" y="560"/>
      <point x="543" y="368" type="curve" smooth="yes"/>
      <point x="521" y="-67"/>
      <point x="277" y="-153"/>
      <point x="106" y="146" type="curve" smooth="yes"/>
      <point x="15" y="305"/>
      <point x="13" y="753"/>
    </contour>
    <contour>
      <point x="273" y="729" type="line"/>
      <point x="41" y="707"/>
      <point x="54" y="297"/>
      <point x="140" y="154" type="curve" smooth="yes"/>
      <point x="366" y="-222"/>
      <point x="494" y="191"/>
      <point x="506" y="266" type="curve"/>
      <point x="546" y="503"/>
      <point x="465" y="730"/>
      <point x="271" y="729" type="curve"/>
    </contour>
  </outline>
</glyph>
<glyph name="one" format="1">
  <advance width="401"/>
  <unicode hex="0031"/>
  <outline>
    <contour>
      <point x="107" y="716" type="curve" smooth="yes"/>
      <point x="128" y="738"/>
      <point x="157" y="748"/>
      <point x="180" y="769" type="curve" smooth="yes"/>
      <point x="200" y="788"/>
      <point x="219" y="780"/>
      <point x="220" y="752" type="curve" smooth="yes"/>
      <point x="226" y="545"/>
      <point x="227" y="332"/>
      <point x="222" y="125" type="curve" smooth="yes"/>
      <point x="221" y="80"/>
      <point x="227" y="39"/>
      <point x="220" y="-7" type="curve" smooth="yes"/>
      <point x="218" y="-19"/>
      <point x="205" y="-29"/>
      <point x="192" y="-27" type="curve" smooth="yes"/>
      <point x="180" y="-25"/>
      <point x="170" y="-12"/>
      <point x="172" y="1" type="curve" smooth="yes"/>
      <point x="179" y="45"/>
      <point x="173" y="84"/>
      <point x="174" y="127" type="curve" smooth="yes"/>
      <point x="179" y="332"/>
      <point x="178" y="545"/>
      <point x="172" y="750" type="curve"/>
      <point x="212" y="733" type="line"/>
      <point x="191" y="714"/>
      <point x="162" y="704"/>
      <point x="141" y="682" type="curve" smooth="yes"/>
      <point x="132" y="673"/>
      <point x="117" y="673"/>
      <point x="107" y="682" type="curve" smooth="yes"/>
      <point x="98" y="691"/>
      <point x="98" y="706"/>
    </contour>
  </outline>
</glyph>
<glyph name="two" format="1">
  <advance width="629"/>
  <unicode hex="0032"/>
  <outline>
    <contour>
      <point x="110" y="586" type="line"/>
      <point x="122" y="599"/>
      <point x="134" y="611"/>
      <point x="147" y="622" type="curve"/>
      <point x="145" y="620"/>
      <point x="143" y="618"/>
      <point x="141" y="617" type="curve"/>
      <point x="171" y="643"/>
      <point x="206" y="665"/>
      <point x="242" y="682" type="curve"/>
      <point x="240" y="681"/>
      <point x="237" y="680"/>
      <point x="235" y="679" type="curve"/>
      <point x="261" y="691"/>
      <point x="288" y="700"/>
      <point x="316" y="705" type="curve"/>
      <point x="313" y="705"/>
      <point x="311" y="705"/>
      <point x="308" y="704" type="curve"/>
      <point x="325" y="707"/>
      <point x="343" y="709"/>
      <point x="360" y="707" type="curve"/>
      <point x="358" y="708"/>
      <point x="355" y="708"/>
      <point x="352" y="708" type="curve"/>
      <point x="365" y="707"/>
      <point x="377" y="705"/>
      <point x="389" y="700" type="curve"/>
      <point x="387" y="701"/>
      <point x="384" y="702"/>
      <point x="382" y="703" type="curve"/>
      <point x="392" y="699"/>
      <point x="402" y="694"/>
      <point x="411" y="688" type="curve"/>
      <point x="409" y="690"/>
      <point x="406" y="691"/>
      <point x="404" y="693" type="curve"/>
      <point x="416" y="684"/>
      <point x="428" y="674"/>
      <point x="437" y="663" type="curve"/>
      <point x="436" y="665"/>
      <point x="434" y="667"/>
      <point x="432" y="669" type="curve"/>
      <point x="440" y="660"/>
      <point x="446" y="650"/>
      <point x="452" y="639" type="curve"/>
      <point x="451" y="641"/>
      <point x="449" y="644"/>
      <point x="448" y="646" type="curve"/>
      <point x="453" y="636"/>
      <point x="456" y="626"/>
      <point x="458" y="616" type="curve"/>
      <point x="457" y="618"/>
      <point x="457" y="621"/>
      <point x="456" y="623" type="curve"/>
      <point x="459" y="612"/>
      <point x="459" y="600"/>
      <point x="458" y="587" type="curve"/>
      <point x="458" y="590"/>
      <point x="459" y="593"/>
      <point x="459" y="596" type="curve"/>
      <point x="457" y="577"/>
      <point x="453" y="560"/>
      <point x="447" y="543" type="curve"/>
      <point x="448" y="545"/>
      <point x="449" y="548"/>
      <point x="450" y="550" type="curve"/>
      <point x="437" y="513"/>
      <point x="417" y="479"/>
      <point x="395" y="446" type="curve"/>
      <point x="396" y="449"/>
      <point x="398" y="451"/>
      <point x="400" y="453" type="curve"/>
      <point x="356" y="390"/>
      <point x="304" y="334"/>
      <point x="254" y="277" type="curve" smooth="yes"/>
      <point x="227" y="246"/>
      <point x="203" y="214"/>
      <point x="175" y="185" type="curve" smooth="yes"/>
      <point x="135" y="142"/>
      <point x="92" y="103"/>
      <point x="54" y="58" type="curve" smooth="yes"/>
      <point x="51" y="53"/>
      <point x="47" y="49"/>
      <point x="44" y="44" type="curve" smooth="yes"/>
      <point x="35" y="33"/>
      <point x="32" y="19"/>
      <point x="40" y="6" type="curve" smooth="yes"/>
      <point x="50" y="-9"/>
      <point x="69" y="-12"/>
      <point x="84" y="-4" type="curve" smooth="yes"/>
      <point x="91" y="1"/>
      <point x="98" y="4"/>
      <point x="106" y="8" type="curve"/>
      <point x="103" y="7"/>
      <point x="101" y="6"/>
      <point x="98" y="4" type="curve"/>
      <point x="120" y="14"/>
      <point x="143" y="22"/>
      <point x="166" y="26" type="curve"/>
      <point x="164" y="26"/>
      <point x="161" y="25"/>
      <point x="158" y="25" type="curve"/>
      <point x="193" y="31"/>
      <point x="228" y="31"/>
      <point x="262" y="29" type="curve"/>
      <point x="260" y="29"/>
      <point x="257" y="29"/>
      <point x="254" y="29" type="curve"/>
      <point x="357" y="21"/>
      <point x="466" y="-10"/>
      <point x="565" y="33" type="curve" smooth="yes"/>
      <point x="573" y="37"/>
      <point x="581" y="40"/>
      <point x="588" y="44" type="curve" smooth="yes"/>
      <point x="603" y="53"/>
      <point x="606" y="74"/>
      <point x="598" y="88" type="curve" smooth="yes"/>
      <point x="588" y="103"/>
      <point x="569" y="106"/>
      <point x="554" y="98" type="curve" smooth="yes"/>
      <point x="550" y="96"/>
      <point x="547" y="94"/>
      <point x="543" y="92" type="curve"/>
      <point x="545" y="93"/>
      <point x="548" y="94"/>
      <point x="550" y="95" type="curve"/>
      <point x="531" y="87"/>
      <point x="512" y="81"/>
      <point x="492" y="77" type="curve"/>
      <point x="494" y="77"/>
      <point x="497" y="78"/>
      <point x="499" y="78" type="curve"/>
      <point x="468" y="73"/>
      <point x="437" y="73"/>
      <point x="405" y="75" type="curve"/>
      <point x="408" y="75"/>
      <point x="410" y="75"/>
      <point x="413" y="74" type="curve"/>
      <point x="360" y="79"/>
      <point x="307" y="88"/>
      <point x="254" y="92" type="curve" smooth="yes"/>
      <point x="200" y="96"/>
      <point x="144" y="91"/>
      <point x="93" y="70" type="curve" smooth="yes"/>
      <point x="78" y="65"/>
      <point x="64" y="58"/>
      <point x="50" y="50" type="curve"/>
      <point x="63" y="34"/>
      <point x="77" y="18"/>
      <point x="90" y="2" type="curve"/>
      <point x="126" y="48"/>
      <point x="169" y="88"/>
      <point x="210" y="130" type="curve" smooth="yes"/>
      <point x="230" y="151"/>
      <point x="249" y="172"/>
      <point x="267" y="195" type="curve" smooth="yes"/>
      <point x="276" y="206"/>
      <point x="285" y="216"/>
      <point x="294" y="227" type="curve" smooth="yes"/>
      <point x="344" y="284"/>
      <point x="396" y="340"/>
      <point x="440" y="401" type="curve" smooth="yes"/>
      <point x="463" y="434"/>
      <point x="485" y="469"/>
      <point x="500" y="506" type="curve" smooth="yes"/>
      <point x="515" y="541"/>
      <point x="524" y="578"/>
      <point x="521" y="616" type="curve" smooth="yes"/>
      <point x="517" y="656"/>
      <point x="499" y="692"/>
      <point x="470" y="720" type="curve" smooth="yes"/>
      <point x="455" y="735"/>
      <point x="436" y="749"/>
      <point x="416" y="757" type="curve" smooth="yes"/>
      <point x="393" y="767"/>
      <point x="370" y="770"/>
      <point x="345" y="771" type="curve" smooth="yes"/>
      <point x="296" y="771"/>
      <point x="249" y="754"/>
      <point x="206" y="734" type="curve" smooth="yes"/>
      <point x="164" y="714"/>
      <point x="126" y="688"/>
      <point x="92" y="657" type="curve" smooth="yes"/>
      <point x="82" y="648"/>
      <point x="72" y="638"/>
      <point x="64" y="628" type="curve" smooth="yes"/>
      <point x="53" y="615"/>
      <point x="53" y="595"/>
      <point x="66" y="584" type="curve" smooth="yes"/>
      <point x="78" y="572"/>
      <point x="99" y="573"/>
      <point x="110" y="586" type="curve"/>
    </contour>
  </outline>
</glyph>
<glyph name="three" format="1">
  <advance width="688.461765574"/>
  <unicode hex="0033"/>
  <outline>
    <contour>
      <point x="555" y="726" type="curve" smooth="yes"/>
      <point x="539" y="717"/>
      <point x="528" y="701"/>
      <point x="514" y="689" type="curve" smooth="yes"/>
      <point x="480" y="661"/>
      <point x="443" y="638"/>
      <point x="411" y="608" type="curve" smooth="yes"/>
      <point x="361" y="561"/>
      <point x="300" y="530"/>
      <point x="249" y="484" type="curve" smooth="yes"/>
      <point x="228" y="465"/>
      <point x="209" y="430"/>
      <point x="182" y="425" type="curve" smooth="yes"/>
      <point x="169" y="422"/>
      <point x="156" y="430"/>
      <point x="154" y="443" type="curve" smooth="yes"/>
      <point x="151" y="456"/>
      <point x="159" y="469"/>
      <point x="172" y="471" type="curve" smooth="yes"/>
      <point x="191" y="476"/>
      <point x="202" y="507"/>
      <point x="217" y="520" type="curve" smooth="yes"/>
      <point x="268" y="566"/>
      <point x="329" y="595"/>
      <point x="379" y="644" type="curve" smooth="yes"/>
      <point x="411" y="674"/>
      <point x="448" y="697"/>
      <point x="482" y="725" type="curve" smooth="yes"/>
      <point x="498" y="739"/>
      <point x="513" y="757"/>
      <point x="531" y="768" type="curve" smooth="yes"/>
      <point x="542" y="774"/>
      <point x="557" y="770"/>
      <point x="564" y="759" type="curve" smooth="yes"/>
      <point x="570" y="748"/>
      <point x="566" y="733"/>
    </contour>
    <contour>
      <point x="172" y="469" type="curve" smooth="yes"/>
      <point x="217" y="492"/>
      <point x="269" y="487"/>
      <point x="316" y="478" type="curve" smooth="yes"/>
      <point x="400" y="463"/>
      <point x="488" y="437"/>
      <point x="560" y="392" type="curve" smooth="yes"/>
      <point x="651" y="337"/>
      <point x="647" y="282"/>
      <point x="626" y="189" type="curve" smooth="yes"/>
      <point x="590" y="22"/>
      <point x="386" y="-42"/>
      <point x="232" y="-32" type="curve" smooth="yes"/>
      <point x="167" y="-29"/>
      <point x="129" y="-4"/>
      <point x="84" y="40" type="curve" smooth="yes"/>
      <point x="75" y="49"/>
      <point x="75" y="64"/>
      <point x="84" y="74" type="curve" smooth="yes"/>
      <point x="93" y="83"/>
      <point x="108" y="83"/>
      <point x="118" y="74" type="curve" smooth="yes"/>
      <point x="153" y="40"/>
      <point x="183" y="19"/>
      <point x="236" y="16" type="curve" smooth="yes"/>
      <point x="364" y="8"/>
      <point x="548" y="54"/>
      <point x="580" y="199" type="curve" smooth="yes"/>
      <point x="595" y="266"/>
      <point x="603" y="309"/>
      <point x="534" y="352" type="curve" smooth="yes"/>
      <point x="468" y="393"/>
      <point x="386" y="417"/>
      <point x="308" y="430" type="curve" smooth="yes"/>
      <point x="271" y="437"/>
      <point x="229" y="444"/>
      <point x="194" y="427" type="curve" smooth="yes"/>
      <point x="182" y="421"/>
      <point x="167" y="426"/>
      <point x="162" y="437" type="curve" smooth="yes"/>
      <point x="156" y="449"/>
      <point x="161" y="464"/>
    </contour>
    <contour>
      <point x="75" y="765" type="curve" smooth="yes"/>
      <point x="160" y="763"/>
      <point x="245" y="765"/>
      <point x="330" y="761" type="curve" smooth="yes"/>
      <point x="384" y="759"/>
      <point x="436" y="749"/>
      <point x="486" y="764" type="curve" smooth="yes"/>
      <point x="507" y="771"/>
      <point x="526" y="775"/>
      <point x="548" y="770" type="curve" smooth="yes"/>
      <point x="561" y="768"/>
      <point x="569" y="754"/>
      <point x="566" y="742" type="curve" smooth="yes"/>
      <point x="564" y="729"/>
      <point x="550" y="721"/>
      <point x="538" y="724" type="curve" smooth="yes"/>
      <point x="524" y="727"/>
      <point x="513" y="723"/>
      <point x="500" y="718" type="curve" smooth="yes"/>
      <point x="444" y="701"/>
      <point x="388" y="711"/>
      <point x="328" y="713" type="curve" smooth="yes"/>
      <point x="243" y="717"/>
      <point x="158" y="715"/>
      <point x="73" y="717" type="curve" smooth="yes"/>
      <point x="60" y="717"/>
      <point x="50" y="729"/>
      <point x="50" y="742" type="curve" smooth="yes"/>
      <point x="50" y="755"/>
      <point x="62" y="765"/>
    </contour>
  </outline>
</glyph>
<glyph name="four" format="1">
  <advance width="741"/>
  <unicode hex="0034"/>
  <outline>
    <contour>
      <point x="417" y="517" type="line"/>
      <point x="395" y="389"/>
      <point x="381" y="258"/>
      <point x="381" y="127" type="curve" smooth="yes"/>
      <point x="380" y="86"/>
      <point x="382" y="46"/>
      <point x="385" y="5" type="curve" smooth="yes"/>
      <point x="386" y="-12"/>
      <point x="400" y="-25"/>
      <point x="418" y="-24" type="curve" smooth="yes"/>
      <point x="435" y="-24"/>
      <point x="449" y="-8"/>
      <point x="447" y="9" type="curve" smooth="yes"/>
      <point x="441" y="96"/>
      <point x="443" y="184"/>
      <point x="449" y="272" type="curve"/>
      <point x="449" y="269"/>
      <point x="449" y="266"/>
      <point x="449" y="264" type="curve"/>
      <point x="455" y="345"/>
      <point x="465" y="425"/>
      <point x="479" y="505" type="curve" smooth="yes"/>
      <point x="482" y="522"/>
      <point x="472" y="538"/>
      <point x="454" y="542" type="curve" smooth="yes"/>
      <point x="438" y="545"/>
      <point x="420" y="534"/>
      <point x="417" y="517" type="curve"/>
    </contour>
    <contour>
      <point x="174" y="685" type="line"/>
      <point x="191" y="647"/>
      <point x="204" y="607"/>
      <point x="211" y="565" type="curve"/>
      <point x="211" y="568"/>
      <point x="210" y="571"/>
      <point x="210" y="573" type="curve"/>
      <point x="216" y="540"/>
      <point x="219" y="505"/>
      <point x="216" y="471" type="curve"/>
      <point x="216" y="474"/>
      <point x="217" y="476"/>
      <point x="217" y="479" type="curve"/>
      <point x="215" y="454"/>
      <point x="210" y="429"/>
      <point x="202" y="405" type="curve"/>
      <point x="203" y="408"/>
      <point x="204" y="410"/>
      <point x="204" y="413" type="curve"/>
      <point x="198" y="393"/>
      <point x="189" y="375"/>
      <point x="177" y="358" type="curve"/>
      <point x="179" y="360"/>
      <point x="180" y="363"/>
      <point x="182" y="365" type="curve"/>
      <point x="171" y="349"/>
      <point x="157" y="334"/>
      <point x="142" y="321" type="curve"/>
      <point x="145" y="323"/>
      <point x="147" y="325"/>
      <point x="149" y="326" type="curve"/>
      <point x="132" y="312"/>
      <point x="114" y="301"/>
      <point x="94" y="291" type="curve"/>
      <point x="96" y="292"/>
      <point x="99" y="294"/>
      <point x="101" y="295" type="curve"/>
      <point x="90" y="289"/>
      <point x="78" y="285"/>
      <point x="66" y="281" type="curve"/>
      <point x="73" y="261"/>
      <point x="79" y="241"/>
      <point x="86" y="221" type="curve"/>
      <point x="142" y="242"/>
      <point x="200" y="257"/>
      <point x="258" y="268" type="curve"/>
      <point x="256" y="268"/>
      <point x="253" y="267"/>
      <point x="251" y="267" type="curve"/>
      <point x="372" y="289"/>
      <point x="497" y="291"/>
      <point x="620" y="283" type="curve" smooth="yes"/>
      <point x="634" y="283"/>
      <point x="647" y="282"/>
      <point x="661" y="281" type="curve"/>
      <point x="658" y="281"/>
      <point x="655" y="281"/>
      <point x="653" y="281" type="curve"/>
      <point x="657" y="281"/>
      <point x="661" y="280"/>
      <point x="666" y="280" type="curve" smooth="yes"/>
      <point x="674" y="279"/>
      <point x="681" y="280"/>
      <point x="689" y="284" type="curve" smooth="yes"/>
      <point x="696" y="289"/>
      <point x="701" y="296"/>
      <point x="703" y="305" type="curve" smooth="yes"/>
      <point x="704" y="313"/>
      <point x="703" y="321"/>
      <point x="699" y="328" type="curve" smooth="yes"/>
      <point x="694" y="334"/>
      <point x="686" y="341"/>
      <point x="678" y="342" type="curve" smooth="yes"/>
      <point x="553" y="352"/>
      <point x="427" y="355"/>
      <point x="302" y="338" type="curve" smooth="yes"/>
      <point x="222" y="328"/>
      <point x="142" y="309"/>
      <point x="66" y="281" type="curve" smooth="yes"/>
      <point x="50" y="275"/>
      <point x="41" y="258"/>
      <point x="46" y="241" type="curve" smooth="yes"/>
      <point x="51" y="225"/>
      <point x="69" y="216"/>
      <point x="86" y="221" type="curve" smooth="yes"/>
      <point x="131" y="236"/>
      <point x="172" y="260"/>
      <point x="206" y="294" type="curve" smooth="yes"/>
      <point x="236" y="325"/>
      <point x="256" y="364"/>
      <point x="268" y="405" type="curve" smooth="yes"/>
      <point x="279" y="446"/>
      <point x="282" y="489"/>
      <point x="279" y="530" type="curve" smooth="yes"/>
      <point x="276" y="575"/>
      <point x="266" y="620"/>
      <point x="251" y="662" type="curve" smooth="yes"/>
      <point x="246" y="676"/>
      <point x="240" y="691"/>
      <point x="234" y="705" type="curve" smooth="yes"/>
      <point x="230" y="713"/>
      <point x="226" y="719"/>
      <point x="218" y="723" type="curve" smooth="yes"/>
      <point x="211" y="727"/>
      <point x="202" y="727"/>
      <point x="194" y="725" type="curve" smooth="yes"/>
      <point x="186" y="722"/>
      <point x="180" y="717"/>
      <point x="176" y="709" type="curve" smooth="yes"/>
      <point x="172" y="702"/>
      <point x="171" y="693"/>
      <point x="174" y="685" type="curve"/>
    </contour>
  </outline>
</glyph>
<glyph name="five" format="1">
  <advance width="703.747514043"/>
  <unicode hex="0035"/>
  <outline>
    <contour>
      <point x="224" y="728" type="curve" smooth="yes"/>
      <point x="198" y="600"/>
      <point x="152" y="479"/>
      <point x="126" y="352" type="curve" smooth="yes"/>
      <point x="123" y="339"/>
      <point x="110" y="331"/>
      <point x="97" y="333" type="curve" smooth="yes"/>
      <point x="84" y="336"/>
      <point x="76" y="349"/>
      <point x="78" y="362" type="curve" smooth="yes"/>
      <point x="104" y="489"/>
      <point x="150" y="610"/>
      <point x="176" y="738" type="curve" smooth="yes"/>
      <point x="179" y="750"/>
      <point x="192" y="759"/>
      <point x="205" y="757" type="curve" smooth="yes"/>
      <point x="217" y="754"/>
      <point x="226" y="741"/>
    </contour>
    <contour>
      <point x="96" y="380" type="curve" smooth="yes"/>
      <point x="296" y="429"/>
      <point x="605" y="461"/>
      <point x="618" y="179" type="curve" smooth="yes"/>
      <point x="629" y="-59"/>
      <point x="382" y="-73"/>
      <point x="200" y="-20" type="curve" smooth="yes"/>
      <point x="136" y="-1"/>
      <point x="55" y="36"/>
      <point x="50" y="112" type="curve" smooth="yes"/>
      <point x="49" y="124"/>
      <point x="60" y="136"/>
      <point x="73" y="137" type="curve" smooth="yes"/>
      <point x="85" y="138"/>
      <point x="97" y="127"/>
      <point x="98" y="114" type="curve" smooth="yes"/>
      <point x="101" y="58"/>
      <point x="170" y="39"/>
      <point x="214" y="26" type="curve" smooth="yes"/>
      <point x="350" y="-13"/>
      <point x="579" y="-29"/>
      <point x="570" y="177" type="curve" smooth="yes"/>
      <point x="559" y="429"/>
      <point x="266" y="373"/>
      <point x="108" y="334" type="curve" smooth="yes"/>
      <point x="95" y="331"/>
      <point x="82" y="339"/>
      <point x="79" y="351" type="curve" smooth="yes"/>
      <point x="76" y="364"/>
      <point x="84" y="377"/>
    </contour>
    <contour>
      <point x="109" y="771" type="curve" smooth="yes"/>
      <point x="195" y="773"/>
      <point x="286" y="752"/>
      <point x="374" y="749" type="curve" smooth="yes"/>
      <point x="430" y="747"/>
      <point x="565" y="722"/>
      <point x="615" y="763" type="curve" smooth="yes"/>
      <point x="625" y="772"/>
      <point x="640" y="770"/>
      <point x="648" y="760" type="curve" smooth="yes"/>
      <point x="657" y="750"/>
      <point x="655" y="735"/>
      <point x="645" y="727" type="curve" smooth="yes"/>
      <point x="589" y="680"/>
      <point x="438" y="699"/>
      <point x="372" y="701" type="curve" smooth="yes"/>
      <point x="286" y="704"/>
      <point x="195" y="725"/>
      <point x="111" y="723" type="curve" smooth="yes"/>
      <point x="98" y="723"/>
      <point x="86" y="733"/>
      <point x="86" y="746" type="curve" smooth="yes"/>
      <point x="86" y="759"/>
      <point x="96" y="771"/>
    </contour>
  </outline>
</glyph>
<glyph name="six" format="1">
  <advance width="574"/>
  <unicode hex="0036"/>
  <outline>
    <contour>
      <point x="324" y="740" type="line"/>
      <point x="276" y="698"/>
      <point x="235" y="647"/>
      <point x="198" y="595" type="curve" smooth="yes"/>
      <point x="151" y="529"/>
      <point x="109" y="459"/>
      <point x="81" y="383" type="curve" smooth="yes"/>
      <point x="53" y="311"/>
      <point x="36" y="233"/>
      <point x="53" y="156" type="curve" smooth="yes"/>
      <point x="69" y="80"/>
      <point x="126" y="20"/>
      <point x="196" y="-10" type="curve" smooth="yes"/>
      <point x="251" y="-35"/>
      <point x="316" y="-43"/>
      <point x="373" y="-18" type="curve" smooth="yes"/>
      <point x="400" y="-7"/>
      <point x="422" y="9"/>
      <point x="443" y="30" type="curve" smooth="yes"/>
      <point x="461" y="48"/>
      <point x="476" y="71"/>
      <point x="488" y="94" type="curve" smooth="yes"/>
      <point x="511" y="140"/>
      <point x="523" y="193"/>
      <point x="520" y="244" type="curve" smooth="yes"/>
      <point x="517" y="291"/>
      <point x="500" y="341"/>
      <point x="463" y="372" type="curve" smooth="yes"/>
      <point x="443" y="388"/>
      <point x="419" y="399"/>
      <point x="394" y="402" type="curve" smooth="yes"/>
      <point x="362" y="406"/>
      <point x="331" y="402"/>
      <point x="301" y="393" type="curve" smooth="yes"/>
      <point x="281" y="387"/>
      <point x="261" y="378"/>
      <point x="243" y="365" type="curve" smooth="yes"/>
      <point x="223" y="350"/>
      <point x="207" y="332"/>
      <point x="192" y="311" type="curve" smooth="yes"/>
      <point x="168" y="275"/>
      <point x="154" y="231"/>
      <point x="149" y="188" type="curve" smooth="yes"/>
      <point x="144" y="151"/>
      <point x="145" y="114"/>
      <point x="153" y="77" type="curve" smooth="yes"/>
      <point x="156" y="61"/>
      <point x="178" y="52"/>
      <point x="193" y="57" type="curve" smooth="yes"/>
      <point x="201" y="60"/>
      <point x="207" y="65"/>
      <point x="211" y="73" type="curve" smooth="yes"/>
      <point x="215" y="81"/>
      <point x="215" y="88"/>
      <point x="213" y="97" type="curve" smooth="yes"/>
      <point x="213" y="99"/>
      <point x="212" y="101"/>
      <point x="212" y="103" type="curve"/>
      <point x="212" y="101"/>
      <point x="213" y="98"/>
      <point x="213" y="95" type="curve"/>
      <point x="209" y="120"/>
      <point x="208" y="145"/>
      <point x="210" y="170" type="curve"/>
      <point x="210" y="167"/>
      <point x="209" y="164"/>
      <point x="209" y="162" type="curve"/>
      <point x="211" y="187"/>
      <point x="216" y="213"/>
      <point x="225" y="237" type="curve"/>
      <point x="224" y="234"/>
      <point x="223" y="232"/>
      <point x="222" y="229" type="curve"/>
      <point x="229" y="248"/>
      <point x="237" y="266"/>
      <point x="249" y="283" type="curve"/>
      <point x="247" y="281"/>
      <point x="246" y="278"/>
      <point x="244" y="276" type="curve"/>
      <point x="253" y="289"/>
      <point x="263" y="301"/>
      <point x="275" y="311" type="curve"/>
      <point x="273" y="309"/>
      <point x="271" y="307"/>
      <point x="269" y="305" type="curve"/>
      <point x="279" y="314"/>
      <point x="290" y="321"/>
      <point x="302" y="327" type="curve"/>
      <point x="300" y="326"/>
      <point x="297" y="325"/>
      <point x="295" y="323" type="curve"/>
      <point x="311" y="331"/>
      <point x="329" y="336"/>
      <point x="346" y="339" type="curve"/>
      <point x="344" y="339"/>
      <point x="341" y="338"/>
      <point x="338" y="338" type="curve"/>
      <point x="352" y="340"/>
      <point x="367" y="341"/>
      <point x="381" y="340" type="curve"/>
      <point x="379" y="341"/>
      <point x="376" y="341"/>
      <point x="373" y="341" type="curve"/>
      <point x="384" y="340"/>
      <point x="394" y="338"/>
      <point x="404" y="335" type="curve"/>
      <point x="402" y="336"/>
      <point x="399" y="336"/>
      <point x="397" y="337" type="curve"/>
      <point x="405" y="334"/>
      <point x="413" y="330"/>
      <point x="421" y="325" type="curve"/>
      <point x="419" y="327"/>
      <point x="416" y="328"/>
      <point x="414" y="330" type="curve"/>
      <point x="422" y="325"/>
      <point x="429" y="318"/>
      <point x="435" y="311" type="curve"/>
      <point x="433" y="313"/>
      <point x="431" y="315"/>
      <point x="429" y="318" type="curve"/>
      <point x="436" y="309"/>
      <point x="442" y="300"/>
      <point x="446" y="291" type="curve"/>
      <point x="445" y="293"/>
      <point x="444" y="295"/>
      <point x="443" y="298" type="curve"/>
      <point x="449" y="285"/>
      <point x="453" y="271"/>
      <point x="456" y="257" type="curve"/>
      <point x="455" y="260"/>
      <point x="455" y="263"/>
      <point x="454" y="265" type="curve"/>
      <point x="457" y="247"/>
      <point x="458" y="228"/>
      <point x="457" y="209" type="curve"/>
      <point x="457" y="211"/>
      <point x="457" y="214"/>
      <point x="457" y="217" type="curve"/>
      <point x="456" y="193"/>
      <point x="451" y="170"/>
      <point x="443" y="148" type="curve"/>
      <point x="444" y="151"/>
      <point x="445" y="153"/>
      <point x="446" y="156" type="curve"/>
      <point x="438" y="134"/>
      <point x="428" y="113"/>
      <point x="415" y="94" type="curve"/>
      <point x="417" y="97"/>
      <point x="418" y="99"/>
      <point x="420" y="101" type="curve"/>
      <point x="409" y="86"/>
      <point x="397" y="72"/>
      <point x="382" y="60" type="curve"/>
      <point x="385" y="61"/>
      <point x="387" y="63"/>
      <point x="389" y="65" type="curve"/>
      <point x="377" y="55"/>
      <point x="364" y="46"/>
      <point x="350" y="40" type="curve"/>
      <point x="352" y="41"/>
      <point x="355" y="42"/>
      <point x="357" y="43" type="curve"/>
      <point x="345" y="38"/>
      <point x="332" y="33"/>
      <point x="318" y="31" type="curve"/>
      <point x="321" y="31"/>
      <point x="323" y="32"/>
      <point x="326" y="32" type="curve"/>
      <point x="311" y="30"/>
      <point x="297" y="29"/>
      <point x="282" y="30" type="curve"/>
      <point x="285" y="30"/>
      <point x="287" y="30"/>
      <point x="290" y="29" type="curve"/>
      <point x="272" y="31"/>
      <point x="254" y="35"/>
      <point x="236" y="41" type="curve"/>
      <point x="239" y="40"/>
      <point x="241" y="39"/>
      <point x="244" y="38" type="curve"/>
      <point x="222" y="46"/>
      <point x="201" y="57"/>
      <point x="182" y="70" type="curve"/>
      <point x="184" y="68"/>
      <point x="186" y="66"/>
      <point x="188" y="65" type="curve"/>
      <point x="173" y="76"/>
      <point x="158" y="88"/>
      <point x="146" y="103" type="curve"/>
      <point x="148" y="101"/>
      <point x="149" y="98"/>
      <point x="151" y="96" type="curve"/>
      <point x="140" y="109"/>
      <point x="131" y="123"/>
      <point x="124" y="139" type="curve"/>
      <point x="125" y="136"/>
      <point x="126" y="134"/>
      <point x="127" y="131" type="curve"/>
      <point x="120" y="147"/>
      <point x="115" y="164"/>
      <point x="112" y="182" type="curve"/>
      <point x="112" y="179"/>
      <point x="112" y="176"/>
      <point x="113" y="174" type="curve"/>
      <point x="109" y="197"/>
      <point x="108" y="220"/>
      <point x="110" y="243" type="curve"/>
      <point x="110" y="241"/>
      <point x="109" y="238"/>
      <point x="109" y="235" type="curve"/>
      <point x="112" y="273"/>
      <point x="121" y="311"/>
      <point x="134" y="347" type="curve"/>
      <point x="133" y="344"/>
      <point x="132" y="342"/>
      <point x="131" y="339" type="curve"/>
      <point x="156" y="412"/>
      <point x="194" y="480"/>
      <point x="238" y="543" type="curve"/>
      <point x="236" y="540"/>
      <point x="234" y="538"/>
      <point x="233" y="536" type="curve"/>
      <point x="270" y="591"/>
      <point x="312" y="643"/>
      <point x="360" y="689" type="curve" smooth="yes"/>
      <point x="364" y="692"/>
      <point x="367" y="695"/>
      <point x="370" y="698" type="curve" smooth="yes"/>
      <point x="376" y="703"/>
      <point x="379" y="713"/>
      <point x="378" y="721" type="curve" smooth="yes"/>
      <point x="378" y="729"/>
      <point x="374" y="737"/>
      <point x="368" y="742" type="curve" smooth="yes"/>
      <point x="362" y="748"/>
      <point x="354" y="751"/>
      <point x="345" y="750" type="curve" smooth="yes"/>
      <point x="336" y="750"/>
      <point x="330" y="746"/>
      <point x="324" y="740" type="curve"/>
    </contour>
  </outline>
</glyph>
<glyph name="seven" format="1">
  <advance width="638"/>
  <unicode hex="0037"/>
  <outline>
    <contour>
      <point x="169" y="277" type="line"/>
      <point x="202" y="290"/>
      <point x="236" y="300"/>
      <point x="271" y="306" type="curve"/>
      <point x="268" y="306"/>
      <point x="266" y="305"/>
      <point x="263" y="305" type="curve"/>
      <point x="310" y="313"/>
      <point x="359" y="316"/>
      <point x="407" y="312" type="curve"/>
      <point x="405" y="313"/>
      <point x="402" y="313"/>
      <point x="399" y="313" type="curve"/>
      <point x="402" y="313"/>
      <point x="405" y="312"/>
      <point x="409" y="312" type="curve" smooth="yes"/>
      <point x="417" y="311"/>
      <point x="424" y="312"/>
      <point x="432" y="316" type="curve" smooth="yes"/>
      <point x="439" y="321"/>
      <point x="444" y="328"/>
      <point x="446" y="337" type="curve" smooth="yes"/>
      <point x="447" y="345"/>
      <point x="446" y="353"/>
      <point x="442" y="360" type="curve" smooth="yes"/>
      <point x="437" y="366"/>
      <point x="429" y="373"/>
      <point x="421" y="374" type="curve" smooth="yes"/>
      <point x="329" y="382"/>
      <point x="236" y="371"/>
      <point x="149" y="337" type="curve" smooth="yes"/>
      <point x="133" y="331"/>
      <point x="124" y="315"/>
      <point x="129" y="297" type="curve" smooth="yes"/>
      <point x="134" y="282"/>
      <point x="153" y="271"/>
      <point x="169" y="277" type="curve"/>
    </contour>
    <contour>
      <point x="93" y="636" type="line"/>
      <point x="222" y="656"/>
      <point x="354" y="653"/>
      <point x="485" y="647" type="curve" smooth="yes"/>
      <point x="505" y="646"/>
      <point x="525" y="645"/>
      <point x="545" y="644" type="curve"/>
      <point x="538" y="663"/>
      <point x="532" y="682"/>
      <point x="526" y="702" type="curve"/>
      <point x="445" y="637"/>
      <point x="370" y="565"/>
      <point x="310" y="480" type="curve" smooth="yes"/>
      <point x="252" y="396"/>
      <point x="208" y="301"/>
      <point x="196" y="199" type="curve" smooth="yes"/>
      <point x="189" y="139"/>
      <point x="193" y="80"/>
      <point x="205" y="21" type="curve" smooth="yes"/>
      <point x="208" y="5"/>
      <point x="229" y="-4"/>
      <point x="245" y="1" type="curve" smooth="yes"/>
      <point x="253" y="4"/>
      <point x="259" y="9"/>
      <point x="263" y="17" type="curve" smooth="yes"/>
      <point x="267" y="25"/>
      <point x="267" y="32"/>
      <point x="265" y="41" type="curve" smooth="yes"/>
      <point x="264" y="45"/>
      <point x="263" y="50"/>
      <point x="262" y="55" type="curve"/>
      <point x="263" y="52"/>
      <point x="263" y="50"/>
      <point x="264" y="47" type="curve"/>
      <point x="256" y="89"/>
      <point x="254" y="132"/>
      <point x="257" y="175" type="curve"/>
      <point x="257" y="172"/>
      <point x="256" y="169"/>
      <point x="256" y="167" type="curve"/>
      <point x="259" y="211"/>
      <point x="269" y="254"/>
      <point x="283" y="295" type="curve"/>
      <point x="282" y="293"/>
      <point x="281" y="290"/>
      <point x="280" y="288" type="curve"/>
      <point x="299" y="341"/>
      <point x="325" y="391"/>
      <point x="357" y="437" type="curve"/>
      <point x="355" y="435"/>
      <point x="354" y="432"/>
      <point x="352" y="430" type="curve"/>
      <point x="403" y="504"/>
      <point x="466" y="569"/>
      <point x="534" y="628" type="curve"/>
      <point x="532" y="626"/>
      <point x="530" y="624"/>
      <point x="528" y="622" type="curve"/>
      <point x="539" y="631"/>
      <point x="549" y="640"/>
      <point x="560" y="648" type="curve"/>
      <point x="565" y="652"/>
      <point x="569" y="656"/>
      <point x="571" y="661" type="curve" smooth="yes"/>
      <point x="575" y="668"/>
      <point x="575" y="677"/>
      <point x="573" y="685" type="curve" smooth="yes"/>
      <point x="571" y="690"/>
      <point x="568" y="695"/>
      <point x="564" y="698" type="curve" smooth="yes"/>
      <point x="557" y="704"/>
      <point x="550" y="706"/>
      <point x="541" y="706" type="curve" smooth="yes"/>
      <point x="411" y="713"/>
      <point x="280" y="720"/>
      <point x="151" y="706" type="curve" smooth="yes"/>
      <point x="130" y="704"/>
      <point x="110" y="702"/>
      <point x="89" y="698" type="curve" smooth="yes"/>
      <point x="81" y="697"/>
      <point x="74" y="695"/>
      <point x="68" y="688" type="curve" smooth="yes"/>
      <point x="62" y="682"/>
      <point x="59" y="674"/>
      <point x="60" y="665" type="curve" smooth="yes"/>
      <point x="60" y="650"/>
      <point x="76" y="633"/>
      <point x="93" y="636" type="curve"/>
    </contour>
  </outline>
</glyph>
<glyph name="eight" format="1">
  <advance width="707"/>
  <unicode hex="0038"/>
  <outline>
    <contour>
      <point x="525" y="469" type="line"/>
      <point x="415" y="426"/>
      <point x="317" y="356"/>
      <point x="231" y="274" type="curve" smooth="yes"/>
      <point x="199" y="243"/>
      <point x="168" y="210"/>
      <point x="140" y="176" type="curve" smooth="yes"/>
      <point x="129" y="163"/>
      <point x="129" y="143"/>
      <point x="142" y="132" type="curve" smooth="yes"/>
      <point x="154" y="120"/>
      <point x="175" y="121"/>
      <point x="186" y="134" type="curve" smooth="yes"/>
      <point x="228" y="184"/>
      <point x="274" y="231"/>
      <point x="324" y="273" type="curve"/>
      <point x="321" y="271"/>
      <point x="319" y="270"/>
      <point x="317" y="268" type="curve"/>
      <point x="376" y="318"/>
      <point x="440" y="362"/>
      <point x="510" y="395" type="curve"/>
      <point x="508" y="393"/>
      <point x="505" y="392"/>
      <point x="503" y="391" type="curve"/>
      <point x="517" y="398"/>
      <point x="531" y="403"/>
      <point x="545" y="409" type="curve" smooth="yes"/>
      <point x="561" y="415"/>
      <point x="570" y="431"/>
      <point x="565" y="449" type="curve" smooth="yes"/>
      <point x="560" y="464"/>
      <point x="541" y="475"/>
      <point x="525" y="469" type="curve"/>
    </contour>
    <contour>
      <point x="586" y="473" type="line"/>
      <point x="583" y="512"/>
      <point x="576" y="551"/>
      <point x="562" y="588" type="curve" smooth="yes"/>
      <point x="549" y="620"/>
      <point x="532" y="649"/>
      <point x="509" y="675" type="curve" smooth="yes"/>
      <point x="473" y="714"/>
      <point x="420" y="740"/>
      <point x="366" y="744" type="curve" smooth="yes"/>
      <point x="338" y="746"/>
      <point x="310" y="744"/>
      <point x="283" y="737" type="curve" smooth="yes"/>
      <point x="258" y="731"/>
      <point x="234" y="721"/>
      <point x="213" y="708" type="curve" smooth="yes"/>
      <point x="168" y="681"/>
      <point x="134" y="638"/>
      <point x="121" y="588" type="curve" smooth="yes"/>
      <point x="113" y="561"/>
      <point x="114" y="533"/>
      <point x="119" y="505" type="curve" smooth="yes"/>
      <point x="122" y="492"/>
      <point x="126" y="480"/>
      <point x="131" y="468" type="curve" smooth="yes"/>
      <point x="137" y="453"/>
      <point x="145" y="437"/>
      <point x="154" y="424" type="curve" smooth="yes"/>
      <point x="190" y="372"/>
      <point x="256" y="358"/>
      <point x="315" y="352" type="curve" smooth="yes"/>
      <point x="347" y="349"/>
      <point x="380" y="348"/>
      <point x="412" y="345" type="curve"/>
      <point x="410" y="345"/>
      <point x="407" y="346"/>
      <point x="404" y="346" type="curve"/>
      <point x="442" y="343"/>
      <point x="480" y="339"/>
      <point x="516" y="327" type="curve"/>
      <point x="513" y="328"/>
      <point x="511" y="329"/>
      <point x="508" y="329" type="curve"/>
      <point x="522" y="324"/>
      <point x="536" y="318"/>
      <point x="548" y="310" type="curve"/>
      <point x="546" y="311"/>
      <point x="543" y="313"/>
      <point x="541" y="315" type="curve"/>
      <point x="550" y="308"/>
      <point x="559" y="301"/>
      <point x="566" y="292" type="curve"/>
      <point x="564" y="294"/>
      <point x="562" y="297"/>
      <point x="560" y="299" type="curve"/>
      <point x="567" y="290"/>
      <point x="573" y="281"/>
      <point x="578" y="271" type="curve"/>
      <point x="577" y="274"/>
      <point x="576" y="276"/>
      <point x="574" y="279" type="curve"/>
      <point x="580" y="267"/>
      <point x="584" y="254"/>
      <point x="586" y="241" type="curve"/>
      <point x="586" y="244"/>
      <point x="585" y="246"/>
      <point x="585" y="249" type="curve"/>
      <point x="587" y="233"/>
      <point x="589" y="217"/>
      <point x="588" y="202" type="curve"/>
      <point x="588" y="204"/>
      <point x="588" y="207"/>
      <point x="588" y="210" type="curve"/>
      <point x="587" y="197"/>
      <point x="585" y="185"/>
      <point x="581" y="174" type="curve"/>
      <point x="582" y="176"/>
      <point x="583" y="179"/>
      <point x="583" y="181" type="curve"/>
      <point x="579" y="167"/>
      <point x="572" y="154"/>
      <point x="564" y="142" type="curve"/>
      <point x="565" y="145"/>
      <point x="567" y="147"/>
      <point x="569" y="149" type="curve"/>
      <point x="558" y="134"/>
      <point x="545" y="120"/>
      <point x="530" y="107" type="curve"/>
      <point x="532" y="109"/>
      <point x="534" y="111"/>
      <point x="537" y="113" type="curve"/>
      <point x="517" y="96"/>
      <point x="496" y="83"/>
      <point x="473" y="72" type="curve"/>
      <point x="475" y="73"/>
      <point x="478" y="74"/>
      <point x="480" y="75" type="curve"/>
      <point x="456" y="64"/>
      <point x="431" y="56"/>
      <point x="405" y="51" type="curve"/>
      <point x="408" y="52"/>
      <point x="411" y="52"/>
      <point x="413" y="53" type="curve"/>
      <point x="393" y="49"/>
      <point x="373" y="48"/>
      <point x="353" y="49" type="curve"/>
      <point x="356" y="49"/>
      <point x="359" y="49"/>
      <point x="361" y="49" type="curve"/>
      <point x="344" y="50"/>
      <point x="326" y="52"/>
      <point x="309" y="55" type="curve" smooth="yes"/>
      <point x="293" y="58"/>
      <point x="278" y="61"/>
      <point x="264" y="66" type="curve"/>
      <point x="266" y="65"/>
      <point x="269" y="64"/>
      <point x="271" y="63" type="curve"/>
      <point x="261" y="67"/>
      <point x="251" y="72"/>
      <point x="242" y="78" type="curve"/>
      <point x="244" y="76"/>
      <point x="246" y="75"/>
      <point x="249" y="73" type="curve"/>
      <point x="241" y="79"/>
      <point x="234" y="85"/>
      <point x="227" y="92" type="curve"/>
      <point x="229" y="90"/>
      <point x="231" y="88"/>
      <point x="233" y="86" type="curve"/>
      <point x="224" y="97"/>
      <point x="217" y="109"/>
      <point x="211" y="121" type="curve"/>
      <point x="212" y="119"/>
      <point x="213" y="116"/>
      <point x="214" y="114" type="curve"/>
      <point x="207" y="129"/>
      <point x="202" y="145"/>
      <point x="197" y="161" type="curve" smooth="yes"/>
      <point x="192" y="177"/>
      <point x="174" y="186"/>
      <point x="157" y="181" type="curve" smooth="yes"/>
      <point x="141" y="176"/>
      <point x="132" y="158"/>
      <point x="137" y="141" type="curve" smooth="yes"/>
      <point x="149" y="103"/>
      <point x="165" y="63"/>
      <point x="196" y="35" type="curve" smooth="yes"/>
      <point x="224" y="9"/>
      <point x="262" y="-1"/>
      <point x="298" y="-7" type="curve" smooth="yes"/>
      <point x="321" y="-10"/>
      <point x="344" y="-14"/>
      <point x="367" y="-14" type="curve" smooth="yes"/>
      <point x="388" y="-15"/>
      <point x="410" y="-12"/>
      <point x="431" y="-7" type="curve" smooth="yes"/>
      <point x="474" y="1"/>
      <point x="516" y="20"/>
      <point x="551" y="44" type="curve" smooth="yes"/>
      <point x="587" y="70"/>
      <point x="619" y="104"/>
      <point x="637" y="145" type="curve" smooth="yes"/>
      <point x="654" y="186"/>
      <point x="654" y="232"/>
      <point x="643" y="275" type="curve" smooth="yes"/>
      <point x="634" y="307"/>
      <point x="616" y="336"/>
      <point x="590" y="357" type="curve" smooth="yes"/>
      <point x="564" y="377"/>
      <point x="533" y="389"/>
      <point x="501" y="396" type="curve" smooth="yes"/>
      <point x="449" y="408"/>
      <point x="396" y="409"/>
      <point x="343" y="413" type="curve"/>
      <point x="346" y="412"/>
      <point x="348" y="412"/>
      <point x="351" y="412" type="curve"/>
      <point x="316" y="415"/>
      <point x="280" y="418"/>
      <point x="247" y="429" type="curve"/>
      <point x="250" y="429"/>
      <point x="252" y="428"/>
      <point x="255" y="427" type="curve"/>
      <point x="243" y="431"/>
      <point x="231" y="436"/>
      <point x="220" y="444" type="curve"/>
      <point x="223" y="442"/>
      <point x="225" y="440"/>
      <point x="227" y="439" type="curve"/>
      <point x="220" y="444"/>
      <point x="213" y="450"/>
      <point x="207" y="457" type="curve"/>
      <point x="209" y="455"/>
      <point x="211" y="453"/>
      <point x="213" y="451" type="curve"/>
      <point x="203" y="461"/>
      <point x="197" y="474"/>
      <point x="191" y="487" type="curve"/>
      <point x="192" y="485"/>
      <point x="193" y="482"/>
      <point x="194" y="480" type="curve"/>
      <point x="187" y="494"/>
      <point x="182" y="509"/>
      <point x="179" y="525" type="curve"/>
      <point x="180" y="522"/>
      <point x="180" y="520"/>
      <point x="181" y="517" type="curve"/>
      <point x="178" y="530"/>
      <point x="177" y="543"/>
      <point x="178" y="556" type="curve"/>
      <point x="178" y="554"/>
      <point x="178" y="551"/>
      <point x="178" y="548" type="curve"/>
      <point x="179" y="561"/>
      <point x="181" y="573"/>
      <point x="185" y="585" type="curve"/>
      <point x="184" y="583"/>
      <point x="184" y="580"/>
      <point x="183" y="578" type="curve"/>
      <point x="187" y="590"/>
      <point x="193" y="603"/>
      <point x="201" y="614" type="curve"/>
      <point x="200" y="612"/>
      <point x="198" y="609"/>
      <point x="196" y="607" type="curve"/>
      <point x="205" y="620"/>
      <point x="216" y="632"/>
      <point x="228" y="642" type="curve"/>
      <point x="226" y="640"/>
      <point x="224" y="638"/>
      <point x="222" y="636" type="curve"/>
      <point x="236" y="648"/>
      <point x="251" y="658"/>
      <point x="268" y="666" type="curve"/>
      <point x="266" y="665"/>
      <point x="263" y="664"/>
      <point x="261" y="663" type="curve"/>
      <point x="278" y="671"/>
      <point x="296" y="677"/>
      <point x="315" y="680" type="curve"/>
      <point x="313" y="680"/>
      <point x="310" y="679"/>
      <point x="307" y="679" type="curve"/>
      <point x="325" y="682"/>
      <point x="344" y="683"/>
      <point x="362" y="682" type="curve"/>
      <point x="359" y="682"/>
      <point x="356" y="682"/>
      <point x="354" y="682" type="curve"/>
      <point x="371" y="681"/>
      <point x="387" y="677"/>
      <point x="403" y="672" type="curve"/>
      <point x="401" y="673"/>
      <point x="398" y="674"/>
      <point x="396" y="675" type="curve"/>
      <point x="411" y="669"/>
      <point x="426" y="662"/>
      <point x="440" y="652" type="curve"/>
      <point x="437" y="654"/>
      <point x="435" y="656"/>
      <point x="433" y="657" type="curve"/>
      <point x="447" y="647"/>
      <point x="460" y="636"/>
      <point x="471" y="622" type="curve"/>
      <point x="469" y="625"/>
      <point x="468" y="627"/>
      <point x="466" y="629" type="curve"/>
      <point x="479" y="613"/>
      <point x="490" y="596"/>
      <point x="498" y="578" type="curve"/>
      <point x="497" y="580"/>
      <point x="496" y="583"/>
      <point x="495" y="585" type="curve"/>
      <point x="506" y="560"/>
      <point x="514" y="534"/>
      <point x="519" y="507" type="curve"/>
      <point x="519" y="509"/>
      <point x="518" y="512"/>
      <point x="518" y="515" type="curve"/>
      <point x="520" y="500"/>
      <point x="522" y="485"/>
      <point x="524" y="469" type="curve" smooth="yes"/>
      <point x="525" y="452"/>
      <point x="539" y="439"/>
      <point x="557" y="440" type="curve" smooth="yes"/>
      <point x="573" y="440"/>
      <point x="588" y="456"/>
      <point x="586" y="473" type="curve"/>
    </contour>
  </outline>
</glyph>
<glyph name="nine" format="1">
  <advance width="500"/>
  <unicode hex="0039"/>
  <outline>
    <contour>
      <point x="357" y="365" type="line"/>
      <point x="350" y="348"/>
      <point x="342" y="331"/>
      <point x="331" y="316" type="curve"/>
      <point x="333" y="318"/>
      <point x="334" y="320"/>
      <point x="336" y="323" type="curve"/>
      <point x="328" y="311"/>
      <point x="319" y="300"/>
      <point x="308" y="291" type="curve"/>
      <point x="310" y="293"/>
      <point x="313" y="295"/>
      <point x="315" y="297" type="curve"/>
      <point x="307" y="290"/>
      <point x="298" y="284"/>
      <point x="289" y="280" type="curve"/>
      <point x="291" y="281"/>
      <point x="293" y="282"/>
      <point x="296" y="283" type="curve"/>
      <point x="288" y="280"/>
      <point x="279" y="277"/>
      <point x="270" y="275" type="curve"/>
      <point x="273" y="276"/>
      <point x="276" y="276"/>
      <point x="278" y="277" type="curve"/>
      <point x="269" y="275"/>
      <point x="260" y="275"/>
      <point x="252" y="275" type="curve"/>
      <point x="254" y="275"/>
      <point x="257" y="275"/>
      <point x="260" y="275" type="curve"/>
      <point x="248" y="276"/>
      <point x="237" y="278"/>
      <point x="227" y="282" type="curve"/>
      <point x="229" y="281"/>
      <point x="232" y="280"/>
      <point x="234" y="279" type="curve"/>
      <point x="220" y="284"/>
      <point x="206" y="291"/>
      <point x="194" y="300" type="curve"/>
      <point x="196" y="298"/>
      <point x="198" y="297"/>
      <point x="201" y="295" type="curve"/>
      <point x="184" y="307"/>
      <point x="169" y="321"/>
      <point x="156" y="336" type="curve"/>
      <point x="158" y="334"/>
      <point x="159" y="332"/>
      <point x="161" y="330" type="curve"/>
      <point x="146" y="348"/>
      <point x="133" y="368"/>
      <point x="123" y="389" type="curve"/>
      <point x="124" y="387"/>
      <point x="125" y="384"/>
      <point x="126" y="382" type="curve"/>
      <point x="117" y="402"/>
      <point x="110" y="423"/>
      <point x="106" y="444" type="curve"/>
      <point x="107" y="441"/>
      <point x="107" y="439"/>
      <point x="108" y="436" type="curve"/>
      <point x="105" y="454"/>
      <point x="103" y="471"/>
      <point x="105" y="489" type="curve"/>
      <point x="105" y="487"/>
      <point x="104" y="484"/>
      <point x="104" y="481" type="curve"/>
      <point x="105" y="497"/>
      <point x="109" y="513"/>
      <point x="114" y="529" type="curve"/>
      <point x="113" y="526"/>
      <point x="112" y="524"/>
      <point x="111" y="521" type="curve"/>
      <point x="117" y="536"/>
      <point x="124" y="551"/>
      <point x="133" y="564" type="curve"/>
      <point x="131" y="562"/>
      <point x="130" y="559"/>
      <point x="128" y="557" type="curve"/>
      <point x="139" y="572"/>
      <point x="151" y="586"/>
      <point x="165" y="598" type="curve"/>
      <point x="163" y="596"/>
      <point x="161" y="594"/>
      <point x="159" y="592" type="curve"/>
      <point x="181" y="611"/>
      <point x="207" y="626"/>
      <point x="233" y="639" type="curve"/>
      <point x="231" y="638"/>
      <point x="228" y="637"/>
      <point x="226" y="635" type="curve"/>
      <point x="244" y="644"/>
      <point x="263" y="651"/>
      <point x="283" y="655" type="curve"/>
      <point x="280" y="654"/>
      <point x="278" y="654"/>
      <point x="275" y="653" type="curve"/>
      <point x="287" y="655"/>
      <point x="299" y="656"/>
      <point x="311" y="655" type="curve"/>
      <point x="308" y="655"/>
      <point x="305" y="656"/>
      <point x="303" y="656" type="curve"/>
      <point x="312" y="655"/>
      <point x="321" y="653"/>
      <point x="330" y="650" type="curve"/>
      <point x="327" y="651"/>
      <point x="324" y="652"/>
      <point x="322" y="653" type="curve"/>
      <point x="330" y="650"/>
      <point x="338" y="646"/>
      <point x="346" y="641" type="curve"/>
      <point x="343" y="643"/>
      <point x="341" y="644"/>
      <point x="339" y="646" type="curve"/>
      <point x="347" y="640"/>
      <point x="354" y="633"/>
      <point x="361" y="626" type="curve"/>
      <point x="359" y="628"/>
      <point x="357" y="630"/>
      <point x="355" y="632" type="curve"/>
      <point x="364" y="622"/>
      <point x="372" y="609"/>
      <point x="378" y="596" type="curve"/>
      <point x="377" y="599"/>
      <point x="375" y="601"/>
      <point x="374" y="604" type="curve"/>
      <point x="384" y="583"/>
      <point x="390" y="560"/>
      <point x="394" y="538" type="curve"/>
      <point x="394" y="540"/>
      <point x="393" y="543"/>
      <point x="393" y="546" type="curve"/>
      <point x="400" y="505"/>
      <point x="401" y="463"/>
      <point x="398" y="422" type="curve"/>
      <point x="398" y="425"/>
      <point x="399" y="428"/>
      <point x="399" y="430" type="curve"/>
      <point x="396" y="390"/>
      <point x="389" y="349"/>
      <point x="376" y="310" type="curve"/>
      <point x="377" y="313"/>
      <point x="377" y="315"/>
      <point x="378" y="318" type="curve"/>
      <point x="362" y="272"/>
      <point x="336" y="229"/>
      <point x="310" y="188" type="curve" smooth="yes"/>
      <point x="283" y="147"/>
      <point x="254" y="107"/>
      <point x="229" y="65" type="curve" smooth="yes"/>
      <point x="220" y="50"/>
      <point x="228" y="30"/>
      <point x="243" y="23" type="curve" smooth="yes"/>
      <point x="259" y="15"/>
      <point x="276" y="22"/>
      <point x="285" y="37" type="curve" smooth="yes"/>
      <point x="341" y="130"/>
      <point x="416" y="214"/>
      <point x="444" y="321" type="curve" smooth="yes"/>
      <point x="452" y="351"/>
      <point x="457" y="381"/>
      <point x="460" y="412" type="curve" smooth="yes"/>
      <point x="463" y="446"/>
      <point x="464" y="481"/>
      <point x="460" y="516" type="curve" smooth="yes"/>
      <point x="457" y="548"/>
      <point x="451" y="580"/>
      <point x="440" y="610" type="curve" smooth="yes"/>
      <point x="429" y="639"/>
      <point x="413" y="666"/>
      <point x="389" y="686" type="curve" smooth="yes"/>
      <point x="364" y="708"/>
      <point x="333" y="718"/>
      <point x="300" y="719" type="curve" smooth="yes"/>
      <point x="261" y="719"/>
      <point x="222" y="704"/>
      <point x="188" y="686" type="curve" smooth="yes"/>
      <point x="152" y="668"/>
      <point x="117" y="644"/>
      <point x="92" y="613" type="curve" smooth="yes"/>
      <point x="69" y="586"/>
      <point x="54" y="554"/>
      <point x="46" y="520" type="curve" smooth="yes"/>
      <point x="32" y="457"/>
      <point x="48" y="391"/>
      <point x="80" y="336" type="curve" smooth="yes"/>
      <point x="95" y="310"/>
      <point x="114" y="286"/>
      <point x="136" y="266" type="curve" smooth="yes"/>
      <point x="156" y="248"/>
      <point x="180" y="232"/>
      <point x="206" y="223" type="curve" smooth="yes"/>
      <point x="219" y="218"/>
      <point x="233" y="214"/>
      <point x="247" y="213" type="curve" smooth="yes"/>
      <point x="263" y="212"/>
      <point x="278" y="212"/>
      <point x="295" y="216" type="curve" smooth="yes"/>
      <point x="324" y="223"/>
      <point x="350" y="241"/>
      <point x="370" y="263" type="curve" smooth="yes"/>
      <point x="389" y="285"/>
      <point x="403" y="311"/>
      <point x="413" y="337" type="curve" smooth="yes"/>
      <point x="416" y="345"/>
      <point x="418" y="352"/>
      <point x="415" y="361" type="curve" smooth="yes"/>
      <point x="412" y="369"/>
      <point x="407" y="375"/>
      <point x="399" y="379" type="curve" smooth="yes"/>
      <point x="385" y="386"/>
      <point x="363" y="381"/>
      <point x="357" y="365" type="curve"/>
    </contour>
  </outline>
</glyph>
<glyph name="colon" format="1">
  <advance width="167"/>
  <unicode hex="003A"/>
  <outline>
    <contour>
      <point x="47" y="107" type="line"/>
      <point x="53" y="104"/>
      <point x="59" y="101"/>
      <point x="64" y="97" type="curve"/>
      <point x="62" y="99"/>
      <point x="60" y="100"/>
      <point x="57" y="102" type="curve"/>
      <point x="62" y="98"/>
      <point x="67" y="94"/>
      <point x="72" y="89" type="curve"/>
      <point x="70" y="91"/>
      <point x="68" y="94"/>
      <point x="66" y="96" type="curve"/>
      <point x="68" y="94"/>
      <point x="69" y="92"/>
      <point x="70" y="90" type="curve" smooth="yes"/>
      <point x="80" y="76"/>
      <point x="99" y="71"/>
      <point x="114" y="80" type="curve" smooth="yes"/>
      <point x="128" y="89"/>
      <point x="133" y="110"/>
      <point x="124" y="124" type="curve" smooth="yes"/>
      <point x="111" y="142"/>
      <point x="94" y="154"/>
      <point x="75" y="163" type="curve" smooth="yes"/>
      <point x="60" y="171"/>
      <point x="40" y="164"/>
      <point x="33" y="149" type="curve" smooth="yes"/>
      <point x="25" y="134"/>
      <point x="32" y="115"/>
      <point x="47" y="107" type="curve"/>
    </contour>
    <contour>
      <point x="63" y="519" type="line"/>
      <point x="65" y="518"/>
      <point x="68" y="516"/>
      <point x="70" y="515" type="curve"/>
      <point x="68" y="516"/>
      <point x="66" y="518"/>
      <point x="63" y="519" type="curve"/>
      <point x="74" y="512"/>
      <point x="83" y="501"/>
      <point x="92" y="492" type="curve" smooth="yes"/>
      <point x="104" y="479"/>
      <point x="125" y="482"/>
      <point x="136" y="494" type="curve" smooth="yes"/>
      <point x="148" y="507"/>
      <point x="146" y="526"/>
      <point x="134" y="538" type="curve" smooth="yes"/>
      <point x="128" y="544"/>
      <point x="123" y="550"/>
      <point x="118" y="556" type="curve" smooth="yes"/>
      <point x="110" y="564"/>
      <point x="101" y="570"/>
      <point x="91" y="575" type="curve" smooth="yes"/>
      <point x="76" y="583"/>
      <point x="56" y="576"/>
      <point x="49" y="561" type="curve" smooth="yes"/>
      <point x="41" y="546"/>
      <point x="48" y="527"/>
      <point x="63" y="519" type="curve"/>
    </contour>
  </outline>
</glyph>
<glyph name="semicolon" format="1">
  <advance width="171"/>
  <unicode hex="003B"/>
  <outline>
    <contour>
      <point x="53" y="128" type="line"/>
      <point x="53" y="127"/>
      <point x="54" y="127"/>
      <point x="54" y="126" type="curve"/>
      <point x="52" y="128"/>
      <point x="51" y="130"/>
      <point x="49" y="133" type="curve"/>
      <point x="58" y="121"/>
      <point x="66" y="109"/>
      <point x="73" y="96" type="curve"/>
      <point x="71" y="99"/>
      <point x="70" y="101"/>
      <point x="69" y="104" type="curve"/>
      <point x="73" y="95"/>
      <point x="76" y="86"/>
      <point x="78" y="76" type="curve"/>
      <point x="78" y="79"/>
      <point x="77" y="82"/>
      <point x="77" y="84" type="curve"/>
      <point x="78" y="77"/>
      <point x="78" y="70"/>
      <point x="78" y="62" type="curve"/>
      <point x="78" y="65"/>
      <point x="78" y="67"/>
      <point x="78" y="70" type="curve"/>
      <point x="78" y="63"/>
      <point x="76" y="56"/>
      <point x="74" y="50" type="curve"/>
      <point x="75" y="52"/>
      <point x="76" y="55"/>
      <point x="77" y="58" type="curve"/>
      <point x="74" y="49"/>
      <point x="70" y="42"/>
      <point x="65" y="34" type="curve"/>
      <point x="67" y="37"/>
      <point x="68" y="39"/>
      <point x="70" y="41" type="curve"/>
      <point x="63" y="32"/>
      <point x="55" y="24"/>
      <point x="47" y="16" type="curve" smooth="yes"/>
      <point x="41" y="11"/>
      <point x="38" y="1"/>
      <point x="39" y="-7" type="curve" smooth="yes"/>
      <point x="39" y="-15"/>
      <point x="43" y="-23"/>
      <point x="49" y="-28" type="curve" smooth="yes"/>
      <point x="55" y="-34"/>
      <point x="63" y="-37"/>
      <point x="72" y="-36" type="curve" smooth="yes"/>
      <point x="81" y="-36"/>
      <point x="87" y="-32"/>
      <point x="93" y="-26" type="curve" smooth="yes"/>
      <point x="107" y="-14"/>
      <point x="119" y="0"/>
      <point x="128" y="16" type="curve" smooth="yes"/>
      <point x="137" y="33"/>
      <point x="140" y="51"/>
      <point x="141" y="69" type="curve" smooth="yes"/>
      <point x="142" y="109"/>
      <point x="120" y="145"/>
      <point x="95" y="174" type="curve" smooth="yes"/>
      <point x="90" y="180"/>
      <point x="80" y="183"/>
      <point x="72" y="182" type="curve" smooth="yes"/>
      <point x="64" y="182"/>
      <point x="56" y="178"/>
      <point x="51" y="172" type="curve" smooth="yes"/>
      <point x="45" y="166"/>
      <point x="42" y="158"/>
      <point x="43" y="149" type="curve" smooth="yes"/>
      <point x="43" y="140"/>
      <point x="47" y="134"/>
      <point x="53" y="128" type="curve"/>
    </contour>
    <contour>
      <point x="44" y="557" type="line"/>
      <point x="54" y="534"/>
      <point x="66" y="512"/>
      <point x="79" y="490" type="curve" smooth="yes"/>
      <point x="88" y="475"/>
      <point x="109" y="471"/>
      <point x="123" y="480" type="curve" smooth="yes"/>
      <point x="138" y="490"/>
      <point x="141" y="509"/>
      <point x="133" y="524" type="curve" smooth="yes"/>
      <point x="123" y="540"/>
      <point x="114" y="555"/>
      <point x="106" y="572" type="curve"/>
      <point x="107" y="570"/>
      <point x="108" y="567"/>
      <point x="109" y="565" type="curve"/>
      <point x="107" y="569"/>
      <point x="106" y="573"/>
      <point x="104" y="577" type="curve" smooth="yes"/>
      <point x="98" y="592"/>
      <point x="82" y="603"/>
      <point x="64" y="597" type="curve" smooth="yes"/>
      <point x="49" y="592"/>
      <point x="38" y="573"/>
      <point x="44" y="557" type="curve"/>
    </contour>
  </outline>
</glyph>
<glyph name="less" format="1">
  <advance width="497"/>
  <unicode hex="003C"/>
  <outline>
    <contour>
      <point x="313" y="609" type="line"/>
      <point x="298" y="582"/>
      <point x="282" y="556"/>
      <point x="265" y="531" type="curve"/>
      <point x="266" y="533"/>
      <point x="268" y="536"/>
      <point x="269" y="538" type="curve"/>
      <point x="208" y="448"/>
      <point x="133" y="369"/>
      <point x="54" y="296" type="curve" smooth="yes"/>
      <point x="46" y="289"/>
      <point x="44" y="275"/>
      <point x="47" y="265" type="curve" smooth="yes"/>
      <point x="51" y="254"/>
      <point x="60" y="247"/>
      <point x="71" y="244" type="curve" smooth="yes"/>
      <point x="83" y="241"/>
      <point x="95" y="237"/>
      <point x="107" y="233" type="curve"/>
      <point x="105" y="233"/>
      <point x="102" y="234"/>
      <point x="100" y="235" type="curve"/>
      <point x="168" y="212"/>
      <point x="232" y="179"/>
      <point x="292" y="138" type="curve"/>
      <point x="289" y="140"/>
      <point x="287" y="141"/>
      <point x="285" y="143" type="curve"/>
      <point x="323" y="117"/>
      <point x="359" y="88"/>
      <point x="392" y="56" type="curve" smooth="yes"/>
      <point x="404" y="44"/>
      <point x="425" y="45"/>
      <point x="436" y="58" type="curve" smooth="yes"/>
      <point x="448" y="71"/>
      <point x="446" y="91"/>
      <point x="434" y="102" type="curve" smooth="yes"/>
      <point x="351" y="182"/>
      <point x="252" y="246"/>
      <point x="143" y="286" type="curve" smooth="yes"/>
      <point x="124" y="293"/>
      <point x="104" y="300"/>
      <point x="83" y="306" type="curve"/>
      <point x="89" y="289"/>
      <point x="95" y="271"/>
      <point x="100" y="254" type="curve"/>
      <point x="187" y="334"/>
      <point x="268" y="421"/>
      <point x="333" y="520" type="curve" smooth="yes"/>
      <point x="346" y="540"/>
      <point x="358" y="560"/>
      <point x="369" y="581" type="curve" smooth="yes"/>
      <point x="377" y="596"/>
      <point x="370" y="616"/>
      <point x="355" y="623" type="curve" smooth="yes"/>
      <point x="339" y="631"/>
      <point x="321" y="624"/>
      <point x="313" y="609" type="curve"/>
    </contour>
  </outline>
</glyph>
<glyph name="equal" format="1">
  <advance width="581"/>
  <unicode hex="003D"/>
  <outline>
    <contour>
      <point x="77" y="196" type="line"/>
      <point x="206" y="203"/>
      <point x="335" y="217"/>
      <point x="465" y="219" type="curve" smooth="yes"/>
      <point x="477" y="219"/>
      <point x="489" y="220"/>
      <point x="501" y="220" type="curve" smooth="yes"/>
      <point x="518" y="220"/>
      <point x="531" y="236"/>
      <point x="530" y="253" type="curve" smooth="yes"/>
      <point x="530" y="270"/>
      <point x="515" y="282"/>
      <point x="497" y="282" type="curve" smooth="yes"/>
      <point x="368" y="282"/>
      <point x="238" y="269"/>
      <point x="109" y="261" type="curve" smooth="yes"/>
      <point x="97" y="260"/>
      <point x="85" y="259"/>
      <point x="73" y="258" type="curve" smooth="yes"/>
      <point x="56" y="258"/>
      <point x="43" y="243"/>
      <point x="44" y="225" type="curve" smooth="yes"/>
      <point x="44" y="208"/>
      <point x="60" y="195"/>
      <point x="77" y="196" type="curve"/>
    </contour>
    <contour>
      <point x="97" y="392" type="line"/>
      <point x="226" y="396"/>
      <point x="355" y="400"/>
      <point x="485" y="404" type="curve" smooth="yes"/>
      <point x="502" y="404"/>
      <point x="515" y="420"/>
      <point x="514" y="437" type="curve" smooth="yes"/>
      <point x="514" y="454"/>
      <point x="499" y="467"/>
      <point x="481" y="466" type="curve" smooth="yes"/>
      <point x="352" y="463"/>
      <point x="223" y="458"/>
      <point x="93" y="454" type="curve" smooth="yes"/>
      <point x="76" y="454"/>
      <point x="63" y="438"/>
      <point x="64" y="421" type="curve" smooth="yes"/>
      <point x="64" y="404"/>
      <point x="79" y="391"/>
      <point x="97" y="392" type="curve"/>
    </contour>
  </outline>
</glyph>
<glyph name="greater" format="1">
  <advance width="500"/>
  <unicode hex="003E"/>
  <outline>
    <contour>
      <point x="64" y="588" type="line"/>
      <point x="142" y="500"/>
      <point x="233" y="424"/>
      <point x="332" y="361" type="curve" smooth="yes"/>
      <point x="358" y="344"/>
      <point x="384" y="329"/>
      <point x="411" y="315" type="curve"/>
      <point x="412" y="334"/>
      <point x="414" y="354"/>
      <point x="415" y="373" type="curve"/>
      <point x="313" y="330"/>
      <point x="220" y="263"/>
      <point x="148" y="178" type="curve" smooth="yes"/>
      <point x="126" y="153"/>
      <point x="106" y="125"/>
      <point x="89" y="97" type="curve" smooth="yes"/>
      <point x="80" y="83"/>
      <point x="89" y="62"/>
      <point x="103" y="55" type="curve" smooth="yes"/>
      <point x="110" y="51"/>
      <point x="119" y="51"/>
      <point x="127" y="53" type="curve" smooth="yes"/>
      <point x="135" y="56"/>
      <point x="141" y="61"/>
      <point x="145" y="69" type="curve" smooth="yes"/>
      <point x="150" y="77"/>
      <point x="155" y="84"/>
      <point x="160" y="92" type="curve"/>
      <point x="159" y="89"/>
      <point x="157" y="87"/>
      <point x="155" y="85" type="curve"/>
      <point x="188" y="133"/>
      <point x="228" y="176"/>
      <point x="272" y="213" type="curve"/>
      <point x="270" y="212"/>
      <point x="268" y="210"/>
      <point x="265" y="208" type="curve"/>
      <point x="312" y="247"/>
      <point x="363" y="280"/>
      <point x="417" y="306" type="curve"/>
      <point x="415" y="304"/>
      <point x="412" y="303"/>
      <point x="410" y="302" type="curve"/>
      <point x="418" y="306"/>
      <point x="426" y="310"/>
      <point x="435" y="313" type="curve" smooth="yes"/>
      <point x="445" y="317"/>
      <point x="453" y="325"/>
      <point x="456" y="337" type="curve" smooth="yes"/>
      <point x="459" y="351"/>
      <point x="452" y="365"/>
      <point x="439" y="371" type="curve" smooth="yes"/>
      <point x="400" y="392"/>
      <point x="362" y="415"/>
      <point x="325" y="440" type="curve"/>
      <point x="328" y="438"/>
      <point x="330" y="437"/>
      <point x="332" y="435" type="curve"/>
      <point x="249" y="492"/>
      <point x="173" y="559"/>
      <point x="106" y="634" type="curve" smooth="yes"/>
      <point x="101" y="640"/>
      <point x="91" y="643"/>
      <point x="83" y="642" type="curve" smooth="yes"/>
      <point x="75" y="642"/>
      <point x="67" y="638"/>
      <point x="62" y="632" type="curve" smooth="yes"/>
      <point x="56" y="626"/>
      <point x="53" y="618"/>
      <point x="54" y="609" type="curve" smooth="yes"/>
      <point x="54" y="600"/>
      <point x="58" y="594"/>
      <point x="64" y="588" type="curve"/>
    </contour>
  </outline>
</glyph>
<glyph name="question" format="1">
  <advance width="532"/>
  <unicode hex="003F"/>
  <outline>
    <contour>
      <point x="86" y="445" type="line"/>
      <point x="89" y="456"/>
      <point x="93" y="467"/>
      <point x="97" y="478" type="curve"/>
      <point x="96" y="476"/>
      <point x="95" y="473"/>
      <point x="94" y="471" type="curve"/>
      <point x="110" y="515"/>
      <point x="129" y="559"/>
      <point x="155" y="598" type="curve"/>
      <point x="154" y="595"/>
      <point x="152" y="593"/>
      <point x="151" y="591" type="curve"/>
      <point x="164" y="610"/>
      <point x="180" y="629"/>
      <point x="198" y="644" type="curve"/>
      <point x="196" y="642"/>
      <point x="194" y="641"/>
      <point x="191" y="639" type="curve"/>
      <point x="203" y="649"/>
      <point x="216" y="658"/>
      <point x="231" y="664" type="curve"/>
      <point x="228" y="663"/>
      <point x="226" y="662"/>
      <point x="223" y="661" type="curve"/>
      <point x="234" y="666"/>
      <point x="246" y="670"/>
      <point x="258" y="672" type="curve"/>
      <point x="256" y="672"/>
      <point x="253" y="671"/>
      <point x="250" y="671" type="curve"/>
      <point x="262" y="673"/>
      <point x="274" y="674"/>
      <point x="286" y="673" type="curve"/>
      <point x="283" y="673"/>
      <point x="280" y="673"/>
      <point x="278" y="673" type="curve"/>
      <point x="291" y="672"/>
      <point x="303" y="669"/>
      <point x="316" y="665" type="curve"/>
      <point x="313" y="666"/>
      <point x="311" y="667"/>
      <point x="308" y="668" type="curve"/>
      <point x="324" y="662"/>
      <point x="338" y="655"/>
      <point x="352" y="645" type="curve"/>
      <point x="350" y="647"/>
      <point x="347" y="649"/>
      <point x="345" y="650" type="curve"/>
      <point x="362" y="638"/>
      <point x="378" y="624"/>
      <point x="392" y="608" type="curve"/>
      <point x="390" y="610"/>
      <point x="388" y="612"/>
      <point x="386" y="614" type="curve"/>
      <point x="401" y="596"/>
      <point x="414" y="576"/>
      <point x="424" y="555" type="curve"/>
      <point x="423" y="557"/>
      <point x="422" y="560"/>
      <point x="421" y="562" type="curve"/>
      <point x="430" y="544"/>
      <point x="436" y="524"/>
      <point x="440" y="505" type="curve"/>
      <point x="439" y="507"/>
      <point x="439" y="510"/>
      <point x="438" y="513" type="curve"/>
      <point x="441" y="497"/>
      <point x="442" y="482"/>
      <point x="441" y="467" type="curve"/>
      <point x="441" y="469"/>
      <point x="441" y="472"/>
      <point x="442" y="475" type="curve"/>
      <point x="441" y="463"/>
      <point x="438" y="451"/>
      <point x="434" y="439" type="curve"/>
      <point x="435" y="442"/>
      <point x="436" y="444"/>
      <point x="437" y="447" type="curve"/>
      <point x="433" y="436"/>
      <point x="429" y="427"/>
      <point x="422" y="418" type="curve"/>
      <point x="424" y="420"/>
      <point x="426" y="422"/>
      <point x="427" y="425" type="curve"/>
      <point x="421" y="415"/>
      <point x="413" y="407"/>
      <point x="405" y="400" type="curve"/>
      <point x="407" y="402"/>
      <point x="409" y="404"/>
      <point x="411" y="406" type="curve"/>
      <point x="402" y="397"/>
      <point x="390" y="390"/>
      <point x="379" y="385" type="curve"/>
      <point x="381" y="386"/>
      <point x="383" y="387"/>
      <point x="386" y="388" type="curve"/>
      <point x="369" y="381"/>
      <point x="352" y="376"/>
      <point x="334" y="372" type="curve"/>
      <point x="337" y="373"/>
      <point x="339" y="373"/>
      <point x="342" y="374" type="curve"/>
      <point x="310" y="368"/>
      <point x="278" y="368"/>
      <point x="246" y="370" type="curve"/>
      <point x="248" y="370"/>
      <point x="251" y="370"/>
      <point x="254" y="370" type="curve"/>
      <point x="252" y="370"/>
      <point x="251" y="370"/>
      <point x="249" y="370" type="curve" smooth="yes"/>
      <point x="241" y="371"/>
      <point x="234" y="370"/>
      <point x="226" y="366" type="curve" smooth="yes"/>
      <point x="218" y="361"/>
      <point x="215" y="354"/>
      <point x="212" y="345" type="curve" smooth="yes"/>
      <point x="200" y="308"/>
      <point x="195" y="269"/>
      <point x="193" y="229" type="curve" smooth="yes"/>
      <point x="190" y="191"/>
      <point x="194" y="151"/>
      <point x="205" y="113" type="curve" smooth="yes"/>
      <point x="210" y="97"/>
      <point x="228" y="88"/>
      <point x="245" y="93" type="curve" smooth="yes"/>
      <point x="261" y="98"/>
      <point x="270" y="116"/>
      <point x="265" y="133" type="curve" smooth="yes"/>
      <point x="262" y="142"/>
      <point x="260" y="151"/>
      <point x="258" y="161" type="curve"/>
      <point x="259" y="158"/>
      <point x="259" y="155"/>
      <point x="260" y="153" type="curve"/>
      <point x="254" y="182"/>
      <point x="254" y="213"/>
      <point x="256" y="243" type="curve"/>
      <point x="256" y="240"/>
      <point x="256" y="237"/>
      <point x="255" y="235" type="curve"/>
      <point x="258" y="268"/>
      <point x="264" y="301"/>
      <point x="274" y="333" type="curve"/>
      <point x="261" y="324"/>
      <point x="249" y="316"/>
      <point x="237" y="308" type="curve"/>
      <point x="299" y="303"/>
      <point x="365" y="306"/>
      <point x="421" y="336" type="curve" smooth="yes"/>
      <point x="461" y="358"/>
      <point x="489" y="395"/>
      <point x="500" y="439" type="curve" smooth="yes"/>
      <point x="510" y="480"/>
      <point x="503" y="525"/>
      <point x="488" y="564" type="curve" smooth="yes"/>
      <point x="472" y="606"/>
      <point x="447" y="644"/>
      <point x="414" y="675" type="curve" smooth="yes"/>
      <point x="383" y="704"/>
      <point x="343" y="727"/>
      <point x="300" y="734" type="curve" smooth="yes"/>
      <point x="253" y="741"/>
      <point x="205" y="728"/>
      <point x="166" y="699" type="curve" smooth="yes"/>
      <point x="113" y="659"/>
      <point x="78" y="599"/>
      <point x="53" y="539" type="curve" smooth="yes"/>
      <point x="42" y="512"/>
      <point x="32" y="485"/>
      <point x="24" y="457" type="curve" smooth="yes"/>
      <point x="19" y="441"/>
      <point x="33" y="423"/>
      <point x="49" y="420" type="curve" smooth="yes"/>
      <point x="57" y="419"/>
      <point x="65" y="420"/>
      <point x="72" y="424" type="curve" smooth="yes"/>
      <point x="80" y="429"/>
      <point x="83" y="436"/>
      <point x="86" y="445" type="curve"/>
    </contour>
    <contour>
      <point x="194" y="4" type="line"/>
      <point x="198" y="-1"/>
      <point x="203" y="-5"/>
      <point x="207" y="-10" type="curve"/>
      <point x="205" y="-8"/>
      <point x="203" y="-5"/>
      <point x="201" y="-3" type="curve"/>
      <point x="204" y="-7"/>
      <point x="206" y="-10"/>
      <point x="208" y="-14" type="curve" smooth="yes"/>
      <point x="216" y="-29"/>
      <point x="238" y="-32"/>
      <point x="252" y="-24" type="curve" smooth="yes"/>
      <point x="259" y="-19"/>
      <point x="264" y="-12"/>
      <point x="266" y="-3" type="curve" smooth="yes"/>
      <point x="268" y="5"/>
      <point x="266" y="12"/>
      <point x="262" y="20" type="curve" smooth="yes"/>
      <point x="255" y="32"/>
      <point x="245" y="41"/>
      <point x="236" y="50" type="curve" smooth="yes"/>
      <point x="224" y="63"/>
      <point x="203" y="60"/>
      <point x="192" y="48" type="curve" smooth="yes"/>
      <point x="180" y="35"/>
      <point x="182" y="16"/>
      <point x="194" y="4" type="curve"/>
    </contour>
  </outline>
</glyph>
<glyph name="at" format="1">
  <advance width="655"/>
  <unicode hex="0040"/>
  <outline>
    <contour>
      <point x="418" y="452" type="line"/>
      <point x="387" y="462"/>
      <point x="354" y="469"/>
      <point x="321" y="467" type="curve" smooth="yes"/>
      <point x="296" y="466"/>
      <point x="269" y="459"/>
      <point x="249" y="444" type="curve" smooth="yes"/>
      <point x="213" y="417"/>
      <point x="195" y="373"/>
      <point x="201" y="329" type="curve" smooth="yes"/>
      <point x="203" y="308"/>
      <point x="210" y="288"/>
      <point x="221" y="271" type="curve" smooth="yes"/>
      <point x="227" y="263"/>
      <point x="234" y="255"/>
      <point x="241" y="249" type="curve" smooth="yes"/>
      <point x="252" y="240"/>
      <point x="262" y="236"/>
      <point x="274" y="232" type="curve" smooth="yes"/>
      <point x="294" y="225"/>
      <point x="318" y="228"/>
      <point x="336" y="236" type="curve" smooth="yes"/>
      <point x="364" y="249"/>
      <point x="387" y="268"/>
      <point x="406" y="292" type="curve" smooth="yes"/>
      <point x="416" y="304"/>
      <point x="426" y="317"/>
      <point x="434" y="331" type="curve" smooth="yes"/>
      <point x="439" y="337"/>
      <point x="443" y="343"/>
      <point x="447" y="350" type="curve" smooth="yes"/>
      <point x="449" y="354"/>
      <point x="451" y="357"/>
      <point x="453" y="361" type="curve" smooth="yes"/>
      <point x="454" y="363"/>
      <point x="455" y="365"/>
      <point x="456" y="367" type="curve" smooth="yes"/>
      <point x="459" y="373"/>
      <point x="459" y="379"/>
      <point x="459" y="386" type="curve" smooth="yes"/>
      <point x="459" y="403"/>
      <point x="443" y="416"/>
      <point x="426" y="415" type="curve" smooth="yes"/>
      <point x="409" y="415"/>
      <point x="397" y="400"/>
      <point x="397" y="382" type="curve" smooth="yes"/>
      <point x="397" y="381"/>
      <point x="397" y="380"/>
      <point x="397" y="379" type="curve"/>
      <point x="397" y="382"/>
      <point x="397" y="385"/>
      <point x="397" y="387" type="curve"/>
      <point x="393" y="359"/>
      <point x="392" y="330"/>
      <point x="397" y="302" type="curve" smooth="yes"/>
      <point x="399" y="292"/>
      <point x="403" y="282"/>
      <point x="408" y="273" type="curve" smooth="yes"/>
      <point x="413" y="263"/>
      <point x="422" y="256"/>
      <point x="431" y="250" type="curve" smooth="yes"/>
      <point x="446" y="240"/>
      <point x="467" y="240"/>
      <point x="484" y="245" type="curve" smooth="yes"/>
      <point x="503" y="251"/>
      <point x="519" y="263"/>
      <point x="533" y="276" type="curve" smooth="yes"/>
      <point x="549" y="290"/>
      <point x="561" y="306"/>
      <point x="573" y="323" type="curve" smooth="yes"/>
      <point x="584" y="340"/>
      <point x="593" y="358"/>
      <point x="600" y="377" type="curve" smooth="yes"/>
      <point x="617" y="421"/>
      <point x="624" y="471"/>
      <point x="608" y="516" type="curve" smooth="yes"/>
      <point x="599" y="541"/>
      <point x="584" y="563"/>
      <point x="564" y="581" type="curve" smooth="yes"/>
      <point x="541" y="602"/>
      <point x="512" y="616"/>
      <point x="482" y="626" type="curve" smooth="yes"/>
      <point x="444" y="638"/>
      <point x="404" y="643"/>
      <point x="365" y="645" type="curve" smooth="yes"/>
      <point x="319" y="646"/>
      <point x="274" y="633"/>
      <point x="233" y="613" type="curve" smooth="yes"/>
      <point x="193" y="593"/>
      <point x="156" y="563"/>
      <point x="126" y="530" type="curve" smooth="yes"/>
      <point x="94" y="494"/>
      <point x="70" y="453"/>
      <point x="54" y="407" type="curve" smooth="yes"/>
      <point x="24" y="320"/>
      <point x="43" y="216"/>
      <point x="117" y="156" type="curve" smooth="yes"/>
      <point x="154" y="125"/>
      <point x="200" y="107"/>
      <point x="247" y="98" type="curve" smooth="yes"/>
      <point x="291" y="90"/>
      <point x="337" y="88"/>
      <point x="382" y="95" type="curve" smooth="yes"/>
      <point x="388" y="96"/>
      <point x="395" y="98"/>
      <point x="402" y="99" type="curve" smooth="yes"/>
      <point x="409" y="101"/>
      <point x="417" y="108"/>
      <point x="420" y="115" type="curve" smooth="yes"/>
      <point x="424" y="122"/>
      <point x="424" y="131"/>
      <point x="422" y="139" type="curve" smooth="yes"/>
      <point x="419" y="147"/>
      <point x="414" y="153"/>
      <point x="406" y="157" type="curve" smooth="yes"/>
      <point x="398" y="161"/>
      <point x="391" y="161"/>
      <point x="382" y="159" type="curve" smooth="yes"/>
      <point x="380" y="159"/>
      <point x="379" y="158"/>
      <point x="377" y="158" type="curve"/>
      <point x="379" y="158"/>
      <point x="382" y="159"/>
      <point x="385" y="159" type="curve"/>
      <point x="355" y="154"/>
      <point x="324" y="153"/>
      <point x="293" y="155" type="curve"/>
      <point x="296" y="155"/>
      <point x="299" y="155"/>
      <point x="301" y="154" type="curve"/>
      <point x="272" y="157"/>
      <point x="243" y="162"/>
      <point x="215" y="172" type="curve"/>
      <point x="217" y="171"/>
      <point x="220" y="170"/>
      <point x="223" y="169" type="curve"/>
      <point x="202" y="176"/>
      <point x="183" y="186"/>
      <point x="165" y="198" type="curve"/>
      <point x="168" y="196"/>
      <point x="170" y="194"/>
      <point x="172" y="193" type="curve"/>
      <point x="159" y="202"/>
      <point x="146" y="213"/>
      <point x="135" y="226" type="curve"/>
      <point x="137" y="224"/>
      <point x="139" y="221"/>
      <point x="141" y="219" type="curve"/>
      <point x="131" y="231"/>
      <point x="123" y="244"/>
      <point x="117" y="258" type="curve"/>
      <point x="118" y="255"/>
      <point x="119" y="253"/>
      <point x="120" y="250" type="curve"/>
      <point x="113" y="265"/>
      <point x="108" y="281"/>
      <point x="105" y="298" type="curve"/>
      <point x="106" y="295"/>
      <point x="106" y="292"/>
      <point x="106" y="290" type="curve"/>
      <point x="103" y="307"/>
      <point x="103" y="325"/>
      <point x="104" y="342" type="curve"/>
      <point x="104" y="340"/>
      <point x="104" y="337"/>
      <point x="103" y="334" type="curve"/>
      <point x="105" y="355"/>
      <point x="110" y="376"/>
      <point x="116" y="396" type="curve"/>
      <point x="116" y="393"/>
      <point x="115" y="391"/>
      <point x="114" y="388" type="curve"/>
      <point x="123" y="414"/>
      <point x="135" y="437"/>
      <point x="150" y="460" type="curve"/>
      <point x="149" y="457"/>
      <point x="147" y="455"/>
      <point x="145" y="453" type="curve"/>
      <point x="163" y="478"/>
      <point x="184" y="501"/>
      <point x="207" y="521" type="curve"/>
      <point x="205" y="519"/>
      <point x="203" y="518"/>
      <point x="201" y="516" type="curve"/>
      <point x="223" y="534"/>
      <point x="246" y="550"/>
      <point x="272" y="562" type="curve"/>
      <point x="270" y="561"/>
      <point x="267" y="560"/>
      <point x="265" y="559" type="curve"/>
      <point x="285" y="568"/>
      <point x="307" y="575"/>
      <point x="329" y="580" type="curve"/>
      <point x="327" y="579"/>
      <point x="324" y="579"/>
      <point x="321" y="578" type="curve"/>
      <point x="342" y="582"/>
      <point x="363" y="582"/>
      <point x="384" y="581" type="curve"/>
      <point x="381" y="581"/>
      <point x="379" y="581"/>
      <point x="376" y="581" type="curve"/>
      <point x="408" y="579"/>
      <point x="441" y="574"/>
      <point x="472" y="563" type="curve"/>
      <point x="469" y="564"/>
      <point x="467" y="565"/>
      <point x="464" y="566" type="curve"/>
      <point x="481" y="560"/>
      <point x="498" y="552"/>
      <point x="513" y="542" type="curve"/>
      <point x="511" y="543"/>
      <point x="508" y="545"/>
      <point x="506" y="547" type="curve"/>
      <point x="517" y="539"/>
      <point x="526" y="531"/>
      <point x="535" y="521" type="curve"/>
      <point x="533" y="523"/>
      <point x="531" y="525"/>
      <point x="529" y="527" type="curve"/>
      <point x="536" y="519"/>
      <point x="542" y="510"/>
      <point x="547" y="500" type="curve"/>
      <point x="546" y="503"/>
      <point x="544" y="505"/>
      <point x="543" y="508" type="curve"/>
      <point x="548" y="498"/>
      <point x="551" y="487"/>
      <point x="553" y="476" type="curve"/>
      <point x="553" y="479"/>
      <point x="552" y="482"/>
      <point x="552" y="484" type="curve"/>
      <point x="554" y="472"/>
      <point x="555" y="459"/>
      <point x="554" y="446" type="curve"/>
      <point x="554" y="449"/>
      <point x="554" y="451"/>
      <point x="554" y="454" type="curve"/>
      <point x="553" y="436"/>
      <point x="549" y="419"/>
      <point x="543" y="403" type="curve"/>
      <point x="544" y="405"/>
      <point x="545" y="408"/>
      <point x="546" y="411" type="curve"/>
      <point x="539" y="389"/>
      <point x="528" y="369"/>
      <point x="516" y="351" type="curve"/>
      <point x="517" y="353"/>
      <point x="519" y="355"/>
      <point x="520" y="358" type="curve"/>
      <point x="510" y="342"/>
      <point x="498" y="328"/>
      <point x="484" y="316" type="curve"/>
      <point x="486" y="318"/>
      <point x="488" y="320"/>
      <point x="491" y="322" type="curve"/>
      <point x="483" y="315"/>
      <point x="475" y="310"/>
      <point x="466" y="305" type="curve"/>
      <point x="469" y="307"/>
      <point x="471" y="308"/>
      <point x="474" y="309" type="curve"/>
      <point x="469" y="307"/>
      <point x="464" y="305"/>
      <point x="459" y="304" type="curve"/>
      <point x="462" y="305"/>
      <point x="464" y="305"/>
      <point x="467" y="306" type="curve"/>
      <point x="464" y="305"/>
      <point x="460" y="305"/>
      <point x="457" y="305" type="curve"/>
      <point x="460" y="305"/>
      <point x="462" y="305"/>
      <point x="465" y="304" type="curve"/>
      <point x="463" y="305"/>
      <point x="460" y="305"/>
      <point x="458" y="306" type="curve"/>
      <point x="460" y="305"/>
      <point x="463" y="304"/>
      <point x="466" y="303" type="curve"/>
      <point x="463" y="304"/>
      <point x="461" y="305"/>
      <point x="459" y="306" type="curve"/>
      <point x="461" y="305"/>
      <point x="464" y="303"/>
      <point x="466" y="302" type="curve"/>
      <point x="464" y="303"/>
      <point x="462" y="305"/>
      <point x="460" y="307" type="curve"/>
      <point x="462" y="305"/>
      <point x="464" y="303"/>
      <point x="465" y="301" type="curve"/>
      <point x="463" y="304"/>
      <point x="461" y="307"/>
      <point x="459" y="311" type="curve"/>
      <point x="461" y="308"/>
      <point x="462" y="306"/>
      <point x="463" y="303" type="curve"/>
      <point x="460" y="309"/>
      <point x="458" y="315"/>
      <point x="457" y="322" type="curve"/>
      <point x="458" y="319"/>
      <point x="458" y="316"/>
      <point x="459" y="314" type="curve"/>
      <point x="456" y="330"/>
      <point x="456" y="346"/>
      <point x="457" y="362" type="curve"/>
      <point x="457" y="359"/>
      <point x="457" y="356"/>
      <point x="457" y="354" type="curve"/>
      <point x="457" y="364"/>
      <point x="459" y="375"/>
      <point x="459" y="386" type="curve" smooth="yes"/>
      <point x="459" y="403"/>
      <point x="443" y="416"/>
      <point x="426" y="415" type="curve" smooth="yes"/>
      <point x="409" y="415"/>
      <point x="397" y="400"/>
      <point x="397" y="382" type="curve" smooth="yes"/>
      <point x="397" y="381"/>
      <point x="397" y="380"/>
      <point x="397" y="379" type="curve"/>
      <point x="398" y="385"/>
      <point x="399" y="390"/>
      <point x="400" y="395" type="curve"/>
      <point x="392" y="380"/>
      <point x="383" y="366"/>
      <point x="374" y="352" type="curve"/>
      <point x="375" y="355"/>
      <point x="377" y="357"/>
      <point x="378" y="359" type="curve"/>
      <point x="365" y="340"/>
      <point x="350" y="322"/>
      <point x="333" y="306" type="curve"/>
      <point x="335" y="308"/>
      <point x="337" y="310"/>
      <point x="339" y="312" type="curve"/>
      <point x="331" y="305"/>
      <point x="321" y="298"/>
      <point x="311" y="294" type="curve"/>
      <point x="314" y="295"/>
      <point x="316" y="296"/>
      <point x="319" y="297" type="curve"/>
      <point x="313" y="294"/>
      <point x="306" y="292"/>
      <point x="299" y="291" type="curve"/>
      <point x="302" y="291"/>
      <point x="305" y="292"/>
      <point x="307" y="292" type="curve"/>
      <point x="302" y="291"/>
      <point x="297" y="291"/>
      <point x="292" y="291" type="curve"/>
      <point x="294" y="291"/>
      <point x="297" y="291"/>
      <point x="300" y="291" type="curve"/>
      <point x="295" y="291"/>
      <point x="290" y="292"/>
      <point x="286" y="294" type="curve"/>
      <point x="288" y="293"/>
      <point x="291" y="292"/>
      <point x="293" y="291" type="curve"/>
      <point x="289" y="293"/>
      <point x="284" y="295"/>
      <point x="280" y="298" type="curve"/>
      <point x="282" y="296"/>
      <point x="285" y="295"/>
      <point x="287" y="293" type="curve"/>
      <point x="282" y="296"/>
      <point x="278" y="301"/>
      <point x="274" y="305" type="curve"/>
      <point x="275" y="303"/>
      <point x="277" y="301"/>
      <point x="279" y="299" type="curve"/>
      <point x="274" y="304"/>
      <point x="270" y="311"/>
      <point x="267" y="317" type="curve"/>
      <point x="268" y="315"/>
      <point x="270" y="312"/>
      <point x="271" y="310" type="curve"/>
      <point x="267" y="318"/>
      <point x="264" y="326"/>
      <point x="263" y="335" type="curve"/>
      <point x="263" y="332"/>
      <point x="264" y="329"/>
      <point x="264" y="327" type="curve"/>
      <point x="263" y="336"/>
      <point x="262" y="345"/>
      <point x="263" y="354" type="curve"/>
      <point x="263" y="351"/>
      <point x="262" y="349"/>
      <point x="262" y="346" type="curve"/>
      <point x="263" y="354"/>
      <point x="264" y="363"/>
      <point x="267" y="370" type="curve"/>
      <point x="266" y="368"/>
      <point x="265" y="365"/>
      <point x="265" y="363" type="curve"/>
      <point x="267" y="370"/>
      <point x="271" y="377"/>
      <point x="275" y="383" type="curve"/>
      <point x="273" y="381"/>
      <point x="272" y="379"/>
      <point x="270" y="376" type="curve"/>
      <point x="274" y="382"/>
      <point x="279" y="388"/>
      <point x="284" y="392" type="curve"/>
      <point x="282" y="391"/>
      <point x="280" y="389"/>
      <point x="278" y="387" type="curve"/>
      <point x="284" y="392"/>
      <point x="290" y="396"/>
      <point x="297" y="399" type="curve"/>
      <point x="295" y="398"/>
      <point x="292" y="397"/>
      <point x="290" y="396" type="curve"/>
      <point x="298" y="400"/>
      <point x="307" y="402"/>
      <point x="316" y="404" type="curve"/>
      <point x="313" y="403"/>
      <point x="311" y="403"/>
      <point x="308" y="402" type="curve"/>
      <point x="321" y="405"/>
      <point x="334" y="405"/>
      <point x="347" y="404" type="curve"/>
      <point x="344" y="404"/>
      <point x="341" y="405"/>
      <point x="339" y="405" type="curve"/>
      <point x="362" y="403"/>
      <point x="384" y="397"/>
      <point x="406" y="390" type="curve" smooth="yes"/>
      <point x="413" y="388"/>
      <point x="423" y="390"/>
      <point x="429" y="394" type="curve" smooth="yes"/>
      <point x="436" y="399"/>
      <point x="441" y="406"/>
      <point x="443" y="415" type="curve" smooth="yes"/>
      <point x="444" y="423"/>
      <point x="443" y="431"/>
      <point x="439" y="438" type="curve" smooth="yes"/>
      <point x="434" y="446"/>
      <point x="427" y="449"/>
      <point x="418" y="452" type="curve"/>
    </contour>
  </outline>
</glyph>
<glyph name="A" format="1">
  <advance width="709"/>
  <unicode hex="0041"/>
  <outline>
    <contour>
      <point x="296" y="534" type="curve" smooth="yes"/>
      <point x="308" y="578"/>
      <point x="320" y="622"/>
      <point x="335" y="665" type="curve"/>
      <point x="335" y="665" type="line"/>
      <point x="334" y="661" type="line"/>
      <point x="334" y="662"/>
      <point x="335" y="663"/>
      <point x="335" y="664" type="curve"/>
      <point x="335" y="665" type="line"/>
      <point x="335" y="663"/>
      <point x="335" y="664"/>
      <point x="336" y="666" type="curve"/>
      <point x="336" y="666"/>
      <point x="336" y="665"/>
      <point x="335" y="664" type="curve"/>
      <point x="369" y="573"/>
      <point x="400" y="480"/>
      <point x="434" y="388" type="curve" smooth="yes"/>
      <point x="448" y="349"/>
      <point x="463" y="310"/>
      <point x="479" y="271" type="curve"/>
      <point x="435" y="274"/>
      <point x="390" y="272"/>
      <point x="345" y="269" type="curve" smooth="yes"/>
      <point x="302" y="265"/>
      <point x="259" y="260"/>
      <point x="216" y="257" type="curve"/>
      <point x="247" y="348"/>
      <point x="270" y="441"/>
    </contour>
    <contour>
      <point x="669" y="-22" type="curve" smooth="yes"/>
      <point x="683" y="-12"/>
      <point x="688" y="8"/>
      <point x="679" y="22" type="curve" smooth="yes"/>
      <point x="640" y="81"/>
      <point x="606" y="143"/>
      <point x="576" y="207" type="curve"/>
      <point x="576" y="206"/>
      <point x="576" y="206"/>
      <point x="577" y="205" type="curve"/>
      <point x="578" y="202" type="line"/>
      <point x="578" y="203"/>
      <point x="577" y="204"/>
      <point x="577" y="205" type="curve"/>
      <point x="527" y="310"/>
      <point x="487" y="423"/>
      <point x="448" y="535" type="curve" smooth="yes"/>
      <point x="423" y="606"/>
      <point x="399" y="677"/>
      <point x="372" y="747" type="curve" smooth="yes"/>
      <point x="369" y="756"/>
      <point x="362" y="763"/>
      <point x="353" y="766" type="curve"/>
      <point x="351" y="768"/>
      <point x="349" y="770"/>
      <point x="346" y="771" type="curve" smooth="yes"/>
      <point x="331" y="779"/>
      <point x="311" y="773"/>
      <point x="304" y="757" type="curve"/>
      <point x="266" y="671"/>
      <point x="243" y="580"/>
      <point x="219" y="489" type="curve" smooth="yes"/>
      <point x="199" y="418"/>
      <point x="180" y="346"/>
      <point x="156" y="276" type="curve"/>
      <point x="157" y="278"/>
      <point x="158" y="281"/>
      <point x="159" y="283" type="curve"/>
      <point x="135" y="215"/>
      <point x="106" y="147"/>
      <point x="65" y="87" type="curve"/>
      <point x="54" y="72"/>
      <point x="43" y="58"/>
      <point x="31" y="44" type="curve" smooth="yes"/>
      <point x="19" y="31"/>
      <point x="20" y="11"/>
      <point x="33" y="0" type="curve" smooth="yes"/>
      <point x="46" y="-12"/>
      <point x="66" y="-11"/>
      <point x="77" y="2" type="curve" smooth="yes"/>
      <point x="128" y="57"/>
      <point x="164" y="124"/>
      <point x="192" y="194" type="curve"/>
      <point x="287" y="195"/>
      <point x="381" y="215"/>
      <point x="477" y="208" type="curve"/>
      <point x="477" y="208"/>
      <point x="477" y="208"/>
      <point x="477" y="208" type="curve"/>
      <point x="483" y="207"/>
      <point x="490" y="207"/>
      <point x="496" y="206" type="curve" smooth="yes"/>
      <point x="500" y="206"/>
      <point x="504" y="206"/>
      <point x="507" y="206" type="curve"/>
      <point x="530" y="155"/>
      <point x="555" y="105"/>
      <point x="583" y="57" type="curve" smooth="yes"/>
      <point x="596" y="34"/>
      <point x="611" y="11"/>
      <point x="625" y="-12" type="curve" smooth="yes"/>
      <point x="635" y="-26"/>
      <point x="654" y="-31"/>
    </contour>
    <contour>
      <point x="70" y="94" type="curve"/>
      <point x="67" y="90" type="line"/>
      <point x="68" y="92"/>
      <point x="69" y="93"/>
    </contour>
  </outline>
</glyph>
<glyph name="B" format="1">
  <advance width="526"/>
  <unicode hex="0042"/>
  <outline>
    <contour>
      <point x="126" y="744" type="curve" smooth="yes"/>
      <point x="120" y="524"/>
      <point x="109" y="305"/>
      <point x="106" y="85" type="curve"/>
      <point x="106" y="56"/>
      <point x="106" y="26"/>
      <point x="106" y="-3" type="curve" smooth="yes"/>
      <point x="106" y="-16"/>
      <point x="95" y="-27"/>
      <point x="82" y="-27" type="curve" smooth="yes"/>
      <point x="69" y="-27"/>
      <point x="58" y="-16"/>
      <point x="58" y="-3" type="curve" smooth="yes"/>
      <point x="58" y="26"/>
      <point x="58" y="56"/>
      <point x="58" y="85" type="curve" smooth="yes"/>
      <point x="61" y="305"/>
      <point x="72" y="526"/>
      <point x="78" y="746" type="curve" smooth="yes"/>
      <point x="78" y="759"/>
      <point x="90" y="769"/>
      <point x="103" y="769" type="curve" smooth="yes"/>
      <point x="116" y="769"/>
      <point x="126" y="757"/>
    </contour>
    <contour>
      <point x="23" y="769" type="curve" smooth="yes"/>
      <point x="154" y="762"/>
      <point x="346" y="792"/>
      <point x="409" y="645" type="curve" smooth="yes"/>
      <point x="477" y="489"/>
      <point x="330" y="396"/>
      <point x="194" y="379" type="curve" smooth="yes"/>
      <point x="162" y="375"/>
      <point x="129" y="380"/>
      <point x="97" y="375" type="curve" smooth="yes"/>
      <point x="84" y="373"/>
      <point x="71" y="383"/>
      <point x="69" y="395" type="curve" smooth="yes"/>
      <point x="67" y="408"/>
      <point x="77" y="421"/>
      <point x="89" y="423" type="curve" smooth="yes"/>
      <point x="123" y="428"/>
      <point x="156" y="423"/>
      <point x="188" y="427" type="curve" smooth="yes"/>
      <point x="284" y="438"/>
      <point x="421" y="499"/>
      <point x="365" y="625" type="curve" smooth="yes"/>
      <point x="308" y="756"/>
      <point x="130" y="716"/>
      <point x="21" y="721" type="curve" smooth="yes"/>
      <point x="8" y="722"/>
      <point x="-3" y="733"/>
      <point x="-2" y="746" type="curve" smooth="yes"/>
      <point x="-1" y="759"/>
      <point x="10" y="770"/>
    </contour>
    <contour>
      <point x="87" y="421" type="curve" smooth="yes"/>
      <point x="285" y="458"/>
      <point x="596" y="361"/>
      <point x="495" y="117" type="curve" smooth="yes"/>
      <point x="444" y="-5"/>
      <point x="280" y="-30"/>
      <point x="153" y="-29" type="curve" smooth="yes"/>
      <point x="106" y="-29"/>
      <point x="60" y="-24"/>
      <point x="16" y="-13" type="curve" smooth="yes"/>
      <point x="3" y="-10"/>
      <point x="-5" y="3"/>
      <point x="-2" y="15" type="curve" smooth="yes"/>
      <point x="1" y="28"/>
      <point x="14" y="36"/>
      <point x="26" y="33" type="curve" smooth="yes"/>
      <point x="68" y="24"/>
      <point x="110" y="19"/>
      <point x="153" y="19" type="curve" smooth="yes"/>
      <point x="260" y="18"/>
      <point x="406" y="29"/>
      <point x="451" y="135" type="curve" smooth="yes"/>
      <point x="540" y="351"/>
      <point x="229" y="398"/>
      <point x="95" y="373" type="curve" smooth="yes"/>
      <point x="83" y="371"/>
      <point x="70" y="380"/>
      <point x="67" y="393" type="curve" smooth="yes"/>
      <point x="65" y="405"/>
      <point x="74" y="418"/>
    </contour>
  </outline>
</glyph>
<glyph name="C" format="1">
  <advance width="613"/>
  <unicode hex="0043"/>
  <outline>
    <contour>
      <point x="576" y="621" type="line"/>
      <point x="543" y="667"/>
      <point x="505" y="709"/>
      <point x="458" y="739" type="curve" smooth="yes"/>
      <point x="421" y="762"/>
      <point x="378" y="775"/>
      <point x="335" y="776" type="curve" smooth="yes"/>
      <point x="251" y="777"/>
      <point x="176" y="724"/>
      <point x="127" y="660" type="curve" smooth="yes"/>
      <point x="70" y="584"/>
      <point x="40" y="493"/>
      <point x="28" y="401" type="curve" smooth="yes"/>
      <point x="17" y="323"/>
      <point x="17" y="242"/>
      <point x="40" y="167" type="curve" smooth="yes"/>
      <point x="50" y="134"/>
      <point x="66" y="101"/>
      <point x="89" y="74" type="curve" smooth="yes"/>
      <point x="113" y="44"/>
      <point x="143" y="21"/>
      <point x="179" y="6" type="curve" smooth="yes"/>
      <point x="221" y="-11"/>
      <point x="266" y="-17"/>
      <point x="312" y="-15" type="curve" smooth="yes"/>
      <point x="362" y="-14"/>
      <point x="412" y="-4"/>
      <point x="457" y="20" type="curve" smooth="yes"/>
      <point x="503" y="44"/>
      <point x="537" y="85"/>
      <point x="565" y="128" type="curve" smooth="yes"/>
      <point x="574" y="142"/>
      <point x="565" y="163"/>
      <point x="551" y="170" type="curve" smooth="yes"/>
      <point x="544" y="174"/>
      <point x="535" y="174"/>
      <point x="527" y="172" type="curve" smooth="yes"/>
      <point x="519" y="169"/>
      <point x="514" y="164"/>
      <point x="509" y="156" type="curve" smooth="yes"/>
      <point x="507" y="153"/>
      <point x="504" y="149"/>
      <point x="502" y="146" type="curve"/>
      <point x="504" y="148"/>
      <point x="505" y="151"/>
      <point x="507" y="153" type="curve"/>
      <point x="492" y="131"/>
      <point x="475" y="111"/>
      <point x="455" y="93" type="curve"/>
      <point x="457" y="95"/>
      <point x="459" y="97"/>
      <point x="461" y="99" type="curve"/>
      <point x="446" y="86"/>
      <point x="430" y="76"/>
      <point x="412" y="67" type="curve"/>
      <point x="415" y="68"/>
      <point x="417" y="69"/>
      <point x="419" y="71" type="curve"/>
      <point x="400" y="62"/>
      <point x="380" y="56"/>
      <point x="360" y="52" type="curve"/>
      <point x="362" y="53"/>
      <point x="365" y="53"/>
      <point x="368" y="54" type="curve"/>
      <point x="336" y="48"/>
      <point x="302" y="46"/>
      <point x="269" y="48" type="curve"/>
      <point x="272" y="48"/>
      <point x="275" y="48"/>
      <point x="278" y="48" type="curve"/>
      <point x="255" y="49"/>
      <point x="232" y="53"/>
      <point x="211" y="61" type="curve"/>
      <point x="213" y="60"/>
      <point x="216" y="59"/>
      <point x="219" y="58" type="curve"/>
      <point x="201" y="64"/>
      <point x="185" y="72"/>
      <point x="170" y="82" type="curve"/>
      <point x="172" y="81"/>
      <point x="174" y="79"/>
      <point x="177" y="78" type="curve"/>
      <point x="162" y="88"/>
      <point x="149" y="99"/>
      <point x="138" y="113" type="curve"/>
      <point x="139" y="111"/>
      <point x="141" y="108"/>
      <point x="143" y="106" type="curve"/>
      <point x="130" y="122"/>
      <point x="119" y="139"/>
      <point x="111" y="157" type="curve"/>
      <point x="112" y="155"/>
      <point x="113" y="152"/>
      <point x="114" y="150" type="curve"/>
      <point x="102" y="175"/>
      <point x="95" y="201"/>
      <point x="90" y="228" type="curve"/>
      <point x="90" y="226"/>
      <point x="91" y="223"/>
      <point x="91" y="220" type="curve"/>
      <point x="83" y="264"/>
      <point x="82" y="309"/>
      <point x="86" y="353" type="curve"/>
      <point x="85" y="351"/>
      <point x="85" y="348"/>
      <point x="85" y="345" type="curve"/>
      <point x="89" y="401"/>
      <point x="99" y="457"/>
      <point x="117" y="510" type="curve"/>
      <point x="116" y="507"/>
      <point x="115" y="504"/>
      <point x="114" y="502" type="curve"/>
      <point x="128" y="540"/>
      <point x="145" y="577"/>
      <point x="168" y="610" type="curve"/>
      <point x="154.666666667" y="596.666666667"/>
      <point x="194.941176471" y="646.647058824"/>
      <point x="222" y="669" type="curve"/>
      <point x="220" y="667"/>
      <point x="217" y="665"/>
      <point x="215" y="663" type="curve"/>
      <point x="268.136083052" y="709.884779163"/>
      <point x="292.627202189" y="716.824853187"/>
      <point x="350" y="713" type="curve"/>
      <point x="347" y="713"/>
      <point x="345" y="713"/>
      <point x="342" y="713" type="curve"/>
      <point x="378.122204744" y="710.742362203"/>
      <point x="401.097170063" y="701.2312429"/>
      <point x="437" y="678" type="curve"/>
      <point x="435" y="679"/>
      <point x="432" y="681"/>
      <point x="430" y="682" type="curve"/>
      <point x="474" y="652"/>
      <point x="497.650191794" y="624.877479431"/>
      <point x="522" y="587" type="curve" smooth="yes"/>
      <point x="532" y="573"/>
      <point x="551" y="568"/>
      <point x="566" y="577" type="curve" smooth="yes"/>
      <point x="580" y="586"/>
      <point x="585" y="607"/>
      <point x="576" y="621" type="curve"/>
    </contour>
  </outline>
</glyph>
<glyph name="D" format="1">
  <advance width="650"/>
  <unicode hex="0044"/>
  <outline>
    <contour>
      <point x="109" y="711" type="line"/>
      <point x="109" y="683"/>
      <point x="108" y="655"/>
      <point x="106" y="626" type="curve" smooth="yes"/>
      <point x="106" y="612"/>
      <point x="105" y="597"/>
      <point x="104" y="583" type="curve" smooth="yes"/>
      <point x="103" y="581"/>
      <point x="103" y="579"/>
      <point x="103" y="578" type="curve" smooth="yes"/>
      <point x="103" y="571"/>
      <point x="104" y="584"/>
      <point x="103" y="578" type="curve" smooth="yes"/>
      <point x="103" y="574"/>
      <point x="103" y="571"/>
      <point x="102" y="567" type="curve" smooth="yes"/>
      <point x="102" y="560"/>
      <point x="101" y="552"/>
      <point x="100" y="545" type="curve" smooth="yes"/>
      <point x="95" y="483"/>
      <point x="89" y="422"/>
      <point x="85" y="360" type="curve" smooth="yes"/>
      <point x="77" y="249"/>
      <point x="74" y="135"/>
      <point x="99" y="25" type="curve" smooth="yes"/>
      <point x="103" y="10"/>
      <point x="121" y="2"/>
      <point x="135" y="7" type="curve" smooth="yes"/>
      <point x="151" y="12"/>
      <point x="158" y="28"/>
      <point x="154" y="43" type="curve" smooth="yes"/>
      <point x="153" y="49"/>
      <point x="151" y="56"/>
      <point x="150" y="62" type="curve" smooth="yes"/>
      <point x="150" y="64"/>
      <point x="149" y="66"/>
      <point x="149" y="67" type="curve" smooth="yes"/>
      <point x="148" y="73"/>
      <point x="150" y="61"/>
      <point x="149" y="67" type="curve" smooth="yes"/>
      <point x="149" y="70"/>
      <point x="148" y="74"/>
      <point x="147" y="78" type="curve" smooth="yes"/>
      <point x="145" y="92"/>
      <point x="143" y="106"/>
      <point x="142" y="120" type="curve" smooth="yes"/>
      <point x="139" y="148"/>
      <point x="138" y="177"/>
      <point x="137" y="206" type="curve" smooth="yes"/>
      <point x="137" y="235"/>
      <point x="137" y="264"/>
      <point x="138" y="294" type="curve" smooth="yes"/>
      <point x="139" y="309"/>
      <point x="140" y="323"/>
      <point x="141" y="338" type="curve" smooth="yes"/>
      <point x="141" y="345"/>
      <point x="142" y="353"/>
      <point x="142" y="360" type="curve" smooth="yes"/>
      <point x="142" y="363"/>
      <point x="143" y="367"/>
      <point x="143" y="370" type="curve" smooth="yes"/>
      <point x="143" y="377"/>
      <point x="143" y="364"/>
      <point x="143" y="370" type="curve" smooth="yes"/>
      <point x="143" y="373"/>
      <point x="143" y="375"/>
      <point x="144" y="377" type="curve" smooth="yes"/>
      <point x="152" y="490"/>
      <point x="166" y="602"/>
      <point x="167" y="714" type="curve" smooth="yes"/>
      <point x="167" y="730"/>
      <point x="151" y="742"/>
      <point x="136" y="742" type="curve" smooth="yes"/>
      <point x="120" y="741"/>
      <point x="109" y="727"/>
      <point x="109" y="711" type="curve"/>
    </contour>
    <contour>
      <point x="66" y="693" type="line"/>
      <point x="82" y="698"/>
      <point x="98" y="703"/>
      <point x="114" y="707" type="curve" smooth="yes"/>
      <point x="122" y="709"/>
      <point x="130" y="711"/>
      <point x="138" y="713" type="curve" smooth="yes"/>
      <point x="141" y="714"/>
      <point x="145" y="714"/>
      <point x="149" y="715" type="curve" smooth="yes"/>
      <point x="153" y="716"/>
      <point x="141" y="714"/>
      <point x="145" y="714" type="curve" smooth="yes"/>
      <point x="146" y="715"/>
      <point x="147" y="715"/>
      <point x="148" y="715" type="curve" smooth="yes"/>
      <point x="150" y="715"/>
      <point x="152" y="716"/>
      <point x="154" y="716" type="curve" smooth="yes"/>
      <point x="183" y="720"/>
      <point x="212" y="722"/>
      <point x="240" y="721" type="curve" smooth="yes"/>
      <point x="244" y="721"/>
      <point x="247" y="721"/>
      <point x="250" y="721" type="curve" smooth="yes"/>
      <point x="256" y="720"/>
      <point x="241" y="721"/>
      <point x="248" y="721" type="curve" smooth="yes"/>
      <point x="250" y="721"/>
      <point x="252" y="720"/>
      <point x="254" y="720" type="curve" smooth="yes"/>
      <point x="261" y="720"/>
      <point x="267" y="719"/>
      <point x="274" y="718" type="curve" smooth="yes"/>
      <point x="286" y="716"/>
      <point x="299" y="713"/>
      <point x="311" y="710" type="curve" smooth="yes"/>
      <point x="317" y="708"/>
      <point x="323" y="707"/>
      <point x="329" y="705" type="curve" smooth="yes"/>
      <point x="330" y="704"/>
      <point x="332" y="704"/>
      <point x="333" y="703" type="curve" smooth="yes"/>
      <point x="337" y="702"/>
      <point x="325" y="706"/>
      <point x="329" y="705" type="curve" smooth="yes"/>
      <point x="330" y="705"/>
      <point x="330" y="704"/>
      <point x="331" y="704" type="curve" smooth="yes"/>
      <point x="334" y="703"/>
      <point x="337" y="702"/>
      <point x="340" y="701" type="curve" smooth="yes"/>
      <point x="351" y="696"/>
      <point x="362" y="691"/>
      <point x="373" y="686" type="curve" smooth="yes"/>
      <point x="385" y="680"/>
      <point x="396" y="673"/>
      <point x="407" y="665" type="curve"/>
      <point x="405" y="667"/>
      <point x="403" y="668"/>
      <point x="400" y="670" type="curve"/>
      <point x="426" y="652"/>
      <point x="449" y="631"/>
      <point x="470" y="607" type="curve"/>
      <point x="468" y="609"/>
      <point x="466" y="611"/>
      <point x="465" y="613" type="curve"/>
      <point x="480" y="595"/>
      <point x="493" y="576"/>
      <point x="505" y="556" type="curve" smooth="yes"/>
      <point x="511" y="546"/>
      <point x="516" y="536"/>
      <point x="521" y="525" type="curve"/>
      <point x="515" y="537"/>
      <point x="520" y="527"/>
      <point x="521" y="524" type="curve" smooth="yes"/>
      <point x="523" y="521"/>
      <point x="524" y="518"/>
      <point x="525" y="515" type="curve" smooth="yes"/>
      <point x="527" y="510"/>
      <point x="529" y="505"/>
      <point x="532" y="499" type="curve" smooth="yes"/>
      <point x="540" y="477"/>
      <point x="546" y="455"/>
      <point x="551" y="432" type="curve" smooth="yes"/>
      <point x="551" y="431"/>
      <point x="551" y="429"/>
      <point x="551" y="428" type="curve" smooth="yes"/>
      <point x="552" y="427"/>
      <point x="552" y="426"/>
      <point x="552" y="426" type="curve" smooth="yes"/>
      <point x="553" y="422"/>
      <point x="550" y="434"/>
      <point x="551" y="430" type="curve" smooth="yes"/>
      <point x="552" y="427"/>
      <point x="552" y="424"/>
      <point x="553" y="421" type="curve" smooth="yes"/>
      <point x="553" y="416"/>
      <point x="554" y="410"/>
      <point x="555" y="404" type="curve" smooth="yes"/>
      <point x="556" y="393"/>
      <point x="557" y="381"/>
      <point x="558" y="369" type="curve" smooth="yes"/>
      <point x="558" y="358"/>
      <point x="558" y="346"/>
      <point x="558" y="335" type="curve" smooth="yes"/>
      <point x="557" y="332"/>
      <point x="557" y="329"/>
      <point x="557" y="327" type="curve" smooth="yes"/>
      <point x="557" y="325"/>
      <point x="557" y="324"/>
      <point x="557" y="322" type="curve" smooth="yes"/>
      <point x="557" y="319"/>
      <point x="557" y="331"/>
      <point x="557" y="327" type="curve" smooth="yes"/>
      <point x="557" y="326"/>
      <point x="557" y="325"/>
      <point x="557" y="324" type="curve" smooth="yes"/>
      <point x="556" y="319"/>
      <point x="556" y="313"/>
      <point x="555" y="307" type="curve" smooth="yes"/>
      <point x="552" y="285"/>
      <point x="547" y="262"/>
      <point x="541" y="241" type="curve" smooth="yes"/>
      <point x="540" y="239"/>
      <point x="539" y="237"/>
      <point x="539" y="235" type="curve" smooth="yes"/>
      <point x="538" y="234"/>
      <point x="538" y="233"/>
      <point x="538" y="232" type="curve" smooth="yes"/>
      <point x="537" y="229"/>
      <point x="541" y="241"/>
      <point x="539" y="236" type="curve" smooth="yes"/>
      <point x="538" y="232"/>
      <point x="536" y="228"/>
      <point x="535" y="224" type="curve" smooth="yes"/>
      <point x="532" y="217"/>
      <point x="528" y="209"/>
      <point x="525" y="201" type="curve" smooth="yes"/>
      <point x="518" y="187"/>
      <point x="510" y="173"/>
      <point x="500" y="159" type="curve"/>
      <point x="502" y="161"/>
      <point x="503" y="163"/>
      <point x="505" y="165" type="curve"/>
      <point x="489" y="143"/>
      <point x="471" y="123"/>
      <point x="451" y="106" type="curve"/>
      <point x="453" y="107"/>
      <point x="455" y="109"/>
      <point x="457" y="111" type="curve"/>
      <point x="439" y="95"/>
      <point x="419" y="82"/>
      <point x="398" y="71" type="curve" smooth="yes"/>
      <point x="395" y="70"/>
      <point x="393" y="69"/>
      <point x="390" y="67" type="curve" smooth="yes"/>
      <point x="385" y="65"/>
      <point x="398" y="71"/>
      <point x="392" y="68" type="curve" smooth="yes"/>
      <point x="390" y="68"/>
      <point x="389" y="67"/>
      <point x="387" y="66" type="curve" smooth="yes"/>
      <point x="382" y="64"/>
      <point x="376" y="61"/>
      <point x="370" y="59" type="curve" smooth="yes"/>
      <point x="357" y="55"/>
      <point x="345" y="51"/>
      <point x="332" y="47" type="curve" smooth="yes"/>
      <point x="326" y="46"/>
      <point x="319" y="44"/>
      <point x="312" y="43" type="curve" smooth="yes"/>
      <point x="310" y="43"/>
      <point x="302" y="41"/>
      <point x="314" y="43" type="curve"/>
      <point x="312" y="43"/>
      <point x="310" y="43"/>
      <point x="309" y="42" type="curve" smooth="yes"/>
      <point x="305" y="42"/>
      <point x="301" y="41"/>
      <point x="298" y="41" type="curve" smooth="yes"/>
      <point x="283" y="39"/>
      <point x="268" y="37"/>
      <point x="254" y="37" type="curve" smooth="yes"/>
      <point x="238" y="36"/>
      <point x="222" y="36"/>
      <point x="206" y="37" type="curve" smooth="yes"/>
      <point x="202" y="37"/>
      <point x="198" y="37"/>
      <point x="194" y="38" type="curve" smooth="yes"/>
      <point x="192" y="38"/>
      <point x="187" y="38"/>
      <point x="198" y="37" type="curve"/>
      <point x="197" y="38"/>
      <point x="196" y="38"/>
      <point x="195" y="38" type="curve" smooth="yes"/>
      <point x="192" y="38"/>
      <point x="190" y="38"/>
      <point x="187" y="38" type="curve" smooth="yes"/>
      <point x="179" y="39"/>
      <point x="170" y="40"/>
      <point x="161" y="41" type="curve" smooth="yes"/>
      <point x="148" y="43"/>
      <point x="135" y="45"/>
      <point x="122" y="48" type="curve" smooth="yes"/>
      <point x="106" y="51"/>
      <point x="91" y="41"/>
      <point x="87" y="25" type="curve" smooth="yes"/>
      <point x="84" y="10"/>
      <point x="94" y="-6"/>
      <point x="110" y="-9" type="curve" smooth="yes"/>
      <point x="175" y="-21"/>
      <point x="244" y="-26"/>
      <point x="310" y="-16" type="curve" smooth="yes"/>
      <point x="365" y="-7"/>
      <point x="418" y="12"/>
      <point x="464" y="44" type="curve" smooth="yes"/>
      <point x="506" y="72"/>
      <point x="540" y="110"/>
      <point x="565" y="154" type="curve" smooth="yes"/>
      <point x="588" y="194"/>
      <point x="604" y="241"/>
      <point x="611" y="287" type="curve" smooth="yes"/>
      <point x="618" y="335"/>
      <point x="617" y="384"/>
      <point x="609" y="432" type="curve" smooth="yes"/>
      <point x="600" y="483"/>
      <point x="584" y="531"/>
      <point x="559" y="576" type="curve" smooth="yes"/>
      <point x="536" y="619"/>
      <point x="505" y="658"/>
      <point x="469" y="690" type="curve" smooth="yes"/>
      <point x="429" y="724"/>
      <point x="382" y="749"/>
      <point x="331" y="764" type="curve" smooth="yes"/>
      <point x="277" y="780"/>
      <point x="219" y="783"/>
      <point x="164" y="775" type="curve" smooth="yes"/>
      <point x="124" y="770"/>
      <point x="86" y="761"/>
      <point x="48" y="748" type="curve" smooth="yes"/>
      <point x="33" y="742"/>
      <point x="25" y="727"/>
      <point x="29" y="711" type="curve" smooth="yes"/>
      <point x="34" y="697"/>
      <point x="51" y="687"/>
      <point x="66" y="693" type="curve"/>
    </contour>
  </outline>
</glyph>
<glyph name="E" format="1">
  <advance width="624"/>
  <unicode hex="0045"/>
  <outline>
    <contour>
      <point x="540" y="723" type="curve" smooth="yes"/>
      <point x="421" y="704"/>
      <point x="252" y="759"/>
      <point x="142" y="720" type="curve" smooth="yes"/>
      <point x="15" y="676"/>
      <point x="86" y="430"/>
      <point x="90" y="315" type="curve" smooth="yes"/>
      <point x="93" y="212"/>
      <point x="89" y="110"/>
      <point x="91" y="6" type="curve"/>
      <point x="84" y="23" type="line"/>
      <point x="84" y="23"/>
      <point x="85" y="22"/>
      <point x="85" y="22" type="curve"/>
      <point x="67" y="29" type="line"/>
      <point x="237" y="34"/>
      <point x="576" y="29"/>
      <point x="601" y="10" type="curve" smooth="yes"/>
      <point x="611" y="2"/>
      <point x="613" y="-14"/>
      <point x="605" y="-24" type="curve" smooth="yes"/>
      <point x="597" y="-34"/>
      <point x="581" y="-36"/>
      <point x="571" y="-28" type="curve" smooth="yes"/>
      <point x="548" y="-9"/>
      <point x="227" y="-14"/>
      <point x="69" y="-19" type="curve" smooth="yes"/>
      <point x="63" y="-19"/>
      <point x="55" y="-16"/>
      <point x="51" y="-12" type="curve" smooth="yes"/>
      <point x="51" y="-12"/>
      <point x="50" y="-11"/>
      <point x="50" y="-11" type="curve" smooth="yes"/>
      <point x="46" y="-7"/>
      <point x="43" y="0"/>
      <point x="43" y="6" type="curve" smooth="yes"/>
      <point x="41" y="108"/>
      <point x="45" y="210"/>
      <point x="42" y="313" type="curve" smooth="yes"/>
      <point x="38" y="458"/>
      <point x="-15" y="716"/>
      <point x="126" y="766" type="curve" smooth="yes"/>
      <point x="238" y="805"/>
      <point x="411" y="750"/>
      <point x="532" y="771" type="curve" smooth="yes"/>
      <point x="545" y="773"/>
      <point x="558" y="764"/>
      <point x="560" y="751" type="curve" smooth="yes"/>
      <point x="562" y="738"/>
      <point x="553" y="725"/>
    </contour>
    <contour>
      <point x="-39" y="397" type="curve" smooth="yes"/>
      <point x="75" y="385"/>
      <point x="201" y="376"/>
      <point x="331" y="393" type="curve" smooth="yes"/>
      <point x="344" y="394"/>
      <point x="356" y="385"/>
      <point x="358" y="372" type="curve" smooth="yes"/>
      <point x="359" y="359"/>
      <point x="350" y="347"/>
      <point x="337" y="345" type="curve" smooth="yes"/>
      <point x="203" y="328"/>
      <point x="73" y="337"/>
      <point x="-43" y="349" type="curve" smooth="yes"/>
      <point x="-56" y="350"/>
      <point x="-66" y="363"/>
      <point x="-65" y="375" type="curve" smooth="yes"/>
      <point x="-64" y="388"/>
      <point x="-51" y="398"/>
    </contour>
  </outline>
</glyph>
<glyph name="F" format="1">
  <advance width="738"/>
  <unicode hex="0046"/>
  <outline>
    <contour>
      <point x="47" y="332" type="line"/>
      <point x="161" y="332"/>
      <point x="276" y="340"/>
      <point x="391" y="344" type="curve" smooth="yes"/>
      <point x="408" y="344"/>
      <point x="421" y="360"/>
      <point x="420" y="377" type="curve" smooth="yes"/>
      <point x="420" y="394"/>
      <point x="405" y="407"/>
      <point x="387" y="406" type="curve" smooth="yes"/>
      <point x="273" y="402"/>
      <point x="158" y="395"/>
      <point x="43" y="394" type="curve" smooth="yes"/>
      <point x="26" y="394"/>
      <point x="13" y="378"/>
      <point x="14" y="361" type="curve" smooth="yes"/>
      <point x="14" y="344"/>
      <point x="29" y="332"/>
      <point x="47" y="332" type="curve"/>
    </contour>
    <contour>
      <point x="150" y="713" type="line"/>
      <point x="134" y="580"/>
      <point x="134" y="445"/>
      <point x="142" y="311" type="curve" smooth="yes"/>
      <point x="147" y="218"/>
      <point x="155" y="126"/>
      <point x="162" y="33" type="curve" smooth="yes"/>
      <point x="163" y="16"/>
      <point x="177" y="3"/>
      <point x="195" y="4" type="curve" smooth="yes"/>
      <point x="212" y="4"/>
      <point x="226" y="20"/>
      <point x="224" y="37" type="curve" smooth="yes"/>
      <point x="215" y="169"/>
      <point x="203" y="301"/>
      <point x="200" y="433" type="curve" smooth="yes"/>
      <point x="199" y="499"/>
      <point x="200" y="565"/>
      <point x="205" y="631" type="curve"/>
      <point x="205" y="629"/>
      <point x="204" y="626"/>
      <point x="204" y="623" type="curve"/>
      <point x="206" y="649"/>
      <point x="209" y="675"/>
      <point x="212" y="701" type="curve" smooth="yes"/>
      <point x="214" y="718"/>
      <point x="205" y="734"/>
      <point x="187" y="738" type="curve" smooth="yes"/>
      <point x="172" y="741"/>
      <point x="152" y="730"/>
      <point x="150" y="713" type="curve"/>
    </contour>
    <contour>
      <point x="95" y="676" type="line"/>
      <point x="225" y="681"/>
      <point x="356" y="683"/>
      <point x="486" y="685" type="curve" smooth="yes"/>
      <point x="549" y="685"/>
      <point x="612" y="686"/>
      <point x="675" y="688" type="curve" smooth="yes"/>
      <point x="692" y="688"/>
      <point x="705" y="704"/>
      <point x="704" y="721" type="curve" smooth="yes"/>
      <point x="704" y="738"/>
      <point x="689" y="751"/>
      <point x="671" y="750" type="curve" smooth="yes"/>
      <point x="540" y="748"/>
      <point x="408" y="747"/>
      <point x="277" y="744" type="curve" smooth="yes"/>
      <point x="215" y="743"/>
      <point x="153" y="741"/>
      <point x="91" y="738" type="curve" smooth="yes"/>
      <point x="74" y="738"/>
      <point x="61" y="722"/>
      <point x="62" y="705" type="curve" smooth="yes"/>
      <point x="62" y="688"/>
      <point x="78" y="675"/>
      <point x="95" y="676" type="curve"/>
    </contour>
  </outline>
</glyph>
<glyph name="G" format="1">
  <advance width="523.0"/>
  <unicode hex="0047"/>
  <outline>
    <contour>
      <point x="464" y="590" type="curve" smooth="yes"/>
      <point x="417" y="797"/>
      <point x="181" y="781"/>
      <point x="101" y="589" type="curve" smooth="yes"/>
      <point x="46" y="457"/>
      <point x="4" y="-140"/>
      <point x="350" y="32" type="curve" smooth="yes"/>
      <point x="459" y="87"/>
      <point x="455" y="181"/>
      <point x="459" y="287" type="curve" smooth="yes"/>
      <point x="459" y="300"/>
      <point x="471" y="310"/>
      <point x="484" y="310" type="curve" smooth="yes"/>
      <point x="497" y="310"/>
      <point x="507" y="298"/>
      <point x="507" y="285" type="curve" smooth="yes"/>
      <point x="503" y="159"/>
      <point x="499" y="53"/>
      <point x="372" y="-10" type="curve" smooth="yes"/>
      <point x="0" y="-196"/>
      <point x="-18" y="324"/>
      <point x="55" y="601" type="curve"/>
      <point x="119" y="839"/>
      <point x="453" y="857"/>
      <point x="510" y="600" type="curve" smooth="yes"/>
      <point x="513" y="588"/>
      <point x="505" y="574"/>
      <point x="492" y="572" type="curve" smooth="yes"/>
      <point x="480" y="569"/>
      <point x="466" y="577"/>
    </contour>
    <contour>
      <point x="272" y="296" type="curve" smooth="yes"/>
      <point x="377" y="306"/>
      <point x="482" y="318"/>
      <point x="588" y="305" type="curve" smooth="yes"/>
      <point x="601" y="303"/>
      <point x="610" y="291"/>
      <point x="609" y="278" type="curve" smooth="yes"/>
      <point x="607" y="265"/>
      <point x="595" y="256"/>
      <point x="582" y="257" type="curve" smooth="yes"/>
      <point x="480" y="270"/>
      <point x="379" y="258"/>
      <point x="276" y="248" type="curve" smooth="yes"/>
      <point x="263" y="247"/>
      <point x="251" y="257"/>
      <point x="250" y="270" type="curve" smooth="yes"/>
      <point x="249" y="283"/>
      <point x="259" y="295"/>
    </contour>
  </outline>
</glyph>
<glyph name="H" format="1">
  <advance width="689"/>
  <unicode hex="0048"/>
  <outline>
    <contour>
      <point x="575" y="741" type="line"/>
      <point x="575" y="610"/>
      <point x="571" y="479"/>
      <point x="574" y="348" type="curve" smooth="yes"/>
      <point x="577" y="237"/>
      <point x="584" y="127"/>
      <point x="603" y="17" type="curve" smooth="yes"/>
      <point x="604" y="9"/>
      <point x="606" y="2"/>
      <point x="613" y="-4" type="curve" smooth="yes"/>
      <point x="619" y="-10"/>
      <point x="627" y="-13"/>
      <point x="636" y="-12" type="curve" smooth="yes"/>
      <point x="644" y="-12"/>
      <point x="652" y="-8"/>
      <point x="657" y="-2" type="curve" smooth="yes"/>
      <point x="662" y="4"/>
      <point x="667" y="13"/>
      <point x="665" y="21" type="curve" smooth="yes"/>
      <point x="644" y="149"/>
      <point x="637" y="278"/>
      <point x="636" y="408" type="curve" smooth="yes"/>
      <point x="635" y="520"/>
      <point x="637" y="632"/>
      <point x="637" y="745" type="curve" smooth="yes"/>
      <point x="637" y="762"/>
      <point x="621" y="775"/>
      <point x="604" y="774" type="curve" smooth="yes"/>
      <point x="587" y="774"/>
      <point x="575" y="759"/>
      <point x="575" y="741" type="curve"/>
    </contour>
    <contour>
      <point x="52" y="340" type="line"/>
      <point x="182" y="346"/>
      <point x="311" y="370"/>
      <point x="441" y="376" type="curve" smooth="yes"/>
      <point x="483" y="378"/>
      <point x="526" y="378"/>
      <point x="568" y="376" type="curve" smooth="yes"/>
      <point x="575" y="375"/>
      <point x="584" y="380"/>
      <point x="589" y="386" type="curve" smooth="yes"/>
      <point x="595" y="392"/>
      <point x="598" y="400"/>
      <point x="597" y="409" type="curve" smooth="yes"/>
      <point x="597" y="417"/>
      <point x="593" y="425"/>
      <point x="587" y="430" type="curve" smooth="yes"/>
      <point x="580" y="437"/>
      <point x="573" y="438"/>
      <point x="564" y="438" type="curve" smooth="yes"/>
      <point x="434" y="447"/>
      <point x="304" y="427"/>
      <point x="175" y="413" type="curve" smooth="yes"/>
      <point x="133" y="408"/>
      <point x="91" y="404"/>
      <point x="48" y="402" type="curve" smooth="yes"/>
      <point x="31" y="402"/>
      <point x="18" y="386"/>
      <point x="19" y="369" type="curve" smooth="yes"/>
      <point x="19" y="352"/>
      <point x="35" y="339"/>
      <point x="52" y="340" type="curve"/>
    </contour>
    <contour>
      <point x="155" y="725" type="line"/>
      <point x="164" y="596"/>
      <point x="176" y="466"/>
      <point x="184" y="337" type="curve" smooth="yes"/>
      <point x="191" y="234"/>
      <point x="194" y="132"/>
      <point x="191" y="29" type="curve" smooth="yes"/>
      <point x="190" y="12"/>
      <point x="208" y="-1"/>
      <point x="224" y="0" type="curve" smooth="yes"/>
      <point x="232" y="0"/>
      <point x="240" y="4"/>
      <point x="245" y="10" type="curve" smooth="yes"/>
      <point x="251" y="17"/>
      <point x="253" y="24"/>
      <point x="253" y="33" type="curve" smooth="yes"/>
      <point x="258" y="163"/>
      <point x="251" y="294"/>
      <point x="241" y="424" type="curve" smooth="yes"/>
      <point x="234" y="526"/>
      <point x="225" y="627"/>
      <point x="217" y="729" type="curve" smooth="yes"/>
      <point x="216" y="746"/>
      <point x="202" y="759"/>
      <point x="184" y="758" type="curve" smooth="yes"/>
      <point x="167" y="758"/>
      <point x="153" y="742"/>
      <point x="155" y="725" type="curve"/>
    </contour>
  </outline>
</glyph>
<glyph name="I" format="1">
  <advance width="449"/>
  <unicode hex="0049"/>
  <outline>
    <contour>
      <point x="58" y="-8" type="line"/>
      <point x="166" y="-12"/>
      <point x="274" y="-8"/>
      <point x="382" y="0" type="curve" smooth="yes"/>
      <point x="399" y="1"/>
      <point x="412" y="15"/>
      <point x="411" y="33" type="curve" smooth="yes"/>
      <point x="411" y="50"/>
      <point x="395" y="64"/>
      <point x="378" y="62" type="curve" smooth="yes"/>
      <point x="271" y="54"/>
      <point x="162" y="51"/>
      <point x="54" y="54" type="curve" smooth="yes"/>
      <point x="37" y="55"/>
      <point x="24" y="37"/>
      <point x="25" y="21" type="curve" smooth="yes"/>
      <point x="25" y="13"/>
      <point x="29" y="5"/>
      <point x="35" y="0" type="curve" smooth="yes"/>
      <point x="42" y="-6"/>
      <point x="49" y="-8"/>
      <point x="58" y="-8" type="curve"/>
    </contour>
    <contour>
      <point x="185" y="693" type="line"/>
      <point x="185" y="562"/>
      <point x="186" y="431"/>
      <point x="185" y="300" type="curve" smooth="yes"/>
      <point x="185" y="215"/>
      <point x="184" y="130"/>
      <point x="181" y="45" type="curve" smooth="yes"/>
      <point x="180" y="28"/>
      <point x="198" y="15"/>
      <point x="214" y="16" type="curve" smooth="yes"/>
      <point x="222" y="16"/>
      <point x="230" y="20"/>
      <point x="235" y="26" type="curve" smooth="yes"/>
      <point x="241" y="33"/>
      <point x="243" y="40"/>
      <point x="243" y="49" type="curve" smooth="yes"/>
      <point x="248" y="179"/>
      <point x="249" y="309"/>
      <point x="248" y="439" type="curve" smooth="yes"/>
      <point x="248" y="525"/>
      <point x="247" y="611"/>
      <point x="247" y="697" type="curve" smooth="yes"/>
      <point x="247" y="714"/>
      <point x="231" y="727"/>
      <point x="214" y="726" type="curve" smooth="yes"/>
      <point x="197" y="726"/>
      <point x="185" y="711"/>
      <point x="185" y="693" type="curve"/>
    </contour>
    <contour>
      <point x="74" y="692" type="line"/>
      <point x="169" y="684"/>
      <point x="266" y="683"/>
      <point x="362" y="692" type="curve" smooth="yes"/>
      <point x="379" y="693"/>
      <point x="392" y="707"/>
      <point x="391" y="725" type="curve" smooth="yes"/>
      <point x="391" y="741"/>
      <point x="375" y="756"/>
      <point x="358" y="754" type="curve" smooth="yes"/>
      <point x="271" y="747"/>
      <point x="183" y="746"/>
      <point x="96" y="753" type="curve"/>
      <point x="98" y="753"/>
      <point x="101" y="753"/>
      <point x="104" y="752" type="curve"/>
      <point x="98" y="753"/>
      <point x="92" y="753"/>
      <point x="86" y="754" type="curve" smooth="yes"/>
      <point x="78" y="755"/>
      <point x="71" y="754"/>
      <point x="63" y="750" type="curve" smooth="yes"/>
      <point x="56" y="745"/>
      <point x="51" y="738"/>
      <point x="49" y="729" type="curve" smooth="yes"/>
      <point x="48" y="721"/>
      <point x="49" y="713"/>
      <point x="53" y="706" type="curve" smooth="yes"/>
      <point x="58" y="700"/>
      <point x="66" y="693"/>
      <point x="74" y="692" type="curve"/>
    </contour>
  </outline>
</glyph>
